<ttFont>
<head>
    <!-- Most of this table will be recalculated by the compiler -->
    <tableVersion value="1.0"/>
    <fontRevision value="1.002"/>
    <checkSumAdjustment value="0x85c574ec"/>
    <magicNumber value="0x5f0f3cf5"/>
    <flags value="00000000 00001011"/>
    <unitsPerEm value="1000"/>
    <created value="Thu Jan 14 16:22:35 2016"/>
    <modified value="Thu Jan  2 08:45:00 2020"/>
    <xMin value="-1628"/>
    <yMin value="-288"/>
    <xMax value="630"/>
    <yMax value="1144"/>
    <macStyle value="00000000 00000000"/>
    <lowestRecPPEM value="8"/>
    <fontDirectionHint value="2"/>
    <indexToLocFormat value="0"/>
    <glyphDataFormat value="0"/>
  </head>
          <CharString index="0">
            -38 -29 -30 -37 -38 29 -29 38 39 28 29 38 hvcurveto
            37 -28 30 -39 vhcurveto
            return
          </CharString>
          <CharString index="1">
            -216 -177 -87 -147 0 -145 0 -142 85 -144 214 -176 rrcurveto
            56 51 rlineto
            -201 159 -74 128 0 127 0 127 73 128 205 160 rrcurveto
            return
          </CharString>
          <CharString index="2">
            217 178 86 147 0 145 0 141 -85 144 -214 177 rrcurveto
            -55 -53 rlineto
            200 -158 74 -128 0 -126 0 -128 -73 -127 -205 -161 rrcurveto
            return
          </CharString>
          <CharString index="3">
            139 88 132 199 196 -74 117 -139 -139 -87 -131 -200 -195 74 -118 138 hvcurveto
            return
          </CharString>
          <CharString index="4">
            84 6 rlineto
            -57 207 -59 204 -65 208 rrcurveto
            -116 hlineto
            return
          </CharString>
          <CharString index="5">
            -65 -209 -59 -206 -57 -207 rrcurveto
            83 hlineto
            17 63 16 64 17 63 rrcurveto
            209 hlineto
            18 -64 17 -65 17 -64 rrcurveto
            return
          </CharString>
          <CharString index="6">
            8 hlineto
            29 -99 27 -100 27 -99 rrcurveto
            -175 hlineto
            28 99 27 99 29 100 rrcurveto
            return
          </CharString>
          <CharString index="7">
            -259 -11 -68 87 0 167 0 142 50 92 271 3 rrcurveto
            -5 80 rlineto
            -304 -10 -98 -148 0 -170 0 -186 89 -139 317 22 rrcurveto
            return
          </CharString>
          <CharString index="8">
            0 240 -114 101 -302 -42 rrcurveto
            -622 vlineto
            278 -42 138 122 0 243 rrcurveto
            return
          </CharString>
          <CharString index="9">
            0 -183 -76 -86 -174 26 rrcurveto
            489 vlineto
            180 22 70 -81 0 -187 rrcurveto
            return
          </CharString>
          <CharString index="10">
            -298 211 253 63 -253 204 293 71 -376 -620 373 hlineto
            return
          </CharString>
          <CharString index="11">
            -2 80 1 96 0 128 rrcurveto
            -78 hlineto
            0 -92 2 -93 1 -67 -198 -13 -64 98 0 165 0 138 49 102 267 -1 rrcurveto
            -5 80 rlineto
            -304 -11 -92 -146 0 -177 0 -217 128 -133 295 63 rrcurveto
            return
          </CharString>
          <CharString index="12">
            154 66 -390 -66 153 -488 -153 -66 388 hlineto
            6 66 -158 0 rlineto
            return
          </CharString>
          <CharString index="13">
            91 11 -212 312 197 303 -89 0 -173 -273 -68 0 0 273 -83 0 rlineto
            return
          </CharString>
          <CharString index="14">
            8 71 -301 0 0 549 -84 0 0 -620 rlineto
            return
          </CharString>
          <CharString index="15">
            3 -472 -4 0 -225 472 -87 0 0 -620 77 0 rlineto
            return
          </CharString>
          <CharString index="16">
            -3 481 5 0 rlineto
            return
          </CharString>
          <CharString index="17">
            147 0 94 121 -1 218 rrcurveto
            200 -79 111 -139 -147 -93 -120 -219 -199 80 -112 138 vhcurveto
            return
          </CharString>
          <CharString index="18">
            95 52 -90 -170 -166 -49 -86 -92 -96 -51 90 170 166 48 86 93 hvcurveto
            return
          </CharString>
          <CharString index="19">
            89 13 -148 268 rlineto
            60 43 44 56 0 82 0 127 -96 82 -285 -42 rrcurveto
            return
          </CharString>
          <CharString index="20">
            -619 83 226 vlineto
            127 4 rlineto
            return
          </CharString>
          <CharString index="21">
            151 22 65 -53 0 -90 0 -63 -33 -48 -48 -32 rrcurveto
            -135 -4 rlineto
            return
          </CharString>
          <CharString index="22">
            -1 -77 rlineto
            287 -16 107 101 0 95 0 148 -309 43 0 107 0 51 57 40 217 -15 rrcurveto
            -5 77 rlineto
            -255 14 -99 -92 0 -88 0 -145 309 -38 0 -114 0 -59 -82 -51 -226 19 rrcurveto
            return
          </CharString>
          <CharString index="23">
            191 71 -463 hlineto
            -7 -71 195 0 0 -549 84 0 rlineto
            return
          </CharString>
          <CharString index="24">
            127 77 80 139 hvcurveto
            416 -83 -429 vlineto
            -94 -37 -40 -76 -74 -45 47 102 vhcurveto
            414 -84 -420 vlineto
            -139 73 -76 122 vhcurveto
            return
          </CharString>
          <CharString index="25">
            87 hlineto
            15 117 21 236 13 267 rrcurveto
            -78 hlineto
            -5 -124 -16 -329 -7 -61 rrcurveto
            -3 hlineto
            -30 110 -30 111 -29 109 rrcurveto
            -50 hlineto
            -28 -108 -25 -100 -33 -122 rrcurveto
            -4 hlineto
            -6 61 -18 329 -5 124 rrcurveto
            -82 hlineto
            13 -267 20 -236 15 -117 rrcurveto
            88 0 87 330 rlineto
            return
          </CharString>
          <CharString index="26">
            199 414 -86 0 -153 -334 rlineto
            return
          </CharString>
          <CharString index="27">
            -156 336 -89 -4 201 -412 0 -206 rlineto
            return
          </CharString>
          <CharString index="28">
            7 73 -330 -1 323 477 0 71 -404 0 -6 -73 321 1 -325 -477 0 -71 rlineto
            return
          </CharString>
          <CharString index="29">
            324 0 7 66 -253 0 0 742 249 0 0 66 -327 0 rlineto
            return
          </CharString>
          <CharString index="30">
            -3 -66 328 0 0 873 -326 0 0 -66 249 0 0 -741 rlineto
            return
          </CharString>
          <CharString index="31">
            -55 42 -92 84 -50 54 rrcurveto
            -60 -67 rlineto
            62 -49 103 -65 68 -35 rrcurveto
            return
          </CharString>
          <CharString index="32">
            74 5 rlineto
            -4 70 -4 69 0 102 0 189 -76 59 -283 8 rrcurveto
            -9 -70 rlineto
            219 -8 62 -29 7 -113 -217 13 -100 -76 0 -101 rrcurveto
            return
          </CharString>
          <CharString index="33">
            -79 61 -48 89 vhcurveto
            77 0 57 35 40 37 rrcurveto
            2 -22 4 -31 1 -10 rrcurveto
            return
          </CharString>
          <CharString index="34">
            0 -150 83 -111 297 20 rrcurveto
            9 68 rlineto
            -240 -11 -69 66 0 129 0 104 49 69 253 -1 rrcurveto
            -6 77 rlineto
            -285 -6 -91 -119 0 -135 rrcurveto
            return
          </CharString>
          <CharString index="35">
            76 4 rlineto
            -5 111 -2 155 0 220 rrcurveto
            0 218 rlineto
            return
          </CharString>
          <CharString index="36">
            -14 2 -15 1 -15 0 rrcurveto
            -149 -128 -102 -179 -145 78 -87 106 hvcurveto
            60 0 49 28 35 33 rrcurveto
            return
          </CharString>
          <CharString index="37">
            8 69 rlineto
            -237 6 -73 44 -8 116 rrcurveto
            335 8 rlineto
            18 162 -68 108 -134 0 -127 0 -104 -115 0 -149 0 -159 83 -89 307 -1 rrcurveto
            return
          </CharString>
          <CharString index="38">
            82 0 39 -59 1 -94 -69 -2 -134 -4 -56 -2 6 105 50 56 81 0 rrcurveto
            return
          </CharString>
          <CharString index="39">
            270 14 67 104 0 169 0 57 0 268 -1 39 -49 15 -46 8 -48 0 rrcurveto
            -140 -121 -98 -158 -129 79 -78 106 hvcurveto
            58 0 47 21 35 27 -2 -139 -31 -28 -232 -18 rrcurveto
            return
          </CharString>
          <CharString index="40">
            -77 -58 53 108 109 66 59 86 hvcurveto
            31 0 30 -6 32 -9 -1 -76 1 -137 0 -67 -32 -20 -39 -14 -39 0 rrcurveto
            return
          </CharString>
          <CharString index="41">
            86 12 -188 249 rlineto
            62 73 59 79 56 79 rrcurveto
            return
          </CharString>
          <CharString index="42">
            -83 6 rlineto
            -51 -75 -53 -69 -58 -68 rrcurveto
            -76 -2 0 428 rlineto
            return
          </CharString>
          <CharString index="43">
            -81 -7 0 -699 81 0 0 218 73 2 rlineto
            return
          </CharString>
          <CharString index="44">
            7 62 -160 0 0 636 -226 0 rlineto
            return
          </CharString>
          <CharString index="45">
            151 -7 0 -571 -159 0 0 -62 rlineto
            return
          </CharString>
          <CharString index="46">
            62 37 -33 -94 hvcurveto
            -305 81 332 vlineto
            120 -58 49 -88 vhcurveto
            -70 0 -53 -31 -41 -34 rrcurveto
            return
          </CharString>
          <CharString index="47">
            -5 56 -75 -5 rlineto
            5 -113 2 -160 0 -214 rrcurveto
            81 hlineto
            return
          </CharString>
          <CharString index="48">
            0 171 -2 129 -2 89 rrcurveto
            38 26 41 17 47 0 rrcurveto
            return
          </CharString>
          <CharString index="49">
            126 105 106 162 157 -86 92 -122 -126 -106 -108 -159 -158 88 -92 121 hvcurveto
            return
          </CharString>
          <CharString index="50">
            -83 -57 70 128 120 56 66 80 84 57 -71 -127 -121 -56 -65 -81 hvcurveto
            return
          </CharString>
          <CharString index="51">
            7 62 -166 0 rlineto
            -1 114 -2 96 -1 85 rrcurveto
            return
          </CharString>
          <CharString index="52">
            54 35 71 22 100 8 rrcurveto
            -4 86 rlineto
            -101 -12 -75 -40 -48 -50 rrcurveto
            return
          </CharString>
          <CharString index="53">
            -1 23 -4 51 -1 10 rrcurveto
            -190 0 -6 -58 124 -7 rlineto
            3 -98 1 -115 2 -150 rrcurveto
            -130 -62 hlineto
            return
          </CharString>
          <CharString index="54">
            -250 19 -84 -80 0 -78 0 -123 274 -14 0 -87 0 -44 -61 -36 -214 17 rrcurveto
            -3 -72 rlineto
            275 -15 87 77 0 80 0 125 -276 22 0 81 0 40 54 34 201 -18 rrcurveto
            return
          </CharString>
          <CharString index="55">
            9 68 rlineto
            -164 3 -47 22 0 85 rrcurveto
            257 200 63 -200 143 vlineto
            return
          </CharString>
          <CharString index="56">
            -81 -7 0 -136 -93 0 -8 -63 101 0 0 -270 rlineto
            0 -121 71 -47 212 3 rrcurveto
            return
          </CharString>
          <CharString index="57">
            75 5 rlineto
            -5 113 -2 160 0 214 rrcurveto
            -81 hlineto
            return
          </CharString>
          <CharString index="58">
            0 -172 2 -128 2 -88 -37 -27 -41 -18 -47 0 rrcurveto
            -61 -36 32 96 hvcurveto
            0 308 rlineto
            return
          </CharString>
          <CharString index="59">
            -81 -6 0 -329 rlineto
            -121 57 -49 87 vhcurveto
            70 0 52 32 41 34 rrcurveto
            return
          </CharString>
          <CharString index="60">
            75 hlineto
            17 116 21 190 11 184 rrcurveto
            -76 hlineto
            return
          </CharString>
          <CharString index="61">
            -7 -140 -7 -118 -8 -132 rrcurveto
            -4 hlineto
            -10 32 -70 199 -8 25 rrcurveto
            -50 hlineto
            -7 -24 -69 -199 -10 -31 rrcurveto
            -4 hlineto
            -10 132 -7 117 -7 139 rrcurveto
            -80 hlineto
            11 -184 21 -190 18 -116 rrcurveto
            73 0 93 274 rlineto
            return
          </CharString>
          <CharString index="62">
            166 20 47 46 66 173 rrcurveto
            return
          </CharString>
          <CharString index="63">
            64 162 52 146 41 121 rrcurveto
            -78 hlineto
            -26 -69 -70 -221 -37 -100 rrcurveto
            -10 hlineto
            return
          </CharString>
          <CharString index="64">
            -55 125 -56 142 -49 125 rrcurveto
            -83 -5 rlineto
            49 -120 94 -227 57 -125 rrcurveto
            9 -2 rlineto
            -34 -80 -29 -17 -125 -19 rrcurveto
            return
          </CharString>
          <CharString index="65">
            6 72 -320 -2 311 352 0 68 -395 0 -6 -72 308 2 -311 -351 0 -69 rlineto
            return
          </CharString>
          <CharString index="66">
            28 66 rlineto
            -175 53 -76 39 0 53 0 58 88 42 0 63 rrcurveto
            return
          </CharString>
          <CharString index="67">
            0 56 -96 49 0 52 0 45 78 40 181 51 rrcurveto
            -26 67 rlineto
            -230 -73 -81 -69 0 -69 rrcurveto
            return
          </CharString>
          <CharString index="68">
            1 -75 100 -43 0 -45 0 -30 -36 -23 -125 -11 rrcurveto
            -2 -59 rlineto
            return
          </CharString>
          <CharString index="69">
            0 -47 -92 -43 0 -79 rrcurveto
            0 -74 78 -46 226 -73 rrcurveto
            return
          </CharString>
          <CharString index="70">
            230 73 80 70 0 68 0 76 -101 43 0 45 rrcurveto
            return
          </CharString>
          <CharString index="71">
            0 29 37 24 124 11 rrcurveto
            3 58 rlineto
            return
          </CharString>
          <CharString index="72">
            0 47 93 44 0 78 0 74 -78 46 -226 73 rrcurveto
            -28 -66 rlineto
            175 -53 76 -38 0 -54 0 -58 -89 -42 0 -63 rrcurveto
            return
          </CharString>
          <CharString index="73">
            0 -57 95 -49 0 -51 0 -45 -78 -41 -180 -50 rrcurveto
            return
          </CharString>
          <CharString index="74">
            2 136 -83 0 -1 -136 rlineto
            return
          </CharString>
          <CharString index="75">
            60 47 -168 218 170 209 -59 49 -169 -220 -4 -81 rlineto
            return
          </CharString>
          <CharString index="76">
            60 47 -170 217 172 210 -59 49 -169 -220 -4 -81 rlineto
            return
          </CharString>
          <CharString index="77">
            -334 -70 334 hlineto
            return
          </CharString>
          <CharString index="78">
            57 -213 vlineto
            129 89 71 65 0 75 0 66 -61 53 -208 -1 rrcurveto
            -5 -58 rlineto
            162 -3 46 -27 0 -47 0 -60 -78 -59 -145 -97 rrcurveto
            7 -53 rlineto
            return
          </CharString>
          <CharString index="79">
            207 6 77 53 0 66 0 47 -46 39 -129 20 rrcurveto
            return
          </CharString>
          <CharString index="80">
            165 122 -4 53 -269 0 0 -57 195 2 0 -3 -162 -121 0 -33 rlineto
            return
          </CharString>
          <CharString index="81">
            136 -13 50 -27 0 -31 0 -35 -57 -23 -168 -5 rrcurveto
            return
          </CharString>
          <CharString index="82">
            23 -36 rlineto
            68 33 108 65 59 53 rrcurveto
            -65 63 rlineto
            -48 -57 -87 -81 -58 -40 rrcurveto
            return
          </CharString>
          <CharString index="83">
            5 55 -114 0 0 356 -64 -5 0 -60 -120 -16 2 -48 118 7 0 -234 -125 0 0 -55 rlineto
            return
          </CharString>
          <CharString index="84">
            169 220 5 81 -171 222 -60 -47 170 -217 -172 -210 rlineto
            return
          </CharString>
          <CharString index="85">
            169 220 4 81 -170 222 -60 -47 170 -216 -172 -211 rlineto
            return
          </CharString>
          <CharString index="86">
            428 55 -428 hlineto
            return
          </CharString>
          <CharString index="87">
            5 55 -57 -1 1 137 -62 -5 2 -132 -148 1 rlineto
            2 31 46 180 15 51 rrcurveto
            -70 5 rlineto
            -33 -119 -17 -126 1 -77 rrcurveto
            203 1 -1 -81 62 0 -1 81 rlineto
            return
          </CharString>
          <CharString index="88">
            51 49 -176 144 -4 0 -176 -153 40 -39 132 113 rlineto
            return
          </CharString>
          <CharString index="89">
            50 0 46 54 36 85 rrcurveto
            -46 20 rlineto
            -27 -59 -25 -34 -25 0 -42 0 -41 101 -64 0 -51 0 -46 -54 -35 -85 rrcurveto
            45 -20 rlineto
            27 58 25 34 26 0 rrcurveto
            42 0 41 -100 64 0 rrcurveto
            return
          </CharString>
          <CharString index="90">
            -80 -51 -47 -61 -58 54 -46 77 80 52 46 62 hvcurveto
            56 -54 48 -78 vhcurveto
            return
          </CharString>
          <CharString index="91">
            6 -305 -102 hlineto
            32 102 33 103 31 100 rrcurveto
            return
          </CharString>
          <CharString index="92">
            244 0 6 71 -177 0 0 211 146 0 0 63 -146 0 0 204 173 0 0 71 -301 0 rlineto
            -69 -206 -70 -208 -64 -206 rrcurveto
            81 hlineto
            18 60 19 61 19 61 rrcurveto
            121 hlineto
            return
          </CharString>
          <CharString index="93">
            0 240 -114 101 -302 -42 rrcurveto
            -277 -70 -59 70 -286 vlineto
            278 -42 138 122 0 243 rrcurveto
            return
          </CharString>
          <CharString index="94">
            219 128 vlineto
            3 59 -131 0 0 211 rlineto
            180 22 70 -81 0 -187 0 -183 -76 -86 -174 26 rrcurveto
            return
          </CharString>
          <CharString index="95">
            50 0 46 54 36 85 rrcurveto
            -46 20 rlineto
            -27 -59 -25 -34 -25 0 -42 0 -41 101 -64 0 -51 0 -46 -54 -35 -85 rrcurveto
            45 -20 rlineto
            27 58 25 34 26 0 42 0 41 -100 64 0 rrcurveto
            return
          </CharString>
          <CharString index="96">
            167 49 85 93 vhcurveto
            38 0 31 -14 24 -28 rrcurveto
            -209 -380 rlineto
            -17 43 -9 56 0 71 rrcurveto
            return
          </CharString>
          <CharString index="97">
            -38 0 -32 14 -23 28 rrcurveto
            209 380 rlineto
            17 -42 9 -57 0 -71 0 -167 -50 -85 -92 0 rrcurveto
            return
          </CharString>
          <CharString index="98">
            147 0 94 121 -1 218 rrcurveto
            return
          </CharString>
          <CharString index="99">
            0 101 -20 79 -38 53 rrcurveto
            39 71 rlineto
            return
          </CharString>
          <CharString index="100">
            -53 28 -29 -56 rlineto
            -32 23 -39 12 -46 0 -147 0 -93 -120 0 -219 0 -102 21 -79 39 -53 rrcurveto
            -39 -70 rlineto
            return
          </CharString>
          <CharString index="101">
            52 -28 30 55 rlineto
            32 -22 38 -12 45 0 rrcurveto
            return
          </CharString>
          <CharString index="102">
            -61 -40 30 52 hvcurveto
            0 67 59 39 179 -19 0 -48 1 -36 1 -32 -38 -30 -52 -23 -49 0 rrcurveto
            return
          </CharString>
          <CharString index="103">
            47 0 18 -52 -1 -100 rrcurveto
            -135 -2 rlineto
            3 107 23 47 45 0 rrcurveto
            return
          </CharString>
          <CharString index="104">
            -35 -24 25 52 60 40 28 84 hvcurveto
            0 -43 4 -38 11 -32 rrcurveto
            -20 -31 -27 -21 -33 0 rrcurveto
            return
          </CharString>
          <CharString index="105">
            7 68 rlineto
            -166 4 -33 44 -1 114 rrcurveto
            209 5 rlineto
            11 167 -44 100 -93 0 -54 0 -41 -31 -25 -55 rrcurveto
            return
          </CharString>
          <CharString index="106">
            -28 58 -60 19 -118 7 rrcurveto
            -6 -69 rlineto
            144 -9 32 -25 3 -116 -135 -3 -65 -57 0 -99 0 -78 44 -45 62 0 59 0 44 36 26 40 rrcurveto
            35 -48 68 -26 125 -1 rrcurveto
            return
          </CharString>
          <CharString index="107">
            6 62 -184 0 0 428 -258 0 -6 -57 183 -8 0 -363 -184 0 0 -62 rlineto
            return
          </CharString>
          <CharString index="108">
            0 171 -2 129 -2 89 38 26 41 17 47 0 rrcurveto
            return
          </CharString>
          <CharString index="109">
            121 57 65 80 vhcurveto
            33 0 29 -11 23 -21 rrcurveto
            -195 -282 rlineto
            -17 32 -10 43 0 53 rrcurveto
            return
          </CharString>
          <CharString index="110">
            -32 0 -29 10 -22 20 rrcurveto
            195 282 rlineto
            17 -32 9 -42 0 -51 0 -122 -56 -65 -82 0 rrcurveto
            return
          </CharString>
          <CharString index="111">
            0 74 -19 60 -33 42 rrcurveto
            42 61 rlineto
            return
          </CharString>
          <CharString index="112">
            -48 32 -37 -53 rlineto
            -32 22 -38 11 -43 0 -126 0 -106 -108 0 -159 0 -76 20 -60 35 -43 rrcurveto
            -42 -59 rlineto
            return
          </CharString>
          <CharString index="113">
            48 -32 36 52 rlineto
            32 -21 38 -11 42 0 rrcurveto
            return
          </CharString>
          <CharString index="114">
            71 0 66 56 56 92 rrcurveto
            -48 25 rlineto
            -47 -70 -39 -37 -52 0 -49 0 -37 31 -49 80 rrcurveto
            -57 -33 rlineto
            54 -97 61 -47 70 0 rrcurveto
            return
          </CharString>
          <CharString index="115">
            5 136 -85 0 -3 -136 rlineto
            return
          </CharString>
          <CharString index="116">
            176 151 -41 40 -131 -112 -133 113 -51 -49 176 -143 rlineto
            return
          </CharString>
          <CharString index="117">
            176 151 -41 40 -131 -112 rlineto
            return
          </CharString>
          <CharString index="118">
            -133 113 -51 -49 rlineto
            return
          </CharString>
          <CharString index="119">
            37 -13 rlineto
            60 89 16 79 -11 83 rrcurveto
            -91 -1 rlineto
            19 -75 7 -73 -37 -89 rrcurveto
            return
          </CharString>
          <CharString index="120">
            41 -13 rlineto
            55 64 19 79 -9 67 -5 0 -90 -5 -5 0 22 -58 5 -64 -33 -70 rrcurveto
            return
          </CharString>
          <CharString index="121">
            -41 13 rlineto
            -55 -64 -19 -79 9 -67 rrcurveto
            100 5 rlineto
            -22 58 -5 64 33 70 rrcurveto
            return
          </CharString>
          <CharString index="122">
            41 -13 rlineto
            55 64 19 79 -9 67 -5 0 -90 -5 -5 0 rrcurveto
            22 -58 5 -64 -33 -70 rrcurveto
            return
          </CharString>
          <CharString index="123">
            39 -26 rlineto
            52 52 62 78 34 56 rrcurveto
            -81 39 rlineto
            -23 -58 -45 -86 -38 -55 rrcurveto
            return
          </CharString>
          <CharString index="124">
            39 -24 rlineto
            53 52 61 77 35 56 rrcurveto
            -84 35 rlineto
            -23 -59 -43 -81 -38 -56 rrcurveto
            return
          </CharString>
          <CharString index="125">
            -80 -51 -47 -61 -58 54 -46 77 80 52 46 62 56 -54 48 -78 hvcurveto
            return
          </CharString>
          <CharString index="126">
            5 120 -98 0 -5 -120 rlineto
            return
          </CharString>
          <CharString index="127">
            54 56 -232 207 238 205 -54 56 -244 -221 -5 -81 rlineto
            return
          </CharString>
          <CharString index="128">
            244 221 5 82 -243 221 -54 -56 232 -207 -238 -204 rlineto
            return
          </CharString>
          <CharString index="129">
            104 68 87 126 124 -58 77 -103 -104 -67 -87 -126 -125 58 -76 102 hvcurveto
            return
          </CharString>
          <CharString index="130">
            66 35 -58 -98 -93 -33 -55 -66 -66 -35 58 98 93 32 55 67 hvcurveto
            return
          </CharString>
          <CharString index="131">
            0 54 -51 45 -163 15 rrcurveto
            8 95 188 0 6 57 -248 0 -15 -198 rlineto
            159 -11 54 -25 0 -33 0 -42 -59 -25 -164 -11 rrcurveto
            4 -61 rlineto
            194 13 87 55 0 72 rrcurveto
            return
          </CharString>
          <CharString index="132">
            84 71 55 82 hvcurveto
            0 118 -145 32 -99 -82 13 68 52 47 125 45 rrcurveto
            -23 55 rlineto
            -157 -57 -75 -91 0 -113 rrcurveto
            -104 63 -55 91 vhcurveto
            return
          </CharString>
          <CharString index="133">
            -56 -42 37 77 hvcurveto
            4 vlineto
            89 59 96 -20 0 -78 rrcurveto
            -49 -38 -30 -49 vhcurveto
            return
          </CharString>
          <CharString index="134">
            45 118 63 116 76 112 rrcurveto
            56 -296 vlineto
            -5 -58 232 0 2 -3 rlineto
            -78 -110 -62 -110 -45 -113 rrcurveto
            return
          </CharString>
          <CharString index="135">
            99 62 51 58 hvcurveto
            0 48 -49 30 -53 26 rrcurveto
            return
          </CharString>
          <CharString index="136">
            60 26 34 32 0 47 rrcurveto
            58 -60 38 -79 -98 -53 -55 -51 vhcurveto
            0 -46 43 -30 48 -26 rrcurveto
            return
          </CharString>
          <CharString index="137">
            -61 -25 -37 -35 0 -47 rrcurveto
            -59 56 -40 88 vhcurveto
            return
          </CharString>
          <CharString index="138">
            27 28 24 52 52 30 -24 -33 vhcurveto
            0 -31 -28 -25 -44 -18 rrcurveto
            -48 23 -42 23 0 34 rrcurveto
            return
          </CharString>
          <CharString index="139">
            -56 -31 26 35 hvcurveto
            0 31 27 26 47 19 52 -25 48 -23 0 -34 rrcurveto
            -31 -33 -24 -54 vhcurveto
            return
          </CharString>
          <CharString index="140">
            157 57 75 90 0 113 rrcurveto
            104 -64 56 -90 -84 -71 -56 -82 vhcurveto
            0 -118 145 -31 98 81 -13 -69 -52 -46 -125 -44 rrcurveto
            return
          </CharString>
          <CharString index="141">
            49 40 31 48 56 41 -37 -77 vhcurveto
            -4 vlineto
            -88 -60 -97 20 0 78 rrcurveto
            return
          </CharString>
          <CharString index="142">
            29 0 53 199 3 0 -1 -253 52 0 0 329 -64 0 -55 -200 -2 0 -59 200 -63 0 0 -329 50 0 -1 253 3 0 rlineto
            return
          </CharString>
          <CharString index="143">
            60 26 34 32 0 47 rrcurveto
            58 -60 38 -79 -98 -53 -55 -51 vhcurveto
            return
          </CharString>
          <CharString index="144">
            0 -46 43 -30 48 -26 rrcurveto
            return
          </CharString>
          <CharString index="145">
            9 7 6 9 9 7 -6 -9 -9 -7 -7 -9 vhcurveto
            -9 -7 6 10 hvcurveto
            return
          </CharString>
          <CharString index="146">
            8 -2 3 -4 -4 -2 -3 -8 -9 2 -3 4 vhcurveto
            4 2 3 9 hvcurveto
            return
          </CharString>
          <CharString index="147">
            -6 2 -3 5 vhcurveto
            4 0 2 2 1 4 rrcurveto
            5 hlineto
            return
          </CharString>
          <CharString index="148">
            -23.83398 -48 -29.33301 -37 -37.58301 0 -55.91699 0 -29.33301 100 -91.66699 0 -91.66699 0 -25.66602 -100 -55.91699 0 -55.91699 0 -29.33301 100 -91.66699 0 -81.58301 0 -39.41699 -70 -27.5 -58 rrcurveto
            55 -30 rlineto
            23.83398 48 27.5 37 39.41602 0 58.66699 0 32.08301 -100 86.16699 0 86.16699 0 29.33301 100 57.75 0 58.66699 0 32.08301 -100 86.16699 0 80.66602 0 40.33398 69 27.5 57 rrcurveto
            return
          </CharString>
          <CharString index="149">
            77 0 -5.5 -202 174.16602 68 23.83398 -79 -177.83398 -58 112.75 -160 -61.41602 -49 -104.5 168 -104.5 -168 -61.41699 49 112.75 160 -177.83301 58 23.83301 79 174.16699 -68 rlineto
            return
          </CharString>
          <CharString index="150">
            77 0 -5.5 -202 174.16699 68 23.83301 -79 -177.83301 -58 112.75 -160 -61.41699 -49 -104.5 168 -104.5 -168 -61.41602 49 112.75 160 -177.83398 58 23.83398 79 174.16602 -68 rlineto
            return
          </CharString>
          <CharString index="151">
            0 -89 323.58398 -217 -323.58398 -218 0 -90 389.58398 265 0 86 rlineto
            return
          </CharString>
          <CharString index="152">
            390.5 880 -61.41602 32 -391.41699 -882 rlineto
            return
          </CharString>
          <CharString index="153">
            77 0 -5.5 -202 174.16699 68 23.83301 -79 -177.83301 -58 112.75 -160 -61.41699 -49 -104.5 168 -104.5 -168 -61.41699 49 112.75 160 -177.83301 58 23.83301 79 174.16699 -68 rlineto
            return
          </CharString>
          <CharString index="154">
            -68.75 -909 68.75 hlineto
            return
          </CharString>
          <CharString index="155">
            0 622 462.91699 -310 rlineto
            return
          </CharString>
          <CharString index="156">
            -132.91699 0 26.58398 222 134.75 0 rlineto
            return
          </CharString>
          <CharString index="157">
            -45 31.16699 -37 42.16699 43.08301 31.16699 37 45 44 -31.16699 36 -43.08301 -42.16699 -31.16699 -36 -44 vhcurveto
            return
          </CharString>
          <CharString index="158">
            -46 31.16699 -35 42.16699 43.08301 31.16699 35 46 44 -31.16699 37 -43.08301 -42.16699 -31.16699 -37 -44 vhcurveto
            return
          </CharString>
          <CharString index="159">
            -506.91602 -72 506.91602 hlineto
            return
          </CharString>
          <CharString index="160">
            -45 31.16699 -37 42.16602 43.08398 31.16602 37 45 44 -31.16602 36 -43.08398 -42.16602 -31.16699 -36 -44 vhcurveto
            return
          </CharString>
          <CharString index="161">
            -46 31.16699 -35 42.16602 43.08398 31.16602 35 46 44 -31.16602 37 -43.08398 -42.16602 -31.16699 -37 -44 vhcurveto
            return
          </CharString>
          <CharString index="162">
            -66.91699 29 -19.25 30 0 47 0 57 36.66699 39 49.5 9 rrcurveto
            return
          </CharString>
          <CharString index="163">
            0 -101 -55 -38 -60.5 -14 rrcurveto
            290 vlineto
            68.75 -32 46.75 -52 0 -53 rrcurveto
            return
          </CharString>
          <CharString index="164">
            -905.66602 -72 905.66602 hlineto
            return
          </CharString>
          <CharString index="165">
            -86.16699 0 rlineto
            return
          </CharString>
          <CharString index="166">
            9.16699 -462 68.75 0 rlineto
            return
          </CharString>
          <CharString index="167">
            -34.83301 -26.58301 -30 -37 -38 26.58301 -29 34.83301 35.75 25.66699 29 38 37 -25.66699 30 -35.75 hvcurveto
            return
          </CharString>
          <CharString index="168">
            -30.25 -65 363 -204 -363 -204 30.25 -65 405.16602 226 0 85 rlineto
            return
          </CharString>
          <CharString index="169">
            -30.25 -65 363 -204 -363 -204 30.25 -65 405.16699 226 0 85 rlineto
            return
          </CharString>
          <CharString index="170">
            348.33398 72 -348.33398 hlineto
            return
          </CharString>
          <CharString index="171">
            -389.58301 -262 0 -87 389.58301 -265 0 89 -323.58301 219 323.58301 217 rlineto
            return
          </CharString>
          <CharString index="172">
            -462.91699 312 462.91699 310 rlineto
            return
          </CharString>
          <CharString index="173">
            44 -31.16699 36 -42.16602 -43.08398 -31.16602 -36 -44 -45 31.16602 -37 43.08398 42.16602 31.16699 37 45 vhcurveto
            return
          </CharString>
          <CharString index="174">
            44 -31.16699 37 -42.16602 -43.08398 -31.16602 -37 -44 -46 31.16602 -35 43.08398 42.16602 31.16699 35 46 vhcurveto
            return
          </CharString>
          <CharString index="175">
            -405.16699 -227 0 -85 405.16699 -226 30.25 65 -363 204 363 204 rlineto
            return
          </CharString>
          <CharString index="176">
            -405.16602 -227 0 -85 405.16602 -226 30.25 65 -363 204 363 204 rlineto
            return
          </CharString>
          <CharString index="177">
            -71.5 -249 -223.66699 -70 223.66699 -249 71.5 249 225.5 70 -225.5 hlineto
            return
          </CharString>
          <CharString index="178">
            -423.5 -65 423.5 hlineto
            return
          </CharString>
          <CharString index="179">
            81.58301 66 -73.33301 hlineto
            21.08301 167 -65.08301 0 -21.08301 -167 -133.83398 0 21.08398 167 -65.08398 0 -21.08301 -167 -81.58301 0 0 -66 74.25 0 -28.41699 -222 -79.75 0 0 -64 72.41699 0 -20.16699 -170 rlineto
            65.08301 0 21.08398 170 132.91602 0 -20.16602 -170 65.08301 0 19.25 170 83.41699 0 0 64 -74.25 0 rlineto
            return
          </CharString>
          <CharString index="180">
            26.58301 222 134.75 0 -28.41602 -222 rlineto
            return
          </CharString>
          <CharString index="181">
            -285.08301 0 26.58301 222 286.91699 0 rlineto
            return
          </CharString>
          <CharString index="182">
            26.58398 222 134.75 0 -28.41699 -222 rlineto
            return
          </CharString>
          <CharString index="183">
            -85.25 -49.5 -74 -86 -85 49.5 -77 85.25 86.16699 48.58301 77 85 86 -48.58301 74 -86.16699 hvcurveto
            return
          </CharString>
          <CharString index="184">
            -50 34.83301 -38 45.83301 46.75 33.91699 38 50 49 -33.91699 39 -46.75 -45.83301 -34.83301 -39 -49 vhcurveto
            return
          </CharString>
          <CharString index="185">
            -34.83301 -25.66699 -30 -37 -38 25.66699 -29 34.83301 35.75 26.58398 29 38 37 -26.58398 30 -35.75 hvcurveto
            return
          </CharString>
          <CharString index="186">
            -34.83398 -26.58301 -30 -37 -38 26.58301 -29 34.83398 35.75 25.66602 29 38 37 -25.66602 30 -35.75 hvcurveto
            return
          </CharString>
          <CharString index="187">
            -73.33398 0 -65.08301 -31 -53.16699 -68 rrcurveto
            54.08398 -45 rlineto
            38.5 51 48.58301 23 43.08301 0 61.41699 0 46.75 -33 0 -57 0 -113 -162.25 1 0 -162 rrcurveto
            -39 77 34 vlineto
            0 147 165.91699 -23 0 160 rrcurveto
            79 -68.75 76 -112.75 vhcurveto
            return
          </CharString>
          <CharString index="188">
            -34.83301 -26.58398 -30 -37 -38 26.58398 -29 34.83301 35.75 25.66699 29 38 37 -25.66699 30 -35.75 hvcurveto
            return
          </CharString>
          <CharString index="189">
            390.5 880 -61.41699 32 -391.41602 -882 rlineto
            return
          </CharString>
          <CharString index="190">
            -483.08301 0 -33 -72 516.08301 0 rlineto
            return
          </CharString>
          <CharString index="191">
            -567.41699 0 -33 -72 600.41699 0 rlineto
            return
          </CharString>
          <CharString index="192">
            -69.66699 -801 69.66699 hlineto
            return
          </CharString>
          <CharString index="193">
            -599.5 -72 599.5 hlineto
            return
          </CharString>
          <CharString index="194">
            -506.91699 -72 506.91699 hlineto
            return
          </CharString>
          <CharString index="195">
            -1455.66602 -72 1455.66602 hlineto
            return
          </CharString>
          <CharString index="196">
            -590.33301 -72 590.33301 hlineto
            return
          </CharString>
          <CharString index="197">
            -57.75 -54 209.91699 -251 -209.91699 -251 57.75 -54 248.41699 305 rlineto
            return
          </CharString>
          <CharString index="198">
            -248.41699 -305 248.41699 -305 57.75 54 -209.91699 251 209.91699 251 rlineto
            return
          </CharString>
          <CharString index="199">
            395.08301 72 -395.08301 hlineto
            return
          </CharString>
          <CharString index="200">
            -57.75 54 -248.41699 -305 248.41699 -305 57.75 54 -209.91699 251 rlineto
            return
          </CharString>
          <CharString index="201">
            -352 -237 0 -87 348.33398 -237 41.25 61 -323.58398 219 323.58398 217 rlineto
            return
          </CharString>
          <CharString index="202">
            -389.58398 -262 0 -87 389.58398 -265 0 89 -323.58398 219 323.58398 217 rlineto
            return
          </CharString>
          <CharString index="203">
            0 -89 323.58301 -217 -323.58301 -218 0 -90 389.58301 265 0 86 rlineto
            return
          </CharString>
          <CharString index="204">
            -801 69.66699 801 vlineto
            return
          </CharString>
          <CharString index="205">
            -50 34.83398 -38 45.83301 46.75 33.91699 38 50 49 -33.91699 39 -46.75 -45.83301 -34.83398 -39 -49 vhcurveto
            return
          </CharString>
        <CharString name=".notdef">
          -200 50 900 50 hstem
          5 54 432 54 vstem
          5 -200 rmoveto
          540 1000 -540 hlineto
          77 -50 rmoveto
          386 0 -193 -390 rlineto
          216 316 rmoveto
          0 -752 -186 376 rlineto
          -246 -376 rmoveto
          0 752 186 -376 rlineto
          30 -60 rmoveto
          193 -390 -386 0 rlineto
          endchar
        </CharString>
        <CharString name="A">
          18 -21 24 -21 24 -21 187 63 298 71 hstemhm
          36 478 hintmask 10011100
          430 -3 rmoveto
          hintmask 00111100
          -103 callsubr
          hintmask 01011100
          -102 callsubr
          hintmask 00111100
          -160 554 rmoveto
          -101 callsubr
          endchar
        </CharString>
        <CharString name="AE">
          0 71 111 62 38 63 204 71 hstem
          262 73 vstem
          256 549 rmoveto
          -16 callsubr
          6 -549 rmoveto
          -15 callsubr
          endchar
        </CharString>
        <CharString name="AEacute">
          0 71 111 62 38 63 204 71 hstem
          262 73 vstem
          214 724 rmoveto
          -25 callsubr
          42 -175 rmoveto
          -16 callsubr
          6 -549 rmoveto
          -15 callsubr
          endchar
        </CharString>
        <CharString name="Aacute">
          18 -21 24 -21 24 -21 187 63 298 71 hstemhm
          36 478 hintmask 00111100
          169 724 rmoveto
          -25 callsubr
          hintmask 10011100
          261 -727 rmoveto
          hintmask 00111100
          -103 callsubr
          hintmask 01011100
          -102 callsubr
          hintmask 00111100
          -160 554 rmoveto
          -101 callsubr
          endchar
        </CharString>
        <CharString name="Abreve">
          18 -21 24 -21 24 -21 187 63 298 71 73 66 hstemhm
          36 478 hintmask 00111110
          273 695 rmoveto
          7 callsubr
          hintmask 10011110
          157 -698 rmoveto
          hintmask 00111110
          -103 callsubr
          hintmask 01011110
          -102 callsubr
          hintmask 00111110
          -160 554 rmoveto
          -101 callsubr
          endchar
        </CharString>
        <CharString name="Acircumflex">
          18 -21 24 -21 24 -21 187 63 298 71 hstemhm
          36 478 hintmask 00111100
          401 690 rmoveto
          -19 callsubr
          hintmask 10011100
          162 -807 rmoveto
          hintmask 00111100
          -103 callsubr
          hintmask 01011100
          -102 callsubr
          hintmask 00111100
          -160 554 rmoveto
          -101 callsubr
          endchar
        </CharString>
        <CharString name="Adieresis">
          18 -21 24 -21 24 -21 187 63 298 71 77 136 hstemhm
          124.5 82.5 137.5 82.5 hintmask 00111111
          426 699 rmoveto
          -33 callsubr
          -138 hmoveto
          -33 callsubr
          hintmask 10011111
          306 -702 rmoveto
          hintmask 00111111
          -103 callsubr
          hintmask 01011111
          -102 callsubr
          hintmask 00111111
          -160 554 rmoveto
          -101 callsubr
          endchar
        </CharString>
        <CharString name="Agrave">
          18 -21 24 -21 24 -21 187 63 298 71 hstemhm
          36 478 hintmask 00111100
          374 718 rmoveto
          -76 callsubr
          hintmask 10011100
          80 -685 rmoveto
          hintmask 00111100
          -103 callsubr
          hintmask 01011100
          -102 callsubr
          hintmask 00111100
          -160 554 rmoveto
          -101 callsubr
          endchar
        </CharString>
        <CharString name="Amacron">
          18 -21 24 -21 24 -21 187 63 298 71 112 70 hstemhm
          36 478 hintmask 00111110
          441 804 rmoveto
          -30 callsubr
          hintmask 10011110
          -11 -737 rmoveto
          hintmask 00111110
          -103 callsubr
          hintmask 01011110
          -102 callsubr
          hintmask 00111110
          -160 554 rmoveto
          -101 callsubr
          endchar
        </CharString>
        <CharString name="Aogonek">
          -212 65 168 -21 24 -21 23 -21 185 63 298 71 hstemhm
          307 76 hintmask 10011110
          492 -212 rmoveto
          8 65 rlineto
          -85 8 -32 16 0 24 rrcurveto
          hintmask 10101110
          0 24 29 30 102 48 -57 207 -59 204 -65 208 rrcurveto
          -116 hlineto
          hintmask 11001110
          -65 -209 -59 -206 -57 -207 rrcurveto
          83 hlineto
          17 63 16 64 17 63 rrcurveto
          209 hlineto
          hintmask 10011110
          17 -62 17 -62 16 -61 -87 -48 -34 -38 0 -38 rrcurveto
          0 -49 50 -34 135 -10 rrcurveto
          -222 763 rmoveto
          -101 callsubr
          endchar
        </CharString>
        <CharString name="Aring">
          18 -21 24 -21 24 -21 187 63 298 71 56 212 hstemhm
          36 478 hintmask 00111110
          272 890 rmoveto
          -17 callsubr
          hintmask 10011110
          158 -893 rmoveto
          hintmask 00111110
          -103 callsubr
          hintmask 01011110
          -102 callsubr
          hintmask 00111110
          -160 554 rmoveto
          -101 callsubr
          endchar
        </CharString>
        <CharString name="Aringacute">
          18 -21 24 -21 24 -21 187 63 298 71 56 212 hstemhm
          36 478 hintmask 00111110
          169 966 rmoveto
          -25 callsubr
          103 -76 rmoveto
          18 callsubr
          hintmask 10011110
          158 -893 rmoveto
          hintmask 00111110
          -103 callsubr
          hintmask 01011110
          -102 callsubr
          hintmask 00111110
          -160 554 rmoveto
          -101 callsubr
          endchar
        </CharString>
        <CharString name="Atilde">
          18 -21 24 -21 24 -21 187 63 298 71 75 66 34 67 hstemhm
          36 478 hintmask 00111111
          350 697 rmoveto
          -18 callsubr
          hintmask 10011111
          80 -700 rmoveto
          hintmask 00111111
          -103 callsubr
          hintmask 01011111
          -102 callsubr
          hintmask 00111111
          -160 554 rmoveto
          -101 callsubr
          endchar
        </CharString>
        <CharString name="B">
          -8 66 -37 -21 281 61 219 67 -8 -20 hstemhm
          95 82 218 80 -62 82 hintmask 10110101
          495 177 rmoveto
          0 84 -53 46 -86 17 rrcurveto
          hintmask 01101110
          69 24 50 49 0 80 0 135 -148 35 -232 -27 rrcurveto
          -620 vlineto
          227 -30 174 48 -1 159 rrcurveto
          -318 380 rmoveto
          hintmask 10110110
          133 15 85 -27 0 -88 0 -83 -57 -37 -161 5 rrcurveto
          hintmask 10110101
          -278 vmoveto
          217 vlineto
          157 6 79 -21 0 -94 rrcurveto
          0 -101 -90 -27 -146 20 rrcurveto
          endchar
        </CharString>
        <CharString name="C">
          -3 71 480 80 hstem
          66 86 vstem
          479 68 rmoveto
          -100 callsubr
          endchar
        </CharString>
        <CharString name="CR.1.0">
          endchar
        </CharString>
        <CharString name="CR.10.0">
          endchar
        </CharString>
        <CharString name="CR.100.0">
          endchar
        </CharString>
        <CharString name="CR.100.1">
          endchar
        </CharString>
        <CharString name="CR.101.0">
          endchar
        </CharString>
        <CharString name="CR.101.1">
          endchar
        </CharString>
        <CharString name="CR.102.0">
          endchar
        </CharString>
        <CharString name="CR.102.1">
          endchar
        </CharString>
        <CharString name="CR.103.0">
          endchar
        </CharString>
        <CharString name="CR.103.1">
          endchar
        </CharString>
        <CharString name="CR.104.0">
          endchar
        </CharString>
        <CharString name="CR.104.1">
          endchar
        </CharString>
        <CharString name="CR.105.0">
          endchar
        </CharString>
        <CharString name="CR.105.1">
          endchar
        </CharString>
        <CharString name="CR.106.0">
          endchar
        </CharString>
        <CharString name="CR.106.1">
          endchar
        </CharString>
        <CharString name="CR.107.0">
          endchar
        </CharString>
        <CharString name="CR.107.1">
          endchar
        </CharString>
        <CharString name="CR.108.0">
          endchar
        </CharString>
        <CharString name="CR.108.1">
          endchar
        </CharString>
        <CharString name="CR.109.0">
          endchar
        </CharString>
        <CharString name="CR.109.1">
          endchar
        </CharString>
        <CharString name="CR.11.0">
          endchar
        </CharString>
        <CharString name="CR.110.0">
          endchar
        </CharString>
        <CharString name="CR.110.1">
          endchar
        </CharString>
        <CharString name="CR.111.0">
          endchar
        </CharString>
        <CharString name="CR.111.1">
          endchar
        </CharString>
        <CharString name="CR.112.0">
          endchar
        </CharString>
        <CharString name="CR.112.1">
          endchar
        </CharString>
        <CharString name="CR.113.0">
          endchar
        </CharString>
        <CharString name="CR.113.1">
          endchar
        </CharString>
        <CharString name="CR.114.0">
          endchar
        </CharString>
        <CharString name="CR.114.1">
          endchar
        </CharString>
        <CharString name="CR.115.0">
          endchar
        </CharString>
        <CharString name="CR.115.1">
          endchar
        </CharString>
        <CharString name="CR.116.0">
          endchar
        </CharString>
        <CharString name="CR.116.1">
          endchar
        </CharString>
        <CharString name="CR.117.0">
          endchar
        </CharString>
        <CharString name="CR.117.1">
          endchar
        </CharString>
        <CharString name="CR.118.0">
          endchar
        </CharString>
        <CharString name="CR.118.1">
          endchar
        </CharString>
        <CharString name="CR.119.0">
          endchar
        </CharString>
        <CharString name="CR.119.1">
          endchar
        </CharString>
        <CharString name="CR.12.0">
          endchar
        </CharString>
        <CharString name="CR.120.0">
          endchar
        </CharString>
        <CharString name="CR.120.1">
          endchar
        </CharString>
        <CharString name="CR.121.0">
          endchar
        </CharString>
        <CharString name="CR.121.1">
          endchar
        </CharString>
        <CharString name="CR.122.0">
          endchar
        </CharString>
        <CharString name="CR.122.1">
          endchar
        </CharString>
        <CharString name="CR.123.0">
          endchar
        </CharString>
        <CharString name="CR.123.1">
          endchar
        </CharString>
        <CharString name="CR.124.0">
          endchar
        </CharString>
        <CharString name="CR.124.1">
          endchar
        </CharString>
        <CharString name="CR.125.0">
          endchar
        </CharString>
        <CharString name="CR.125.1">
          endchar
        </CharString>
        <CharString name="CR.126.0">
          endchar
        </CharString>
        <CharString name="CR.126.1">
          endchar
        </CharString>
        <CharString name="CR.126.2">
          endchar
        </CharString>
        <CharString name="CR.127.0">
          endchar
        </CharString>
        <CharString name="CR.127.1">
          endchar
        </CharString>
        <CharString name="CR.127.2">
          endchar
        </CharString>
        <CharString name="CR.128.0">
          endchar
        </CharString>
        <CharString name="CR.128.1">
          endchar
        </CharString>
        <CharString name="CR.128.2">
          endchar
        </CharString>
        <CharString name="CR.129.0">
          endchar
        </CharString>
        <CharString name="CR.129.1">
          endchar
        </CharString>
        <CharString name="CR.129.2">
          endchar
        </CharString>
        <CharString name="CR.13.0">
          endchar
        </CharString>
        <CharString name="CR.130.0">
          endchar
        </CharString>
        <CharString name="CR.130.1">
          endchar
        </CharString>
        <CharString name="CR.130.2">
          endchar
        </CharString>
        <CharString name="CR.14.0">
          endchar
        </CharString>
        <CharString name="CR.15.0">
          endchar
        </CharString>
        <CharString name="CR.16.0">
          endchar
        </CharString>
        <CharString name="CR.17.0">
          endchar
        </CharString>
        <CharString name="CR.18.0">
          endchar
        </CharString>
        <CharString name="CR.19.0">
          endchar
        </CharString>
        <CharString name="CR.2.0">
          endchar
        </CharString>
        <CharString name="CR.20.0">
          endchar
        </CharString>
        <CharString name="CR.21.0">
          endchar
        </CharString>
        <CharString name="CR.22.0">
          endchar
        </CharString>
        <CharString name="CR.23.0">
          endchar
        </CharString>
        <CharString name="CR.24.0">
          endchar
        </CharString>
        <CharString name="CR.25.0">
          endchar
        </CharString>
        <CharString name="CR.26.0">
          endchar
        </CharString>
        <CharString name="CR.27.0">
          endchar
        </CharString>
        <CharString name="CR.28.0">
          endchar
        </CharString>
        <CharString name="CR.29.0">
          endchar
        </CharString>
        <CharString name="CR.3.0">
          endchar
        </CharString>
        <CharString name="CR.30.0">
          endchar
        </CharString>
        <CharString name="CR.31.0">
          endchar
        </CharString>
        <CharString name="CR.32.0">
          endchar
        </CharString>
        <CharString name="CR.33.0">
          endchar
        </CharString>
        <CharString name="CR.34.0">
          endchar
        </CharString>
        <CharString name="CR.35.0">
          endchar
        </CharString>
        <CharString name="CR.36.0">
          endchar
        </CharString>
        <CharString name="CR.37.0">
          endchar
        </CharString>
        <CharString name="CR.38.0">
          endchar
        </CharString>
        <CharString name="CR.39.0">
          endchar
        </CharString>
        <CharString name="CR.4.0">
          endchar
        </CharString>
        <CharString name="CR.40.0">
          endchar
        </CharString>
        <CharString name="CR.41.0">
          endchar
        </CharString>
        <CharString name="CR.42.0">
          endchar
        </CharString>
        <CharString name="CR.43.0">
          endchar
        </CharString>
        <CharString name="CR.44.0">
          endchar
        </CharString>
        <CharString name="CR.45.0">
          endchar
        </CharString>
        <CharString name="CR.46.0">
          endchar
        </CharString>
        <CharString name="CR.47.0">
          endchar
        </CharString>
        <CharString name="CR.48.0">
          endchar
        </CharString>
        <CharString name="CR.49.0">
          endchar
        </CharString>
        <CharString name="CR.5.0">
          endchar
        </CharString>
        <CharString name="CR.50.0">
          endchar
        </CharString>
        <CharString name="CR.51.0">
          endchar
        </CharString>
        <CharString name="CR.52.0">
          endchar
        </CharString>
        <CharString name="CR.53.0">
          endchar
        </CharString>
        <CharString name="CR.54.0">
          endchar
        </CharString>
        <CharString name="CR.55.0">
          endchar
        </CharString>
        <CharString name="CR.56.0">
          endchar
        </CharString>
        <CharString name="CR.57.0">
          endchar
        </CharString>
        <CharString name="CR.58.0">
          endchar
        </CharString>
        <CharString name="CR.59.0">
          endchar
        </CharString>
        <CharString name="CR.6.0">
          endchar
        </CharString>
        <CharString name="CR.60.0">
          endchar
        </CharString>
        <CharString name="CR.61.0">
          endchar
        </CharString>
        <CharString name="CR.62.0">
          endchar
        </CharString>
        <CharString name="CR.63.0">
          endchar
        </CharString>
        <CharString name="CR.64.0">
          endchar
        </CharString>
        <CharString name="CR.65.0">
          endchar
        </CharString>
        <CharString name="CR.66.0">
          endchar
        </CharString>
        <CharString name="CR.67.0">
          endchar
        </CharString>
        <CharString name="CR.68.0">
          endchar
        </CharString>
        <CharString name="CR.69.0">
          endchar
        </CharString>
        <CharString name="CR.7.0">
          endchar
        </CharString>
        <CharString name="CR.70.0">
          endchar
        </CharString>
        <CharString name="CR.71.0">
          endchar
        </CharString>
        <CharString name="CR.72.0">
          endchar
        </CharString>
        <CharString name="CR.73.0">
          endchar
        </CharString>
        <CharString name="CR.74.0">
          endchar
        </CharString>
        <CharString name="CR.75.0">
          endchar
        </CharString>
        <CharString name="CR.75.1">
          endchar
        </CharString>
        <CharString name="CR.76.0">
          endchar
        </CharString>
        <CharString name="CR.76.1">
          endchar
        </CharString>
        <CharString name="CR.77.0">
          endchar
        </CharString>
        <CharString name="CR.77.1">
          endchar
        </CharString>
        <CharString name="CR.78.0">
          endchar
        </CharString>
        <CharString name="CR.78.1">
          endchar
        </CharString>
        <CharString name="CR.79.0">
          endchar
        </CharString>
        <CharString name="CR.79.1">
          endchar
        </CharString>
        <CharString name="CR.8.0">
          endchar
        </CharString>
        <CharString name="CR.80.0">
          endchar
        </CharString>
        <CharString name="CR.80.1">
          endchar
        </CharString>
        <CharString name="CR.81.0">
          endchar
        </CharString>
        <CharString name="CR.81.1">
          endchar
        </CharString>
        <CharString name="CR.82.0">
          endchar
        </CharString>
        <CharString name="CR.82.1">
          endchar
        </CharString>
        <CharString name="CR.83.0">
          endchar
        </CharString>
        <CharString name="CR.83.1">
          endchar
        </CharString>
        <CharString name="CR.84.0">
          endchar
        </CharString>
        <CharString name="CR.84.1">
          endchar
        </CharString>
        <CharString name="CR.85.0">
          endchar
        </CharString>
        <CharString name="CR.85.1">
          endchar
        </CharString>
        <CharString name="CR.86.0">
          endchar
        </CharString>
        <CharString name="CR.86.1">
          endchar
        </CharString>
        <CharString name="CR.87.0">
          endchar
        </CharString>
        <CharString name="CR.87.1">
          endchar
        </CharString>
        <CharString name="CR.88.0">
          endchar
        </CharString>
        <CharString name="CR.88.1">
          endchar
        </CharString>
        <CharString name="CR.89.0">
          endchar
        </CharString>
        <CharString name="CR.89.1">
          endchar
        </CharString>
        <CharString name="CR.9.0">
          endchar
        </CharString>
        <CharString name="CR.90.0">
          endchar
        </CharString>
        <CharString name="CR.90.1">
          endchar
        </CharString>
        <CharString name="CR.91.0">
          endchar
        </CharString>
        <CharString name="CR.91.1">
          endchar
        </CharString>
        <CharString name="CR.92.0">
          endchar
        </CharString>
        <CharString name="CR.92.1">
          endchar
        </CharString>
        <CharString name="CR.93.0">
          endchar
        </CharString>
        <CharString name="CR.93.1">
          endchar
        </CharString>
        <CharString name="CR.94.0">
          endchar
        </CharString>
        <CharString name="CR.94.1">
          endchar
        </CharString>
        <CharString name="CR.95.0">
          endchar
        </CharString>
        <CharString name="CR.95.1">
          endchar
        </CharString>
        <CharString name="CR.96.0">
          endchar
        </CharString>
        <CharString name="CR.96.1">
          endchar
        </CharString>
        <CharString name="CR.97.0">
          endchar
        </CharString>
        <CharString name="CR.97.1">
          endchar
        </CharString>
        <CharString name="CR.98.0">
          endchar
        </CharString>
        <CharString name="CR.98.1">
          endchar
        </CharString>
        <CharString name="CR.99.0">
          endchar
        </CharString>
        <CharString name="CR.99.1">
          endchar
        </CharString>
        <CharString name="Cacute">
          18 -21 0 71 480 80 hstemhm
          66 86 hintmask 10110000
          207 724 rmoveto
          -25 callsubr
          hintmask 01110000
          272 -656 rmoveto
          -100 callsubr
          endchar
        </CharString>
        <CharString name="Ccaron">
          18 -21 0 71 480 80 hstemhm
          66 86 hintmask 10110000
          320 685 rmoveto
          9 callsubr
          hintmask 01110000
          163 -617 rmoveto
          -100 callsubr
          endchar
        </CharString>
        <CharString name="Ccedilla">
          7 -21 11 71 -41 -21 542 80 hstemhm
          66 86 167 72 hintmask 01011100
          391 -112 rmoveto
          hintmask 00111100
          0 36 -31 40 -72 42 rrcurveto
          hintmask 01011100
          50 -11 61 -3 73 5 rrcurveto
          7 71 rlineto
          -259 -11 -68 87 0 167 0 142 50 92 271 3 rrcurveto
          -5 80 rlineto
          -304 -10 -98 -148 0 -170 rrcurveto
          hintmask 10011100
          0 -129 43 -107 132 -45 rrcurveto
          -16 -33 rlineto
          66 -39 28 -29 0 -22 0 -21 -34 -15 -83 -12 rrcurveto
          6 -64 rlineto
          122 15 61 39 0 50 rrcurveto
          endchar
        </CharString>
        <CharString name="Cdotaccent">
          18 -21 0 71 480 80 71 136 hstemhm
          66 86 120.5 84 hintmask 10111100
          354 699 rmoveto
          8 callsubr
          hintmask 01111100
          208 -631 rmoveto
          -100 callsubr
          endchar
        </CharString>
        <CharString name="D">
          -9 70 -41 -21 559 72 -9 -20 hstemhm
          85 82 250 84 hintmask 10101100
          501 322 rmoveto
          hintmask 01011100
          -99 callsubr
          -84 -13 rmoveto
          -98 callsubr
          endchar
        </CharString>
        <CharString name="Dcaron">
          -9 70 -41 -21 559 72 -9 -20 hstemhm
          85 82 250 84 hintmask 10101100
          274 691 rmoveto
          9 callsubr
          231 -369 rmoveto
          hintmask 01011100
          -99 callsubr
          -84 -13 rmoveto
          -98 callsubr
          endchar
        </CharString>
        <CharString name="Dcroat">
          -9 70 -41 -21 286 59 214 72 -9 -20 hstemhm
          85 82 250 84 hintmask 10110110
          501 322 rmoveto
          hintmask 01101110
          -14 callsubr
          -334 -256 rmoveto
          -13 callsubr
          endchar
        </CharString>
        <CharString name="E">
          0 71 211 63 204 71 hstem
          105 83 vstem
          486 71 rmoveto
          -97 callsubr
          endchar
        </CharString>
        <CharString name="Eacute">
          0 71 211 63 204 71 hstem
          105 83 vstem
          189 724 rmoveto
          -25 callsubr
          297 -653 rmoveto
          -97 callsubr
          endchar
        </CharString>
        <CharString name="Ebreve">
          0 71 211 63 204 71 75 66 hstem
          105 83 vstem
          293 695 rmoveto
          7 callsubr
          193 -624 rmoveto
          -97 callsubr
          endchar
        </CharString>
        <CharString name="Ecaron">
          0 71 211 63 204 71 hstem
          105 83 vstem
          302 685 rmoveto
          9 callsubr
          188 -614 rmoveto
          -97 callsubr
          endchar
        </CharString>
        <CharString name="Ecircumflex">
          0 71 211 63 204 71 hstem
          105 83 vstem
          421 690 rmoveto
          -19 callsubr
          198 -733 rmoveto
          -97 callsubr
          endchar
        </CharString>
        <CharString name="Edieresis">
          0 71 211 63 204 71 79 136 hstemhm
          105 83 -43.5 82.5 137.5 82.5 hintmask 11111010
          446 699 rmoveto
          -33 callsubr
          hintmask 11110110
          -138 hmoveto
          -33 callsubr
          342 -628 rmoveto
          hintmask 11111010
          -97 callsubr
          endchar
        </CharString>
        <CharString name="Edotaccent">
          0 71 211 63 204 71 79 136 hstem
          105 83 66.5 84 vstem
          336 699 rmoveto
          8 callsubr
          233 -628 rmoveto
          -97 callsubr
          endchar
        </CharString>
        <CharString name="Egrave">
          0 71 211 63 204 71 hstem
          105 83 vstem
          395 718 rmoveto
          -76 callsubr
          115 -611 rmoveto
          -97 callsubr
          endchar
        </CharString>
        <CharString name="Emacron">
          0 71 211 63 204 71 114 70 hstem
          105 83 vstem
          461 804 rmoveto
          -30 callsubr
          25 -663 rmoveto
          -97 callsubr
          endchar
        </CharString>
        <CharString name="Eogonek">
          -216 66 150 71 211 63 204 71 hstem
          105 83 84 75 vstem
          464 -150 rmoveto
          -85 8 -32 16 0 24 0 24 29 30 102 48 rrcurveto
          8 71 -298 0 0 211 253 0 0 63 -253 0 0 204 293 0 0 71 -376 0 0 -620 284 0 rlineto
          -85 -47 -32 -38 0 -37 0 -49 49 -34 136 -11 rrcurveto
          endchar
        </CharString>
        <CharString name="Eth">
          -9 70 -41 -21 286 59 214 72 -9 -20 hstemhm
          85 82 250 84 hintmask 10110110
          501 322 rmoveto
          hintmask 01101110
          -14 callsubr
          -334 -256 rmoveto
          -13 callsubr
          endchar
        </CharString>
        <CharString name="Euro">
          0 -21 215 61 -53 55 96 56 233 -20 hstemhm
          123 76 hintmask 10111100
          485 47 rmoveto
          -170 25 -74 48 -27 82 rrcurveto
          211 0 3 55 -226 0 rlineto
          -2 17 -1 18 0 20 0 14 0 14 1 13 rrcurveto
          229 0 3 56 -223 0 rlineto
          22 85 68 43 179 27 rrcurveto
          -13 78 rlineto
          -213 -40 -88 -78 -29 -110 rrcurveto
          -74 -61 64 hlineto
          hintmask 11011100
          -1 -15 -1 -15 0 -15 0 -18 1 -18 2 -17 rrcurveto
          -64 -61 75 hlineto
          32 -117 96 -74 209 -24 rrcurveto
          endchar
        </CharString>
        <CharString name="F">
          21 -21 270 65 214 71 hstem
          111 84 vstem
          451 270 rmoveto
          65 -256 214 297 71 -381 -620 84 270 vlineto
          endchar
        </CharString>
        <CharString name="G">
          -9 68 489 80 hstem
          54 85 259 78 vstem
          477 7 rmoveto
          -96 callsubr
          endchar
        </CharString>
        <CharString name="Gbreve">
          -9 68 489 80 67 66 hstem
          54 85 259 78 vstem
          291 695 rmoveto
          7 callsubr
          186 -688 rmoveto
          -96 callsubr
          endchar
        </CharString>
        <CharString name="Gcommaaccent">
          -9 68 489 80 hstem
          54 85 118 82 59 78 vstem
          477 7 rmoveto
          -96 callsubr
          -244 -280 rmoveto
          13 callsubr
          endchar
        </CharString>
        <CharString name="Gdotaccent">
          -9 68 489 80 71 136 hstem
          54 85 112.5 84 62.5 78 vstem
          333 699 rmoveto
          8 callsubr
          227 -692 rmoveto
          -96 callsubr
          endchar
        </CharString>
        <CharString name="H">
          21 -21 282 64 274 -20 hstem
          79 85 222 85 vstem
          386 hmoveto
          85 620 -85 -274 -222 274 -85 -620 85 282 222 hlineto
          endchar
        </CharString>
        <CharString name="Hbar">
          21 -21 268 64 112 58 -56 54 -54 174 hstemhm
          79 85 222 85 hintmask 11010110
          386 332 rmoveto
          -222 114 222 hlineto
          -446 vmoveto
          85 hlineto
          hintmask 11100110
          444 70 58 -70 vlineto
          hintmask 11001110
          118 -85 vlineto
          hintmask 11010110
          -120 -222 vlineto
          hintmask 11001110
          120 -85 vlineto
          hintmask 11100110
          -118 -70 -58 70 -444 85 268 222 vlineto
          endchar
        </CharString>
        <CharString name="I">
          0 66 488 66 hstem
          233 83 vstem
          316 554 rmoveto
          -95 callsubr
          endchar
        </CharString>
        <CharString name="Iacute">
          0 66 488 66 hstem
          233 83 vstem
          172 724 rmoveto
          -25 callsubr
          144 -170 rmoveto
          -95 callsubr
          endchar
        </CharString>
        <CharString name="Ibreve">
          0 66 488 66 75 66 hstem
          233 83 vstem
          276 695 rmoveto
          7 callsubr
          40 -141 rmoveto
          -95 callsubr
          endchar
        </CharString>
        <CharString name="Icircumflex">
          0 66 488 66 hstem
          233 83 vstem
          404 690 rmoveto
          -19 callsubr
          45 -250 rmoveto
          -95 callsubr
          endchar
        </CharString>
        <CharString name="Idieresis">
          0 66 488 66 79 136 hstem
          127.5 82.5 23 83 31.5 82.5 vstem
          429 699 rmoveto
          -33 callsubr
          -138 hmoveto
          -33 callsubr
          189 -145 rmoveto
          -95 callsubr
          endchar
        </CharString>
        <CharString name="Idotaccent">
          0 66 488 66 79 136 hstemhm
          233 83 -78.5 84 hintmask 11101000
          319 699 rmoveto
          8 callsubr
          hintmask 11110000
          80 -145 rmoveto
          -95 callsubr
          endchar
        </CharString>
        <CharString name="Igrave">
          0 66 488 66 hstem
          233 83 vstem
          378 718 rmoveto
          -76 callsubr
          -38 -128 rmoveto
          -95 callsubr
          endchar
        </CharString>
        <CharString name="Imacron">
          0 66 488 66 114 70 hstem
          233 83 vstem
          444 804 rmoveto
          -30 callsubr
          -128 -180 rmoveto
          -95 callsubr
          endchar
        </CharString>
        <CharString name="Iogonek">
          -214 65 149 66 488 66 hstemhm
          160 76 -3 83 hintmask 11101000
          353 -149 rmoveto
          hintmask 11110000
          -85 9 -32 16 0 26 0 24 18 27 58 47 rrcurveto
          156 0 6 66 rlineto
          hintmask 11101000
          -158 488 154 66 -390 -66 153 -488 hlineto
          hintmask 11110000
          -153 -66 162 hlineto
          -58 -45 -24 -36 0 -35 0 -52 50 -35 135 -11 rrcurveto
          endchar
        </CharString>
        <CharString name="J">
          -10 74 489 67 hstem
          340 83 vstem
          126 620 rmoveto
          -67 214 -352 vlineto
          0 -119 -32 -27 -220 9 rrcurveto
          -74 vlineto
          254 -7 81 67 0 151 rrcurveto
          419 vlineto
          endchar
        </CharString>
        <CharString name="K">
          15 -21 27 -21 26 -21 274 68 273 -20 hstemhm
          91 83 hintmask 10011100
          428 -6 rmoveto
          hintmask 00111100
          -94 callsubr
          hintmask 01011100
          -620 83 279 64 vlineto
          endchar
        </CharString>
        <CharString name="Kcommaaccent">
          15 -21 27 -21 26 -21 274 68 273 -20 hstemhm
          91 83 66 82 hintmask 10011110
          428 -6 rmoveto
          hintmask 00111110
          -94 callsubr
          hintmask 01011110
          -620 83 279 64 vlineto
          -22 -549 rmoveto
          13 callsubr
          endchar
        </CharString>
        <CharString name="L">
          0 71 549 -20 hstem
          113 84 vstem
          490 hmoveto
          -93 callsubr
          endchar
        </CharString>
        <CharString name="Lacute">
          0 71 549 -20 hstem
          113 84 vstem
          197 724 rmoveto
          -25 callsubr
          293 -724 rmoveto
          -93 callsubr
          endchar
        </CharString>
        <CharString name="Lcaron">
          0 71 549 -20 101 -20 hstem
          113 84 198 78 vstem
          368 463 rmoveto
          12 callsubr
          122 -463 rmoveto
          -93 callsubr
          endchar
        </CharString>
        <CharString name="Lcommaaccent">
          0 71 549 -20 hstem
          113 84 71 82 vstem
          490 hmoveto
          -93 callsubr
          131 -264 rmoveto
          13 callsubr
          endchar
        </CharString>
        <CharString name="Ldot">
          0 71 195 108 246 -20 hstem
          113 84 187 92 vstem
          490 hmoveto
          -93 callsubr
          360 266 rmoveto
          6 108 -92 0 -6 -108 rlineto
          endchar
        </CharString>
        <CharString name="Lslash">
          0 71 549 -20 hstem
          113 84 vstem
          490 hmoveto
          8 71 -301 0 0 266 151 78 -14 57 -137 -71 0 219 -84 0 0 -262 -82 -42 14 -57 68 35 0 -294 rlineto
          endchar
        </CharString>
        <CharString name="M">
          21 -21 108 100 273 139 hstem
          66 74 266 77 vstem
          390 620 rmoveto
          0 0 -98 -360 -14 -52 rrcurveto
          -4 hlineto
          -14 52 -100 360 0 0 rrcurveto
          -94 -620 76 hlineto
          -4 481 4 0 104 -373 56 0 102 373 4 0 -4 -481 79 0 0 620 rlineto
          endchar
        </CharString>
        <CharString name="N">
          21 -21 0 148 333 139 0 -20 hstemhm
          80 75.5 239 76.5 hintmask 10011100
          392 hmoveto
          79 620 -78 hlineto
          hintmask 01011100
          -92 callsubr
          hintmask 10101100
          -91 callsubr
          endchar
        </CharString>
        <CharString name="NUL">
          0 endchar
        </CharString>
        <CharString name="Nacute">
          21 -21 0 148 333 139 0 -20 hstemhm
          80 75.5 239 76.5 hintmask 10011100
          169 724 rmoveto
          -25 callsubr
          223 -724 rmoveto
          79 620 -78 hlineto
          hintmask 01011100
          -92 callsubr
          hintmask 10101100
          -91 callsubr
          endchar
        </CharString>
        <CharString name="Ncaron">
          21 -21 0 148 333 139 0 -20 hstemhm
          80 75.5 239 76.5 hintmask 10011100
          282 685 rmoveto
          9 callsubr
          114 -685 rmoveto
          79 620 -78 hlineto
          hintmask 01011100
          -92 callsubr
          hintmask 10101100
          -91 callsubr
          endchar
        </CharString>
        <CharString name="Ncommaaccent">
          21 -21 0 148 333 139 0 -20 hstemhm
          80 75.5 83.5 82 73.5 76.5 hintmask 10011110
          392 hmoveto
          79 620 -78 hlineto
          hintmask 01011110
          -92 callsubr
          hintmask 10101110
          -91 callsubr
          56 -745 rmoveto
          13 callsubr
          endchar
        </CharString>
        <CharString name="Ntilde">
          21 -21 0 148 333 139 0 -20 97 66 34 67 hstemhm
          80 75.5 239 76.5 hintmask 10011111
          351 697 rmoveto
          -18 callsubr
          41 -697 rmoveto
          79 620 -78 hlineto
          hintmask 01011111
          -92 callsubr
          hintmask 10101111
          -91 callsubr
          endchar
        </CharString>
        <CharString name="O">
          -15 69 512 69 hstem
          46 85 288 85 vstem
          264 -15 rmoveto
          -90 callsubr
          8 581 rmoveto
          -89 callsubr
          endchar
        </CharString>
        <CharString name="OE">
          0 71 211 63 204 71 hstem
          37 83 150 72 vstem
          120 312 rmoveto
          0 166 48 69 102 1 rrcurveto
          -477 vlineto
          -105 -45 70 171 hvcurveto
          390 -241 rmoveto
          -168 211 137 63 -137 204 164 71 -212 hlineto
          -173 -84 -116 -206 -206 81 -92 174 hvcurveto
          212 hlineto
          endchar
        </CharString>
        <CharString name="Oacute">
          -15 69 512 69 hstem
          46 85 288 85 vstem
          173 731 rmoveto
          -25 callsubr
          91 -746 rmoveto
          -90 callsubr
          8 581 rmoveto
          -89 callsubr
          endchar
        </CharString>
        <CharString name="Obreve">
          -15 69 512 69 67 66 hstem
          46 85 288 85 vstem
          277 702 rmoveto
          7 callsubr
          -13 -717 rmoveto
          -90 callsubr
          8 581 rmoveto
          -89 callsubr
          endchar
        </CharString>
        <CharString name="Ocircumflex">
          -15 69 512 69 hstem
          46 85 288 85 vstem
          405 697 rmoveto
          -19 callsubr
          -8 -826 rmoveto
          -90 callsubr
          8 581 rmoveto
          -89 callsubr
          endchar
        </CharString>
        <CharString name="Odieresis">
          -15 69 512 69 71 136 hstemhm
          46 85 -2.5 82.5 137.5 82.5 -12 85 hintmask 11101100
          430 706 rmoveto
          -33 callsubr
          -138 hmoveto
          -33 callsubr
          hintmask 11110010
          136 -721 rmoveto
          147 0 94 121 -1 218 rrcurveto
          200 -79 111 -139 -147 -93 -120 -219 vhcurveto
          -199 80 -112 138 vhcurveto
          8 581 rmoveto
          -89 callsubr
          endchar
        </CharString>
        <CharString name="Ograve">
          -15 69 512 69 hstem
          46 85 288 85 vstem
          379 725 rmoveto
          -76 callsubr
          -91 -704 rmoveto
          -90 callsubr
          8 581 rmoveto
          -89 callsubr
          endchar
        </CharString>
        <CharString name="Ohungarumlaut">
          -15 69 512 69 hstem
          46 85 288 85 vstem
          130 723 rmoveto
          16 callsubr
          208 -2 rmoveto
          17 callsubr
          -74 -736 rmoveto
          -90 callsubr
          8 581 rmoveto
          -89 callsubr
          endchar
        </CharString>
        <CharString name="Omacron">
          -15 69 512 69 106 70 hstem
          46 85 288 85 vstem
          445 811 rmoveto
          -30 callsubr
          -181 -756 rmoveto
          -90 callsubr
          8 581 rmoveto
          -89 callsubr
          endchar
        </CharString>
        <CharString name="Omega">
          0 66 493 75 hstem
          71 77 253 80 vstem
          229 5 rmoveto
          -55 146 -26 121 0 92 rrcurveto
          123 45 72 82 82 44 -72 -125 vhcurveto
          0 -92 -24 -121 -55 -144 rrcurveto
          2 -5 181 0 0 66 -99 0 rlineto
          51 118 24 105 0 89 rrcurveto
          153 -71 103 -131 -133 -75 -104 -154 vhcurveto
          0 -88 23 -105 50 -117 rrcurveto
          -98 -66 181 hlineto
          endchar
        </CharString>
        <CharString name="Oslash">
          -15 69 -41 -21 574 69 -7 -20 hstemhm
          46 84 290 84 hintmask 10101100
          130 314 rmoveto
          -11 callsubr
          148 -260 rmoveto
          -10 callsubr
          -14 -69 rmoveto
          -9 callsubr
          hintmask 10011100
          -8 callsubr
          hintmask 01101100
          -7 callsubr
          hintmask 10101100
          -6 callsubr
          endchar
        </CharString>
        <CharString name="Oslashacute">
          -15 69 -41 -21 574 69 -7 -20 hstemhm
          46 84 290 84 hintmask 10101100
          170 732 rmoveto
          -25 callsubr
          -40 -418 rmoveto
          -11 callsubr
          148 -260 rmoveto
          -10 callsubr
          -14 -69 rmoveto
          -9 callsubr
          hintmask 10011100
          -8 callsubr
          hintmask 01101100
          -7 callsubr
          hintmask 10101100
          -6 callsubr
          endchar
        </CharString>
        <CharString name="Otilde">
          -15 69 512 69 69 66 34 67 hstem
          46 85 288 85 vstem
          355 704 rmoveto
          -12 callsubr
          -91 -719 rmoveto
          -90 callsubr
          8 581 rmoveto
          -89 callsubr
          endchar
        </CharString>
        <CharString name="P">
          21 -21 200 74 284 71 -10 -20 hstemhm
          98 83 238 82 hintmask 11101100
          181 hmoveto
          200 vlineto
          192 14 128 68 0 148 rrcurveto
          hintmask 11011100
          0 152 -135 77 -268 -40 rrcurveto
          -619 vlineto
          hintmask 11101100
          321 414 rmoveto
          0 -112 -85 -39 -153 11 rrcurveto
          280 vlineto
          161 21 77 -55 0 -106 rrcurveto
          endchar
        </CharString>
        <CharString name="Q">
          8 -21 25 -21 0 63 512 69 hstemhm
          46 85 288 85 hintmask 01011100
          447 -135 rmoveto
          24 69 -152 56 0 1 rlineto
          115 28 71 116 -1 189 rrcurveto
          200 -79 111 -139 -147 -93 -120 -219 vhcurveto
          hintmask 10011100
          0 -185 69 -110 120 -14 rrcurveto
          -14 -42 rlineto
          51 621 rmoveto
          97 50 -90 -170 hvcurveto
          hintmask 00111100
          -166 -48 -86 -93 -98 -49 90 170 166 47 86 94 vhcurveto
          endchar
        </CharString>
        <CharString name="R">
          11 -21 31 -21 24 -21 225 61 271 70 -11 -20 hstemhm
          92 83 216 82 hintmask 10011011
          428 -10 rmoveto
          hintmask 00110111
          -88 callsubr
          hintmask 01011011
          -87 callsubr
          -127 325 rmoveto
          -86 callsubr
          endchar
        </CharString>
        <CharString name="R_p">
          -151 -21 29 -21 152 67 -43 -21 27 -21 24 -21 27 -21 224.5 57.5 148 65 -10 -20 90 67 -9 -20 hstemhm
          38 67 87 67 47 66 91 65 hintmask 0100100101011111
          210 -3 rmoveto
          hintmask 0100001101011111
          67 9 -71 266 rlineto
          33 40 20 60 0 81 0 126 -54 76 -167 -36 rrcurveto
          hintmask 0100010101101111
          -619 67 229 vlineto
          46 3 rlineto
          -46 329 rmoveto
          62 13 25 -43 0 -94 0 -58 -12 -54 -20 -36 rrcurveto
          -55 -2 rlineto
          hintmask 0110000110011111
          300 -232 rmoveto
          -12 0 -11 2 -10 7 0 160 -1 105 -1 84 14 14 15 9 15 0 rrcurveto
          34 15 -60 -131 hvcurveto
          -134 -15 -56 -43 vhcurveto
          -33 -219 rmoveto
          hintmask 0101000101011111
          155 vlineto
          hintmask 0110000110011111
          8 -2 8 -1 8 0 rrcurveto
          84 48 86 197 143 -26 87 -60 hvcurveto
          -31 0 -27 -21 -18 -23 rrcurveto
          hintmask 1010000101011111
          -2 34 -62 -5 rlineto
          3 -102 1 -152 0 -234 rrcurveto
          -170 vlineto
          endchar
        </CharString>
        <CharString name="Racute">
          11 -21 31 -21 24 -21 225 61 271 70 -11 -20 hstemhm
          92 83 216 82 hintmask 00111011
          159 732 rmoveto
          -25 callsubr
          hintmask 10011011
          269 -742 rmoveto
          hintmask 00110111
          -88 callsubr
          hintmask 01011011
          -87 callsubr
          -127 325 rmoveto
          -86 callsubr
          endchar
        </CharString>
        <CharString name="Rcaron">
          11 -21 31 -21 24 -21 225 61 271 70 -11 -20 hstemhm
          92 83 216 82 hintmask 00111011
          272 693 rmoveto
          9 callsubr
          hintmask 10011011
          160 -703 rmoveto
          hintmask 00110111
          -88 callsubr
          hintmask 01011011
          -87 callsubr
          -127 325 rmoveto
          -86 callsubr
          endchar
        </CharString>
        <CharString name="Rcommaaccent">
          11 -21 31 -21 24 -21 225 61 271 70 -11 -20 hstemhm
          92 83 89 82 45 82 hintmask 1001101110000000
          428 -10 rmoveto
          hintmask 0011011110000000
          -88 callsubr
          hintmask 0101101110000000
          -87 callsubr
          -127 325 rmoveto
          -86 callsubr
          65 -561 rmoveto
          13 callsubr
          endchar
        </CharString>
        <CharString name="S">
          -6 73 484 74 hstem
          85 85 224 85 vstem
          86 71 rmoveto
          -85 callsubr
          endchar
        </CharString>
        <CharString name="Sacute">
          -6 73 484 74 hstem
          85 85 224 85 vstem
          188 728 rmoveto
          -25 callsubr
          -102 -657 rmoveto
          -85 callsubr
          endchar
        </CharString>
        <CharString name="Scaron">
          -6 73 484 74 hstem
          85 85 224 85 vstem
          301 689 rmoveto
          9 callsubr
          -211 -618 rmoveto
          -85 callsubr
          endchar
        </CharString>
        <CharString name="Scedilla">
          -6 73 -46 -21 551 74 hstemhm
          85 85 118 72 34 85 hintmask 10111100
          177 -225 rmoveto
          122 15 61 39 0 50 rrcurveto
          hintmask 01111100
          0 37 -32 41 -76 43 163 23 64 77 0 74 0 148 -309 43 0 107 0 51 57 40 217 -15 rrcurveto
          -5 77 rlineto
          -255 14 -99 -92 0 -88 rrcurveto
          hintmask 10111100
          0 -145 309 -38 0 -114 0 -59 -82 -51 -226 19 rrcurveto
          -1 -77 rlineto
          43 -2 39 0 36 2 rrcurveto
          -9 -17 rlineto
          66 -39 28 -29 0 -22 0 -21 -34 -15 -83 -12 rrcurveto
          endchar
        </CharString>
        <CharString name="Scommaaccent">
          -6 73 484 74 hstem
          85 85 68 82 74 85 vstem
          86 71 rmoveto
          -85 callsubr
          128 -346 rmoveto
          13 callsubr
          endchar
        </CharString>
        <CharString name="T">
          21 -21 549 71 hstem
          234 84 vstem
          318 549 rmoveto
          -84 callsubr
          endchar
        </CharString>
        <CharString name="Tcaron">
          21 -21 549 71 hstem
          234 84 vstem
          280 685 rmoveto
          9 callsubr
          42 -136 rmoveto
          -84 callsubr
          endchar
        </CharString>
        <CharString name="Tcommaaccent">
          21 -21 549 71 hstemhm
          234 84 -80 82 hintmask 11100000
          318 549 rmoveto
          -84 callsubr
          -104 -264 rmoveto
          hintmask 11010000
          41 -13 rlineto
          55 64 19 79 -9 67 rrcurveto
          hintmask 11100000
          -5 0 -90 -5 -5 0 22 -58 5 -64 -33 -70 rrcurveto
          endchar
        </CharString>
        <CharString name="Thorn">
          21 -21 0 177 -73 73 277 68 -68 166 hstemhm
          99 83 240 82 hintmask 10110110
          182 hmoveto
          104 vlineto
          192 13 130 68 0 145 0 135 -112 73 -210 -16 rrcurveto
          hintmask 10101110
          98 -83 -620 vlineto
          hintmask 01010110
          323 314 rmoveto
          0 -108 -86 -38 -154 9 rrcurveto
          273 vlineto
          158 19 82 -53 0 -102 rrcurveto
          endchar
        </CharString>
        <CharString name="U">
          -15 72 563 -20 hstem
          75 84 232 83 vstem
          270 -15 rmoveto
          -83 callsubr
          endchar
        </CharString>
        <CharString name="Uacute">
          -15 72 563 -20 hstem
          75 84 232 83 vstem
          170 724 rmoveto
          -25 callsubr
          100 -739 rmoveto
          -83 callsubr
          endchar
        </CharString>
        <CharString name="Ubreve">
          -15 72 563 -20 95 66 hstem
          75 84 232 83 vstem
          274 695 rmoveto
          7 callsubr
          -4 -710 rmoveto
          -83 callsubr
          endchar
        </CharString>
        <CharString name="Ucircumflex">
          -15 72 563 -20 hstem
          75 84 232 83 vstem
          402 690 rmoveto
          -19 callsubr
          1 -819 rmoveto
          -83 callsubr
          endchar
        </CharString>
        <CharString name="Udieresis">
          -15 72 563 -20 99 136 hstemhm
          75 84 -33.5 82.5 137.5 82.5 -37 83 hintmask 11101100
          427 699 rmoveto
          -33 callsubr
          -138 hmoveto
          -33 callsubr
          hintmask 11110010
          145 -714 rmoveto
          -83 callsubr
          endchar
        </CharString>
        <CharString name="Ugrave">
          -15 72 563 -20 hstem
          75 84 232 83 vstem
          376 718 rmoveto
          -76 callsubr
          -82 -697 rmoveto
          -83 callsubr
          endchar
        </CharString>
        <CharString name="Uhungarumlaut">
          -15 72 563 -20 hstem
          75 84 232 83 vstem
          126 716 rmoveto
          16 callsubr
          208 -2 rmoveto
          17 callsubr
          -64 -729 rmoveto
          -83 callsubr
          endchar
        </CharString>
        <CharString name="Umacron">
          -15 72 563 -20 134 70 hstem
          75 84 232 83 vstem
          442 804 rmoveto
          -30 callsubr
          -172 -749 rmoveto
          -83 callsubr
          endchar
        </CharString>
        <CharString name="Uogonek">
          -216 66 134 73 563 -20 hstem
          75 84 22 75 135 83 vstem
          366 -216 rmoveto
          7 66 rlineto
          -85 8 -32 16 0 26 0 27 32 26 86 56 71 46 29 55 0 94 rrcurveto
          416 -83 -429 vlineto
          -94 -37 -40 -76 vhcurveto
          -74 -45 47 102 hvcurveto
          414 -84 -420 vlineto
          0 -134 68 -76 122 -6 rrcurveto
          -63 -39 -21 -32 0 -35 0 -49 49 -34 136 -11 rrcurveto
          endchar
        </CharString>
        <CharString name="Uring">
          -15 72 563 -20 78 212 hstem
          75 84 232 83 vstem
          274 890 rmoveto
          18 callsubr
          -4 -905 rmoveto
          -83 callsubr
          endchar
        </CharString>
        <CharString name="V">
          -1 75 546 -20 23 -20 hstemhm
          38 474 hintmask 10110000
          335 -1 rmoveto
          hintmask 11010000
          64 208 58 206 55 207 rrcurveto
          -83 hlineto
          -46 -182 -49 -182 -53 -182 rrcurveto
          -9 hlineto
          hintmask 10110000
          -53 182 -50 185 -46 182 rrcurveto
          -85 -6 rlineto
          55 -207 59 -203 64 -208 rrcurveto
          endchar
        </CharString>
        <CharString name="W">
          0 106 514 -20 hstem
          51 82 289 78 vstem
          364 hmoveto
          -82 callsubr
          endchar
        </CharString>
        <CharString name="Wacute">
          0 106 514 -20 hstem
          51 82 289 78 vstem
          174 724 rmoveto
          -25 callsubr
          190 -724 rmoveto
          -82 callsubr
          endchar
        </CharString>
        <CharString name="Wcircumflex">
          0 106 514 -20 hstem
          51 82 289 78 vstem
          406 690 rmoveto
          -19 callsubr
          91 -804 rmoveto
          -82 callsubr
          endchar
        </CharString>
        <CharString name="Wdieresis">
          0 106 514 -20 99 136 hstemhm
          51 82 -3.5 82.5 137.5 82.5 -10 78 hintmask 11101100
          431 699 rmoveto
          -33 callsubr
          -138 hmoveto
          -33 callsubr
          235 -699 rmoveto
          hintmask 11110010
          -82 callsubr
          endchar
        </CharString>
        <CharString name="Wgrave">
          0 106 514 -20 hstem
          51 82 289 78 vstem
          379 718 rmoveto
          -76 callsubr
          9 -682 rmoveto
          -82 callsubr
          endchar
        </CharString>
        <CharString name="X">
          18 -21 24 -21 24 -21 617 -20 23 -20 hstemhm
          40 473 hintmask 10001100
          421 -3 rmoveto
          hintmask 00110100
          91 6 -183 307 184 310 -90 0 -143 -253 rlineto
          hintmask 01001100
          -149 256 -91 -6 184 -307 -184 -310 89 0 143 253 rlineto
          endchar
        </CharString>
        <CharString name="Y">
          21 -21 620 -20 22 -20 hstemhm
          234 84 hintmask 10110000
          318 hmoveto
          0 206 rlineto
          hintmask 11010000
          -81 callsubr
          hintmask 10110000
          -80 callsubr
          endchar
        </CharString>
        <CharString name="Yacute">
          21 -21 620 -20 22 -20 hstemhm
          234 84 hintmask 10110000
          173 726 rmoveto
          -25 callsubr
          145 -726 rmoveto
          0 206 rlineto
          hintmask 11010000
          -81 callsubr
          hintmask 10110000
          -80 callsubr
          endchar
        </CharString>
        <CharString name="Ycircumflex">
          21 -21 620 -20 22 -20 hstemhm
          234 84 hintmask 10110000
          405 692 rmoveto
          -19 callsubr
          46 -806 rmoveto
          0 206 rlineto
          hintmask 11010000
          -81 callsubr
          hintmask 10110000
          -80 callsubr
          endchar
        </CharString>
        <CharString name="Ydieresis">
          21 -21 620 -20 22 -20 99 136 hstemhm
          128.5 82.5 23 84 30.5 82.5 hintmask 10110110
          430 701 rmoveto
          -33 callsubr
          hintmask 10111110
          -138 hmoveto
          -33 callsubr
          hintmask 11010110
          190 -701 rmoveto
          0 206 199 414 -86 0 -153 -334 rlineto
          hintmask 10110110
          -80 callsubr
          endchar
        </CharString>
        <CharString name="Ygrave">
          21 -21 620 -20 22 -20 hstemhm
          234 84 hintmask 10110000
          378 720 rmoveto
          -76 callsubr
          -36 -684 rmoveto
          0 206 rlineto
          hintmask 11010000
          -81 callsubr
          hintmask 10110000
          -80 callsubr
          endchar
        </CharString>
        <CharString name="Z">
          0 72.5 475 72.5 hstem
          67 421 vstem
          481 hmoveto
          -79 callsubr
          endchar
        </CharString>
        <CharString name="Zacute">
          0 72.5 475 72.5 hstem
          67 421 vstem
          182 724 rmoveto
          -25 callsubr
          299 -724 rmoveto
          -79 callsubr
          endchar
        </CharString>
        <CharString name="Zcaron">
          0 72.5 475 72.5 hstem
          67 421 vstem
          295 685 rmoveto
          9 callsubr
          190 -685 rmoveto
          -79 callsubr
          endchar
        </CharString>
        <CharString name="Zdotaccent">
          0 72.5 475 72.5 79 136 hstem
          247.5 84 vstem
          329 699 rmoveto
          8 callsubr
          235 -699 rmoveto
          -79 callsubr
          endchar
        </CharString>
        <CharString name="a">
          -12 64 -34 -21 26 -21 223 54 150 70 hstemhm
          67 80 238 79 hintmask 10011110
          248 52 rmoveto
          -61 -40 30 52 hvcurveto
          0 67 59 39 179 -19 0 -48 1 -36 1 -32 rrcurveto
          -38 -30 -52 -23 -49 0 rrcurveto
          hintmask 01011110
          150 -55 rmoveto
          hintmask 00111110
          -75 callsubr
          hintmask 10011110
          -74 callsubr
          endchar
        </CharString>
        <CharString name="aacute">
          -12 64 -34 -21 26 -21 223 54 150 70 hstemhm
          67 80 238 79 hintmask 10011110
          168 598 rmoveto
          -25 callsubr
          80 -546 rmoveto
          -5 callsubr
          hintmask 01011110
          150 -55 rmoveto
          hintmask 00111110
          -75 callsubr
          hintmask 10011110
          -74 callsubr
          endchar
        </CharString>
        <CharString name="abreve">
          -12 64 -34 -21 26 -21 223 54 150 70 70 66 hstemhm
          67 80 238 79 hintmask 10011111
          273 569 rmoveto
          7 callsubr
          -25 -517 rmoveto
          -5 callsubr
          hintmask 01011111
          150 -55 rmoveto
          hintmask 00111111
          -75 callsubr
          hintmask 10011111
          -74 callsubr
          endchar
        </CharString>
        <CharString name="acircumflex">
          -12 64 -34 -21 26 -21 223 54 150 70 hstemhm
          67 80 238 79 hintmask 10011110
          401 564 rmoveto
          -19 callsubr
          -20 -626 rmoveto
          -5 callsubr
          hintmask 01011110
          150 -55 rmoveto
          hintmask 00111110
          -75 callsubr
          hintmask 10011110
          -74 callsubr
          endchar
        </CharString>
        <CharString name="acute">
          558 214 hstem
          162 258 vstem
          162 594 rmoveto
          -25 callsubr
          endchar
        </CharString>
        <CharString name="adieresis">
          -12 64 -34 -21 26 -21 223 54 150 70 74 136 hstemhm
          67 80 -23.5 82.5 137.5 82.5 -41 79 hintmask 1001110110000000
          425 573 rmoveto
          -33 callsubr
          -138 hmoveto
          -33 callsubr
          125 -521 rmoveto
          hintmask 1001111001000000
          -5 callsubr
          hintmask 0101110101000000
          150 -55 rmoveto
          hintmask 0011111001000000
          -75 callsubr
          hintmask 1001111001000000
          -74 callsubr
          endchar
        </CharString>
        <CharString name="ae">
          -7 65 -64 68 161 52 -48.5 49.5 149 69 -65 67 hstemhm
          34 76 124 70 135 74 hintmask 0101011110000000
          375 429 rmoveto
          -4 callsubr
          hintmask 1010011110000000
          -206 -371 rmoveto
          -3 callsubr
          hintmask 0101011110000000
          328 -64 rmoveto
          -2 callsubr
          hintmask 1010101110000000
          -1 callsubr
          endchar
        </CharString>
        <CharString name="aeacute">
          -7 65 -64 68 161 52 -48.5 49.5 149 69 -65 67 hstemhm
          34 76 124 70 135 74 hintmask 0101011110000000
          170 594 rmoveto
          -25 callsubr
          205 -165 rmoveto
          -4 callsubr
          hintmask 1010011110000000
          -206 -371 rmoveto
          -3 callsubr
          hintmask 0101011110000000
          328 -64 rmoveto
          -2 callsubr
          hintmask 1010101110000000
          -1 callsubr
          endchar
        </CharString>
        <CharString name="agrave">
          -12 64 -34 -21 26 -21 223 54 150 70 206 -20 hstemhm
          67 80 238 79 hintmask 10011111
          374 592 rmoveto
          -76 callsubr
          -102 -504 rmoveto
          -5 callsubr
          hintmask 01011111
          150 -55 rmoveto
          hintmask 00111111
          -75 callsubr
          hintmask 10011111
          -74 callsubr
          endchar
        </CharString>
        <CharString name="amacron">
          -12 64 -34 -21 26 -21 223 54 150 70 109 70 hstemhm
          67 80 238 79 hintmask 10011111
          440 678 rmoveto
          -30 callsubr
          -192 -556 rmoveto
          -5 callsubr
          hintmask 01011111
          150 -55 rmoveto
          hintmask 00111111
          -75 callsubr
          hintmask 10011111
          -74 callsubr
          endchar
        </CharString>
        <CharString name="ampersand">
          -11 68 296 67 216 63 hstemhm
          15 82 -46 82 235 77 hintmask 11110100
          240 699 rmoveto
          hintmask 11101100
          -117 -72 -77 -88 hvcurveto
          0 -62 30 -61 90 -21 rrcurveto
          -3 vlineto
          hintmask 11110100
          -100 -21 -56 -68 0 -103 0 -103 67 -103 156 0 115 0 62 54 30 38 rrcurveto
          272 90 67 -278 vlineto
          hintmask 11101100
          -70 -54 53 61 59 35 43 71 hvcurveto
          50 0 33 -19 35 -39 rrcurveto
          50 46 rlineto
          -55 61 -52 14 -60 0 rrcurveto
          128 -346 rmoveto
          -244 vlineto
          -27 -34 -46 -18 -55 0 rrcurveto
          -101 -42 68 73 71 44 84 103 hvcurveto
          endchar
        </CharString>
        <CharString name="aogonek">
          -214 65 158 -21 0 64 -29 -21 223 54 150 70 hstemhm
          67 80 117 76 45 79 hintmask 1010111110000000
          450 -214 rmoveto
          7 65 rlineto
          -85 9 -32 16 0 24 rrcurveto
          hintmask 1001111110000000
          0 23 29 31 103 48 -4 70 -4 69 0 102 0 189 -76 59 -283 8 rrcurveto
          -9 -70 rlineto
          219 -8 62 -29 7 -113 -217 13 -100 -76 0 -101 rrcurveto
          hintmask 1010111110000000
          -79 59 -48 84 vhcurveto
          76 0 62 46 41 50 rrcurveto
          hintmask 1100111110000000
          2 -21 4 -34 2 -20 -96 -50 -37 -40 0 -40 rrcurveto
          0 -48 50 -35 136 -10 rrcurveto
          -208 266 rmoveto
          -57 -38 29 53 hvcurveto
          0 67 59 39 179 -19 0 -40 0 -25 1 -28 -38 -43 -55 -33 -51 0 rrcurveto
          endchar
        </CharString>
        <CharString name="approxequal">
          100 68 39 69 37 68 39 69 hstem
          54 438 vstem
          362 313 rmoveto
          57 0 35 50 38 100 rrcurveto
          -51 21 rlineto
          -25 -59 -23 -44 -29 0 -48 0 -47 108 -78 0 -58 0 -41 -53 -38 -102 rrcurveto
          50 -20 rlineto
          27 61 23 45 30 0 50 0 49 -107 79 0 rrcurveto
          -213 vmoveto
          57 0 35 50 38 100 rrcurveto
          -50 21 rlineto
          -26 -59 -23 -44 -29 0 -48 0 -47 108 -78 0 -58 0 -41 -53 -38 -102 rrcurveto
          51 -20 rlineto
          26 61 24 45 30 0 49 0 49 -107 79 0 rrcurveto
          endchar
        </CharString>
        <CharString name="aring">
          -12 64 -34 -21 26 -21 223 54 150 70 53 212 hstemhm
          67 80 238 79 hintmask 10011111
          272 764 rmoveto
          -17 callsubr
          -24 -712 rmoveto
          -5 callsubr
          hintmask 01011111
          150 -55 rmoveto
          hintmask 00111111
          -75 callsubr
          hintmask 10011111
          -74 callsubr
          endchar
        </CharString>
        <CharString name="aringacute">
          -12 64 -34 -21 26 -21 223 54 150 70 53 212 hstemhm
          67 80 238 79 hintmask 10011111
          168 842 rmoveto
          -25 callsubr
          104 -78 rmoveto
          18 callsubr
          -24 -712 rmoveto
          -5 callsubr
          hintmask 01011111
          150 -55 rmoveto
          hintmask 00111111
          -75 callsubr
          hintmask 10011111
          -74 callsubr
          endchar
        </CharString>
        <CharString name="asciicircum">
          527 313 hstem
          49 452 vstem
          312 840 rmoveto
          -74 0 -189 -313 90 0 135 237 136 -237 91 0 rlineto
          endchar
        </CharString>
        <CharString name="asciitilde">
          228 73 27 73 hstem
          18 514 vstem
          180 401 rmoveto
          -89 0 -43 -70 -30 -58 rrcurveto
          60 -30 rlineto
          26 48 30 37 43 0 64 0 35 -100 94 0 rrcurveto
          88 0 44 69 30 57 rrcurveto
          -60 32 rlineto
          -26 -48 -32 -37 -41 0 -61 0 -32 100 -100 0 rrcurveto
          endchar
        </CharString>
        <CharString name="asterisk">
          98 480 hstem
          23 504 vstem
          233 578 rmoveto
          84 0 -6 -202 190 68 26 -79 -194 -58 123 -160 -67 -49 -114 168 -114 -168 -67 49 123 160 -194 58 26 79 190 -68 rlineto
          endchar
        </CharString>
        <CharString name="asterisk.alt">
          642 -20 hstemhm
          243 38.5 -11.5 38 hintmask 10100000
          308 549 rmoveto
          39 134 -76 14 -2 -141 rlineto
          -40 -15 rmoveto
          -97 101 -49 -59 120 -74 rlineto
          151 -25 rmoveto
          136 34 -26 72 -124 -68 rlineto
          -143 -53 rmoveto
          -136 -35 26 -71 124 67 rlineto
          111 -18 rmoveto
          98 -102 49 59 -120 75 rlineto
          hintmask 11000000
          -106 -40 rmoveto
          -39 -135 76 -13 3 141 rlineto
          endchar
        </CharString>
        <CharString name="at">
          -157 66 150 64 289 67 138 66 hstem
          50 69 94 73 132 71 vstem
          449 -152 rmoveto
          65 vlineto
          -267 -32 -63 138 0 236 0 241 86 121 108 0 67 0 31 -47 6 -91 -121 6 -83 -78 0 -160 0 -115 48 -73 67 0 40 0 27 18 28 33 rrcurveto
          1 -16 2 -19 1 -9 rrcurveto
          67 8 rlineto
          -2 92 -3 87 0 197 rrcurveto
          150 -51 83 -116 -157 -115 -171 -267 vhcurveto
          0 -260 92 -176 307 39 rrcurveto
          -95 275 rmoveto
          -45 -23 48 90 hvcurveto
          0 107 29 62 103 -22 rrcurveto
          -252 vlineto
          -18 -19 -21 -14 -25 0 rrcurveto
          endchar
        </CharString>
        <CharString name="atilde">
          -12 64 -34 -21 26 -21 223 54 150 70 72 66 34 67 hstemhm
          67 80 238 79 hintmask 1001111110000000
          350 571 rmoveto
          -18 callsubr
          -102 -519 rmoveto
          -5 callsubr
          hintmask 0101111110000000
          150 -55 rmoveto
          hintmask 0011111110000000
          -75 callsubr
          hintmask 1001111110000000
          -74 callsubr
          endchar
        </CharString>
        <CharString name="b">
          -12 70 376 67 198 -20 27 -20 hstemhm
          90 81 243 80 hintmask 11011100
          234 -12 rmoveto
          136 124 106 173 143 -77 91 -105 hvcurveto
          -58 0 -47 -25 -36 -30 rrcurveto
          0 260 rlineto
          hintmask 11101100
          -81 -7 0 -686 rlineto
          45 -16 48 -9 51 0 rrcurveto
          28 70 rmoveto
          -30 0 -30 6 -31 11 rrcurveto
          320 vlineto
          32 24 39 15 38 0 rrcurveto
          78 56 -65 -122 -125 -64 -64 -88 hvcurveto
          endchar
        </CharString>
        <CharString name="backslash">
          -103 912 hstem
          28 494 vstem
          28 777 rmoveto
          426 -880 68 30 -428 882 rlineto
          endchar
        </CharString>
        <CharString name="bar">
          -102 909 hstem
          237 75 vstem
          312 807 rmoveto
          -75 -909 75 hlineto
          endchar
        </CharString>
        <CharString name="braceleft">
          229 59 hstemhm
          148 78 -75 81 11 77 -71 73 hintmask 10100000
          455 -209 rmoveto
          -41 callsubr
          hintmask 10110000
          0 39 -31 40 -84 21 rrcurveto
          hintmask 10101000
          85 23 32 41 0 37 rrcurveto
          hintmask 11000000
          -40 callsubr
          hintmask 10101000
          -39 callsubr
          hintmask 10110000
          109 -7 48 -31 0 -38 rrcurveto
          hintmask 10100000
          -38 callsubr
          endchar
        </CharString>
        <CharString name="braceleft.cap">
          277 59 hstemhm
          148 78 -75 81 11 77 -71 73 hintmask 10100000
          455 -161 rmoveto
          -41 callsubr
          hintmask 10110000
          0 39 -31 40 -84 21 rrcurveto
          hintmask 10101000
          85 23 32 41 0 37 rrcurveto
          hintmask 11000000
          -40 callsubr
          hintmask 10101000
          -39 callsubr
          hintmask 10110000
          109 -7 48 -31 0 -38 rrcurveto
          hintmask 10100000
          -38 callsubr
          endchar
        </CharString>
        <CharString name="braceright">
          231 58 hstemhm
          230 72 -71 77 12 81 -76 78 hintmask 10001000
          93 -208 rmoveto
          -37 callsubr
          hintmask 11001000
          -36 callsubr
          hintmask 10101000
          -110 7 -48 31 0 38 rrcurveto
          hintmask 10010000
          -35 callsubr
          hintmask 10101000
          0 -39 32 -40 83 -20 rrcurveto
          hintmask 11001000
          -84 -24 -32 -41 0 -36 rrcurveto
          hintmask 10001000
          -34 callsubr
          endchar
        </CharString>
        <CharString name="braceright.cap">
          278 58 372 -20 hstemhm
          230 72 -71 77 12 81 -76 78 hintmask 11000100
          93 -161 rmoveto
          -37 callsubr
          hintmask 11100100
          -36 callsubr
          hintmask 11010100
          -110 7 -48 31 0 38 rrcurveto
          hintmask 11001000
          -35 callsubr
          hintmask 11010100
          0 -39 32 -40 83 -20 rrcurveto
          hintmask 11100100
          -84 -24 -32 -41 0 -36 rrcurveto
          hintmask 11000100
          -34 callsubr
          endchar
        </CharString>
        <CharString name="bracketleft">
          -179 66 742 66 hstem
          137 78 vstem
          137 -179 rmoveto
          -78 callsubr
          endchar
        </CharString>
        <CharString name="bracketleft.cap">
          -131 66 742 66 hstem
          137 78 vstem
          137 -131 rmoveto
          -78 callsubr
          endchar
        </CharString>
        <CharString name="bracketright">
          -178 66 741 66 hstem
          337 77 vstem
          89 -112 rmoveto
          -77 callsubr
          endchar
        </CharString>
        <CharString name="bracketright.cap">
          -131 66 741 66 hstem
          337 77 vstem
          89 -65 rmoveto
          -77 callsubr
          endchar
        </CharString>
        <CharString name="breve">
          565 66 hstem
          87 378 vstem
          272 565 rmoveto
          7 callsubr
          endchar
        </CharString>
        <CharString name="bullet">
          172 252 hstem
          145 259 vstem
          404 300 rmoveto
          73 -54 51 -74 -72 -59 -50 -77 -74 55 -51 74 73 57 50 78 vhcurveto
          endchar
        </CharString>
        <CharString name="bullet.alt">
          189 217 hstem
          168 213 vstem
          380 189 rmoveto
          2 217 -213 0 -2 -217 rlineto
          endchar
        </CharString>
        <CharString name="c">
          -4 68 356 77 hstem
          80 80 vstem
          80 237 rmoveto
          -73 callsubr
          endchar
        </CharString>
        <CharString name="cacute">
          -4 68 356 77 hstem
          80 80 vstem
          196 594 rmoveto
          -25 callsubr
          -116 -357 rmoveto
          -73 callsubr
          endchar
        </CharString>
        <CharString name="caron">
          634 -20 84 -20 28 -20 hstemhm
          97 356 hintmask 10110000
          277 555 rmoveto
          10 callsubr
          hintmask 11010000
          11 callsubr
          hintmask 10110000
          176 -143 rlineto
          endchar
        </CharString>
        <CharString name="caron.alt">
          552 251 hstem
          230 78 vstem
          203 565 rmoveto
          12 callsubr
          endchar
        </CharString>
        <CharString name="ccaron">
          -4 68 356 77 137 -20 84 -20 28 -20 hstemhm
          80 80 hintmask 11101100
          309 555 rmoveto
          10 callsubr
          hintmask 11110100
          11 callsubr
          hintmask 11101100
          176 -143 rlineto
          -225 -318 rmoveto
          -73 callsubr
          endchar
        </CharString>
        <CharString name="ccedilla">
          2 -21 15 68 -43 -21 420 77 hstemhm
          80 80 170 72 hintmask 01011100
          402 -117 rmoveto
          hintmask 00111100
          0 35 -30 40 -71 42 rrcurveto
          hintmask 01011100
          44 -7 53 -1 62 4 rrcurveto
          9 68 rlineto
          -240 -11 -69 66 0 129 0 104 49 69 253 -1 rrcurveto
          -6 77 rlineto
          -285 -6 -91 -119 0 -135 rrcurveto
          hintmask 10011100
          0 -106 41 -86 129 -35 rrcurveto
          -14 -29 rlineto
          66 -39 28 -29 0 -22 0 -21 -34 -15 -83 -12 rrcurveto
          6 -64 rlineto
          122 15 61 39 0 50 rrcurveto
          endchar
        </CharString>
        <CharString name="cdotaccent">
          -4 68 356 77 72 136 hstem
          80 80 101.5 84 vstem
          343 569 rmoveto
          8 callsubr
          -180 -332 rmoveto
          -73 callsubr
          endchar
        </CharString>
        <CharString name="cedilla">
          9 -21 hstem
          323 72 vstem
          229 -12 rmoveto
          66 -39 28 -29 0 -22 0 -21 -34 -15 -83 -12 rrcurveto
          6 -64 rlineto
          122 15 61 39 0 50 0 42 -42 48 -103 50 rrcurveto
          endchar
        </CharString>
        <CharString name="cent">
          34 69 306 75 136 -20 hstem
          76 76 vstem
          152 271 rmoveto
          0 63 32 54 119 18 rrcurveto
          -35 -274 rlineto
          -83 28 -33 48 0 63 rrcurveto
          292 -237 rmoveto
          9 69 rlineto
          -50 2 -43 5 -36 7 rrcurveto
          36 294 rlineto
          31 1 35 0 40 -3 rrcurveto
          9 75 rlineto
          -37 2 -33 -1 -31 -2 rrcurveto
          19 137 -71 0 -17 -144 rlineto
          -177 -29 -52 -92 0 -94 0 -89 46 -73 130 -38 rrcurveto
          -19 -146 71 0 14 131 rlineto
          37 -6 42 -4 47 -2 rrcurveto
          endchar
        </CharString>
        <CharString name="check.1">
          2 -21 hstem
          69 440 vstem
          509 657 rmoveto
          -82 26 rlineto
          -69 -176 -59 -203 -45 -219 rrcurveto
          -4 0 -111 270 -70 -31 150 -349 71 6 rlineto
          58 243 73 226 88 207 rrcurveto
          endchar
        </CharString>
        <CharString name="check.2">
          9 -21 26 -21 34 -21 500 -20 hstemhm
          87 406 hintmask 01011000
          354 -7 rmoveto
          78 18 -135 261 196 383 -80 31 -159 -352 -84 172 -75 -27 116 -217 rlineto
          hintmask 00111000
          -124 -256 rlineto
          hintmask 10011000
          52 -18 112 218 rlineto
          endchar
        </CharString>
        <CharString name="circumflex">
          560 193 hstem
          97 356 vstem
          402 560 rmoveto
          -19 callsubr
          endchar
        </CharString>
        <CharString name="colon">
          -11 162 198 162 hstem
          194 161 vstem
          194 431 rmoveto
          -45 34 -37 46 47 34 37 45 44 -34 36 -47 -46 -34 -36 -44 vhcurveto
          -361 vmoveto
          -46 34 -35 46 47 34 35 46 44 -34 37 -47 -46 -34 -37 -44 vhcurveto
          endchar
        </CharString>
        <CharString name="colon.alt">
          87 116 214 116 hstemhm
          217 119 -115.5 118.5 hintmask 11010000
          338 417 rmoveto
          2 116 -119 0 -1 -116 rlineto
          hintmask 11100000
          115 -330 rmoveto
          2 116 -119 0 -2 -116 rlineto
          endchar
        </CharString>
        <CharString name="colonmonetary">
          22 70 432 74 hstemhm
          64 73 52.5 57.5 -2 58.5 14.5 57.5 0.5 58.5 hintmask 11110100
          334 111 rmoveto
          -28 6 -25 7 -22 9 rrcurveto
          33 363 rlineto
          22 7 26 6 29 4 rrcurveto
          -232 -201 rmoveto
          0 74 28 56 77 36 rrcurveto
          -28 -323 rlineto
          -54 34 -23 50 0 73 rrcurveto
          176 -386 rmoveto
          58 0 9 105 rlineto
          hintmask 11101010
          26 -4 29 -3 30 -2 rrcurveto
          14 70 rlineto
          -36 3 -33 4 -30 4 rrcurveto
          37 416 rlineto
          26 2 28 2 31 1 rrcurveto
          -4 74 rlineto
          -24 -1 -23 -1 -21 -3 rrcurveto
          9 100 -58 0 -10 -107 rlineto
          -26 -4 -24 -6 -23 -6 rrcurveto
          11 123 -58 0 -12 -143 rlineto
          -129 -54 -46 -92 0 -105 0 -103 41 -70 92 -45 rrcurveto
          hintmask 11110100
          -15 -155 59 0 12 133 rlineto
          21 -7 24 -6 25 -5 rrcurveto
          endchar
        </CharString>
        <CharString name="comma">
          -151 -21 hstem
          244 92 vstem
          189 -172 rmoveto
          42 -13 rlineto
          87 81 42 113 -38 113 rrcurveto
          -112 -6 rlineto
          52 -110 -7 -100 -66 -78 rrcurveto
          endchar
        </CharString>
        <CharString name="commaaccent">
          -277 210 hstem
          235 82 vstem
          211 -264 rmoveto
          13 callsubr
          endchar
        </CharString>
        <CharString name="commaaccent.rot">
          565 210 hstem
          226 82 vstem
          332 762 rmoveto
          14 callsubr
          endchar
        </CharString>
        <CharString name="copyright">
          7 45 91 54 227 58 86 45 hstem
          43 49 84 59 224 48 vstem
          507 314 rmoveto
          187 -93 112 -130 -134 -107 -123 -184 -191 100 -108 135 130 99 113 194 vhcurveto
          -415 -5 rmoveto
          160 81 99 109 104 73 -97 -160 -167 -75 -92 -102 -108 -82 92 165 vhcurveto
          260 -112 rmoveto
          -93 -4 -24 41 0 80 0 65 15 42 99 3 rrcurveto
          -4 58 rlineto
          -126 -9 -43 -75 0 -89 0 -101 42 -74 128 9 rrcurveto
          endchar
        </CharString>
        <CharString name="d">
          -12 67 -36 -21 25 -21 430 69 -3 -20 221 -20 27 -20 hstemhm
          56 80 241 81 hintmask 1001001110000000
          271 55 rmoveto
          -79 -56 61 125 124 70 67 90 hvcurveto
          26 0 27 -5 28 -9 0 -137 1 -99 2 -85 rrcurveto
          -30 -24 -38 -18 -41 0 rrcurveto
          hintmask 0101001110000000
          118 -57 rmoveto
          hintmask 0011001110000000
          -72 callsubr
          hintmask 1000110110000000
          -81 -7 0 -201 rlineto
          hintmask 1001001110000000
          -71 callsubr
          endchar
        </CharString>
        <CharString name="dagger">
          470 64.5 -60.5 64.5 hstemhm
          237.5 68.5 -68 78 hintmask 10100000
          298 127 rmoveto
          16 344 172 -2 4 64 rlineto
          hintmask 10010000
          -175 3 2 159 -79 1 rlineto
          hintmask 01010000
          0 -159 -168 3 -3 -65 rlineto
          hintmask 01100000
          171 -2 -1 -365 13 -7 rlineto
          endchar
        </CharString>
        <CharString name="daggerdbl">
          271.5 62 -58 62 135 62 -58 62 hstemhm
          238 64.5 -64.5 78 hintmask 01101000
          299 75 rmoveto
          hintmask 10101000
          7 198 174 -3 4 62 -175 3 5 139 172 -3 4 62 rlineto
          hintmask 01100100
          -175 3 2 159 -79 1 rlineto
          hintmask 01010100
          0 -159 -168 3 -3 -62 rlineto
          hintmask 01011000
          171 -3 0 -139 -174 3 -4 -62 178 -3 0 -217 12 -7 rlineto
          endchar
        </CharString>
        <CharString name="dcaron">
          -12 67 -36 -21 25 -21 430 69 -3 -20 221 -20 27 -20 hstemhm
          56 80 241 81 94 78 hintmask 1001001111000000
          525 565 rmoveto
          12 callsubr
          -254 -510 rmoveto
          -79 -56 61 125 124 70 67 90 hvcurveto
          26 0 27 -5 28 -9 0 -137 1 -99 2 -85 -30 -24 -38 -18 -41 0 rrcurveto
          hintmask 0101001111000000
          118 -57 rmoveto
          hintmask 0011001111000000
          -72 callsubr
          hintmask 1000110111000000
          -81 -7 0 -201 rlineto
          hintmask 1001001111000000
          -71 callsubr
          endchar
        </CharString>
        <CharString name="dcroat">
          -12 67 -36 -21 25 -21 429 68 -3 -20 102 53 -53 125 hstemhm
          56 80 240 82 hintmask 1001010110000000
          271 55 rmoveto
          -79 -56 61 125 123 70 67 90 hvcurveto
          26 0 26 -5 28 -9 1 -137 1 -99 2 -85 rrcurveto
          -31 -24 -37 -17 -41 0 rrcurveto
          hintmask 0101010110000000
          118 -57 rmoveto
          hintmask 0011010110000000
          76 4 rlineto
          -5 111 -2 155 0 220 rrcurveto
          90 69 53 -69 vlineto
          hintmask 1001001110000000
          0 72 -82 -7 rlineto
          hintmask 1000110110000000
          -65 -131 -53 131 -82 vlineto
          hintmask 1001010110000000
          -14 2 -15 1 -15 0 rrcurveto
          -149 -127 -101 -178 -145 78 -87 106 hvcurveto
          60 0 49 28 35 33 rrcurveto
          endchar
        </CharString>
        <CharString name="degree">
          313 61 240 62 hstem
          100 66 218 66 vstem
          450 498 rmoveto
          109 -72 69 -97 -96 -85 -73 -113 -109 73 -68 96 96 85 72 113 vhcurveto
          -66 hmoveto
          -1 -76 -47 -48 -62 0 -64 0 -45 52 1 68 1 73 47 47 62 0 64 0 45 -50 -1 -66 rrcurveto
          endchar
        </CharString>
        <CharString name="dieresis">
          569 136 hstem
          125.5 82.5 137.5 82.5 vstem
          427 569 rmoveto
          -33 callsubr
          -138 hmoveto
          -33 callsubr
          endchar
        </CharString>
        <CharString name="divide">
          66 94 99 68 99 93 hstem
          229.5 90.5 vstem
          319 426 rmoveto
          2 93 -91 0 -1 -93 rlineto
          260 -99 rmoveto
          -428 -68 427 hlineto
          -169 -193 rmoveto
          2 94 -91 0 -1 -94 rlineto
          endchar
        </CharString>
        <CharString name="dollar">
          28 68 426 62 -61 68 112 -20 hstemhm
          90 85 212 85 hintmask 10111100
          175 464 rmoveto
          0 34 34 24 86 1 rrcurveto
          -28 -156 rlineto
          -51 32 -41 31 0 34 rrcurveto
          212 -299 rmoveto
          0 -37 -37 -27 -85 -5 rrcurveto
          30 167 rlineto
          51 -32 41 -31 0 -35 rrcurveto
          -144 -249 rmoveto
          18 112 rlineto
          150 13 61 63 0 66 0 69 -81 52 -78 48 rrcurveto
          hintmask 11011100
          34 183 rlineto
          32 -2 37 -5 43 -7 rrcurveto
          9 76 rlineto
          -36 5 -32 2 -30 1 rrcurveto
          22 111 -73 0 rlineto
          hintmask 10111100
          -19 -112 rlineto
          -150 -10 -60 -60 0 -65 0 -68 82 -51 78 -47 rrcurveto
          -36 -194 rlineto
          -36 1 -43 5 -49 8 rrcurveto
          -15 -76 rlineto
          44 -6 40 -2 36 -1 rrcurveto
          -21 -109 rlineto
          endchar
        </CharString>
        <CharString name="dotaccent">
          569 136 hstem
          232.5 84 vstem
          314 569 rmoveto
          8 callsubr
          endchar
        </CharString>
        <CharString name="dotlessi">
          0 62 367 61 hstem
          255 81 vstem
          514 hmoveto
          0 callsubr
          endchar
        </CharString>
        <CharString name="e">
          -11 69 170 54 153 67 hstem
          66 80 259 79 vstem
          456 -11 rmoveto
          -70 callsubr
          -173 446 rmoveto
          -69 callsubr
          endchar
        </CharString>
        <CharString name="eacute">
          -11 69 170 54 153 67 hstem
          66 80 259 79 vstem
          180 601 rmoveto
          -25 callsubr
          276 -612 rmoveto
          -70 callsubr
          -173 446 rmoveto
          -69 callsubr
          endchar
        </CharString>
        <CharString name="ebreve">
          -11 69 170 54 153 67 70 66 hstem
          66 80 259 79 vstem
          284 572 rmoveto
          7 callsubr
          172 -583 rmoveto
          -70 callsubr
          -173 446 rmoveto
          -69 callsubr
          endchar
        </CharString>
        <CharString name="ecaron">
          -11 69 170 54 153 67 139 -20 84 -20 hstem
          66 80 259 79 vstem
          293 562 rmoveto
          9 callsubr
          167 -573 rmoveto
          -70 callsubr
          -173 446 rmoveto
          -69 callsubr
          endchar
        </CharString>
        <CharString name="ecircumflex">
          -11 69 170 54 153 67 hstem
          66 80 259 79 vstem
          412 567 rmoveto
          -19 callsubr
          177 -692 rmoveto
          -70 callsubr
          -173 446 rmoveto
          -69 callsubr
          endchar
        </CharString>
        <CharString name="edieresis">
          -11 69 170 54 153 67 74 136 hstemhm
          66 80 -10.5 82.5 137.5 82.5 -33 79 hintmask 11110110
          437 576 rmoveto
          -33 callsubr
          -138 hmoveto
          -33 callsubr
          hintmask 11111001
          321 -587 rmoveto
          8 69 rlineto
          -237 6 -73 44 -8 116 rrcurveto
          335 8 rlineto
          18 162 -68 108 -134 0 -127 0 -104 -115 0 -149 rrcurveto
          0 -159 83 -89 307 -1 rrcurveto
          -173 446 rmoveto
          -69 callsubr
          endchar
        </CharString>
        <CharString name="edotaccent">
          -11 69 170 54 153 67 74 136 hstem
          66 80 99.5 84 75.5 79 vstem
          327 576 rmoveto
          8 callsubr
          212 -587 rmoveto
          -70 callsubr
          -173 446 rmoveto
          -69 callsubr
          endchar
        </CharString>
        <CharString name="egrave">
          -11 69 170 54 153 67 206 -20 hstem
          66 80 259 79 vstem
          386 595 rmoveto
          -76 callsubr
          94 -570 rmoveto
          -70 callsubr
          -173 446 rmoveto
          -69 callsubr
          endchar
        </CharString>
        <CharString name="eight">
          -12 63 518 63 hstemhm
          71 78 -67 78 232 76 -67 79 hintmask 11100100
          264 -12 rmoveto
          131 85 74 93 hvcurveto
          0 79 -70 47 -75 41 rrcurveto
          hintmask 11011000
          83 40 50 50 0 76 rrcurveto
          88 -80 56 -105 -130 -71 -81 -79 vhcurveto
          0 -72 59 -47 68 -40 rrcurveto
          hintmask 11100100
          -84 -43 -54 -58 0 -75 rrcurveto
          -91 81 -58 112 vhcurveto
          hintmask 11011000
          -104 494 rmoveto
          45 39 42 77 75 41 -41 -55 vhcurveto
          0 -52 -38 -42 -63 -32 rrcurveto
          -70 37 -61 38 0 60 rrcurveto
          hintmask 11100100
          115 -431 rmoveto
          -82 -44 43 61 hvcurveto
          0 53 37 46 67 33 76 -42 72 -40 0 -61 rrcurveto
          -53 -49 -40 -77 vhcurveto
          endchar
        </CharString>
        <CharString name="eight.den">
          -220 50 177 -21 28 -21 151 50 hstemhm
          123 64 -57 66 162 62 -59 67 hintmask 10111001
          267 -220 rmoveto
          28 callsubr
          hintmask 10110110
          36 callsubr
          hintmask 11010101
          37 callsubr
          hintmask 10111001
          30 callsubr
          hintmask 10110110
          -71 313 rmoveto
          31 callsubr
          hintmask 10111001
          78 -263 rmoveto
          32 callsubr
          endchar
        </CharString>
        <CharString name="eight.inf">
          -160 50 314 50 hstemhm
          123 64 -57 66 162 62 -59 67 hintmask 11100100
          267 -160 rmoveto
          28 callsubr
          hintmask 11011000
          29 callsubr
          hintmask 11100100
          30 callsubr
          hintmask 11011000
          -71 313 rmoveto
          31 callsubr
          hintmask 11100100
          78 -263 rmoveto
          32 callsubr
          endchar
        </CharString>
        <CharString name="eight.num">
          415 50 156 -20 27 -20 171 50 hstemhm
          123 64 -57 66 162 62 -59 67 hintmask 10111001
          267 415 rmoveto
          28 callsubr
          hintmask 11010110
          29 callsubr
          hintmask 11011001
          30 callsubr
          hintmask 10110110
          -71 313 rmoveto
          31 callsubr
          hintmask 11011001
          78 -263 rmoveto
          32 callsubr
          endchar
        </CharString>
        <CharString name="eight.small">
          -10 50 314 50 hstemhm
          123 64 -57 66 162 62 -59 67 hintmask 11100100
          267 -10 rmoveto
          28 callsubr
          hintmask 11011000
          29 callsubr
          hintmask 11100100
          30 callsubr
          hintmask 11011000
          -71 313 rmoveto
          31 callsubr
          hintmask 11100100
          78 -263 rmoveto
          32 callsubr
          endchar
        </CharString>
        <CharString name="eight.sup">
          315 50 314 50 hstemhm
          123 64 -57 66 162 62 -59 67 hintmask 11100100
          267 315 rmoveto
          28 callsubr
          hintmask 11011000
          29 callsubr
          hintmask 11100100
          30 callsubr
          hintmask 11011000
          -71 313 rmoveto
          31 callsubr
          hintmask 11100100
          78 -263 rmoveto
          32 callsubr
          endchar
        </CharString>
        <CharString name="ellipsis">
          0 120 hstem
          42.5 98 85 98 85 98 vstem
          cntrmask 01110000
          504 hmoveto
          19 callsubr
          -85 hmoveto
          19 callsubr
          -85 hmoveto
          19 callsubr
          endchar
        </CharString>
        <CharString name="emacron">
          -11 69 170 54 153 67 109 70 hstem
          66 80 259 79 vstem
          452 681 rmoveto
          -30 callsubr
          4 -622 rmoveto
          -70 callsubr
          -173 446 rmoveto
          -69 callsubr
          endchar
        </CharString>
        <CharString name="emdash">
          262 62 hstem
          55 444 vstem
          499 324 rmoveto
          -444 -62 439 hlineto
          endchar
        </CharString>
        <CharString name="endash">
          262 62 hstem
          74 407 vstem
          481 324 rmoveto
          -407 -62 400 hlineto
          endchar
        </CharString>
        <CharString name="eogonek">
          -214 65 161 -21 7 60 170 54 153 67 hstemhm
          66 80 101 76 82 79 hintmask 10111111
          432 -214 rmoveto
          8 65 rlineto
          -85 8 -32 17 0 24 rrcurveto
          hintmask 11011111
          0 22 29 29 104 40 rrcurveto
          hintmask 10111111
          8 67 rlineto
          -237 6 -73 44 -8 116 rrcurveto
          335 8 rlineto
          18 162 -68 108 -134 0 -127 0 -104 -115 0 -149 0 -149 78 -86 230 -5 -92 -43 -35 -39 0 -39 rrcurveto
          0 -45 50 -36 135 -10 rrcurveto
          -149 649 rmoveto
          -69 callsubr
          endchar
        </CharString>
        <CharString name="equal">
          180 72 118 72 hstem
          81 388 vstem
          469 442 rmoveto
          -388 -72 388 hlineto
          -118 vmoveto
          -388 -72 388 hlineto
          endchar
        </CharString>
        <CharString name="eth">
          -13 67 341 64 166 -20 103 -20 hstem
          56 80 277 78 vstem
          264 -13 rmoveto
          121 106 91 173 hvcurveto
          0 126 -48 111 -102 100 rrcurveto
          93 47 -19 48 -115 -58 rlineto
          -34 28 -38 28 -43 27 rrcurveto
          -50 -51 rlineto
          36 -22 32 -22 28 -23 rrcurveto
          -110 -56 20 -47 131 66 rlineto
          32 -30 26 -32 21 -32 -148 17 -147 -85 0 -174 rrcurveto
          -143 93 -87 115 vhcurveto
          11 67 rmoveto
          -81 -58 67 106 hvcurveto
          0 129 88 77 167 -57 15 -42 7 -44 0 -46 rrcurveto
          -124 -55 -66 -83 vhcurveto
          endchar
        </CharString>
        <CharString name="exclam">
          -11 134 566 -20 hstemhm
          208 134 -110 84.5 hintmask 11010000
          321 689 rmoveto
          -94 0 10 -462 75 0 rlineto
          hintmask 11100000
          -37 -104 rmoveto
          -107 callsubr
          endchar
        </CharString>
        <CharString name="exclamdown">
          510 110 hstem
          221 113.5 vstem
          222 620 rmoveto
          -2 -110 114 0 1 110 rlineto
          -90 -233 rmoveto
          -2 -87 -25 -264 -4 -92 rrcurveto
          104 hlineto
          -2 92 -18 264 0 87 rrcurveto
          endchar
        </CharString>
        <CharString name="f">
          0 61 355 62 151 79 hstem
          215 81 vstem
          472 61 rmoveto
          -176 355 186 62 -186 12 hlineto
          0 104 25 26 193 9 rrcurveto
          -6 79 rlineto
          -225 -12 -68 -89 0 -129 rrcurveto
          -133 0 -7 -62 140 0 0 -355 -134 0 0 -61 384 0 rlineto
          endchar
        </CharString>
        <CharString name="five">
          9 -21 561 71 hstem
          114 72.5 208.5 76 vstem
          471 206 rmoveto
          0 80 -68 69 -222 23 rrcurveto
          11 171 253 0 7 71 -328 0 -20 -297 rlineto
          220 -17 71 -47 0 -57 0 -74 -79 -44 -226 -21 rrcurveto
          5 -75 rlineto
          261 20 115 86 0 112 rrcurveto
          endchar
        </CharString>
        <CharString name="five.den">
          -221 61 168 -21 141 57 hstem
          154.5 57.5 148 62 vstem
          422 -81 rmoveto
          24 callsubr
          endchar
        </CharString>
        <CharString name="five.inf">
          -161 61 288 57 hstem
          154.5 57.5 148 62 vstem
          422 -21 rmoveto
          24 callsubr
          endchar
        </CharString>
        <CharString name="five.num">
          414 61 288 57 hstem
          154.5 57.5 148 62 vstem
          422 554 rmoveto
          24 callsubr
          endchar
        </CharString>
        <CharString name="five.small">
          -11 61 288 57 hstem
          154.5 57.5 148 62 vstem
          422 129 rmoveto
          24 callsubr
          endchar
        </CharString>
        <CharString name="five.sup">
          314 61 288 57 hstem
          154.5 57.5 148 62 vstem
          422 454 rmoveto
          24 callsubr
          endchar
        </CharString>
        <CharString name="fiveeighths">
          -220 50 177 -21 28 -21 151 50 83 55 82 61 288 57 hstemhm
          123 64 -57 66 -41.5 57.5 148 62 -61 67 hintmask 1011111001100000
          422 554 rmoveto
          24 callsubr
          -361 -277 rmoveto
          -21 callsubr
          hintmask 1011111100010000
          206 -552 rmoveto
          28 callsubr
          hintmask 1011111010100000
          36 callsubr
          hintmask 1101111010100000
          37 callsubr
          hintmask 1011111100100000
          30 callsubr
          hintmask 1011111010100000
          -71 313 rmoveto
          31 callsubr
          hintmask 1011111100010000
          78 -263 rmoveto
          32 callsubr
          endchar
        </CharString>
        <CharString name="fivesixths">
          -219 53 152 46 245 55 82 61 288 57 hstemhm
          121 62 -28.5 57.5 148 62 -54 62 hintmask 1111101100000000
          422 554 rmoveto
          24 callsubr
          -361 -277 rmoveto
          -21 callsubr
          hintmask 1110110010000000
          214 -551 rmoveto
          25 callsubr
          6 53 rmoveto
          26 callsubr
          endchar
        </CharString>
        <CharString name="four">
          0 199 -71 71 422 -20 26 -20 hstemhm
          82 64 213 76 hintmask 01011100
          503 128 rmoveto
          8 71 -76 0 0 226 -76 -9 0 -217 -213 0 rlineto
          hintmask 01101100
          4 57 64 273 22 92 rrcurveto
          hintmask 01011100
          -87 6 rlineto
          -46 -185 -24 -195 3 -119 rrcurveto
          277 hlineto
          hintmask 10011100
          -128 76 vlineto
          hintmask 01011100
          128 vlineto
          endchar
        </CharString>
        <CharString name="four.den">
          -129.5 54 hstem
          130 56 147 60.5 vstem
          445 -130 rmoveto
          -20 callsubr
          endchar
        </CharString>
        <CharString name="four.inf">
          -69.5 54 21.5 -21 hstem
          130 56 147 60.5 vstem
          445 -70 rmoveto
          5 55 -57 -1 1 137 -62 -5 2 -132 rlineto
          -148 1 rlineto
          2 31 46 180 15 51 rrcurveto
          -70 5 rlineto
          -33 -119 -17 -126 1 -77 rrcurveto
          203 1 -1 -81 62 0 -1 81 rlineto
          endchar
        </CharString>
        <CharString name="four.num">
          505.5 54 hstem
          130 56 147 60.5 vstem
          445 505 rmoveto
          -20 callsubr
          endchar
        </CharString>
        <CharString name="four.small">
          0 134.5 -54 54 hstemhm
          130 56 147 60.5 hintmask 01010000
          445 80 rmoveto
          hintmask 10110000
          5 55 -57 -1 1 137 -62 -5 2 -132 -148 1 rlineto
          2 31 46 180 15 51 rrcurveto
          -70 5 rlineto
          hintmask 01110000
          -33 -119 -17 -126 1 -77 rrcurveto
          203 1 rlineto
          hintmask 10010000
          -1 -81 62 0 rlineto
          hintmask 01010000
          -1 81 rlineto
          endchar
        </CharString>
        <CharString name="four.sup">
          405.5 54 hstem
          130 56 147 60.5 vstem
          445 405 rmoveto
          -20 callsubr
          endchar
        </CharString>
        <CharString name="fourfifths">
          -221 61 168 -21 141 57 92 55 173.5 54 hstemhm
          130 56 -31.5 57.5 121 60.5 -33.5 62 hintmask 1111101100000000
          445 505 rmoveto
          5 55 -57 -1 1 137 -62 -5 2 -132 rlineto
          hintmask 1111110100000000
          -148 1 rlineto
          2 31 46 180 15 51 rrcurveto
          -70 5 rlineto
          -33 -119 -17 -126 1 -77 rrcurveto
          203 1 -1 -81 62 0 -1 81 rlineto
          -332 -229 rmoveto
          -21 callsubr
          hintmask 1111101010000000
          361 -413 rmoveto
          24 callsubr
          endchar
        </CharString>
        <CharString name="fraction">
          -160 914 hstem
          34 475 vstem
          103 -160 rmoveto
          406 885 -69 29 -406 -885 rlineto
          endchar
        </CharString>
        <CharString name="fraction.afrc">
          277 55 hstem
          61 428 vstem
          61 277 rmoveto
          -21 callsubr
          endchar
        </CharString>
        <CharString name="g">
          -152 -21 211 65 329 69 hstem
          58 80 245 80 vstem
          126 -173 rmoveto
          -68 callsubr
          155 202 rmoveto
          -67 callsubr
          endchar
        </CharString>
        <CharString name="gbreve">
          -152 -21 211 65 329 69 70 66 hstem
          58 80 245 80 vstem
          286 571 rmoveto
          7 callsubr
          -160 -744 rmoveto
          -68 callsubr
          155 202 rmoveto
          -67 callsubr
          endchar
        </CharString>
        <CharString name="gcommaaccent">
          -152 -21 211 65 329 69 hstem
          58 80 98 82 65 80 vstem
          342 768 rmoveto
          14 callsubr
          -216 -941 rmoveto
          -68 callsubr
          155 202 rmoveto
          -67 callsubr
          endchar
        </CharString>
        <CharString name="gdotaccent">
          -152 -21 211 65 329 69 74 136 hstem
          58 80 109.5 84 51.5 80 vstem
          329 575 rmoveto
          8 callsubr
          -120 -748 rmoveto
          -68 callsubr
          155 202 rmoveto
          -67 callsubr
          endchar
        </CharString>
        <CharString name="germandbls">
          -6 70 -64 64 573 70 hstemhm
          83 80 97 79 23 81 -7 80 hintmask 10111010
          339 355 rmoveto
          hintmask 01111100
          0 55 104 47 0 112 rrcurveto
          67 -46 71 -105 -135 -74 -104 -142 vhcurveto
          -461 80 479 vlineto
          104 37 54 74 60 28 -41 -44 vhcurveto
          0 -79 -102 -51 0 -77 rrcurveto
          hintmask 10111010
          0 -110 176 -29 0 -74 0 -45 -49 -34 -123 14 rrcurveto
          -3 -73 rlineto
          192 -11 63 78 0 76 rrcurveto
          0 114 -177 35 0 69 rrcurveto
          endchar
        </CharString>
        <CharString name="grave">
          701 -20 hstem
          137 257 vstem
          394 588 rmoveto
          -76 callsubr
          endchar
        </CharString>
        <CharString name="greater">
          530 -20 hstem
          415 72 vstem
          103 594 rmoveto
          -41 -64 353 -217 -353 -218 45 -62 380 237 0 86 rlineto
          endchar
        </CharString>
        <CharString name="greaterequal">
          15 69 hstem
          383 83.5 vstem
          383 358 rmoveto
          0 -8 -289 -152 27 -64 346 184 -1 65 -338 211 -33 -61 rlineto
          -20 -449 rmoveto
          -69 400 69 vlineto
          endchar
        </CharString>
        <CharString name="guillemotleft">
          4 -21 523 -20 hstem
          284 58 vstem
          213 -17 rmoveto
          -32 callsubr
          409 -222 rmoveto
          -31 callsubr
          endchar
        </CharString>
        <CharString name="guillemotleft.cap">
          47 523 hstem
          284 58 vstem
          213 47 rmoveto
          -32 callsubr
          409 -222 rmoveto
          -31 callsubr
          endchar
        </CharString>
        <CharString name="guillemotright">
          4 -21 523 -20 hstem
          209 58 vstem
          334 -17 rmoveto
          -23 callsubr
          -179 -49 rmoveto
          -22 callsubr
          endchar
        </CharString>
        <CharString name="guillemotright.cap">
          47 523 hstem
          209 58 vstem
          334 47 rmoveto
          -23 callsubr
          -179 -49 rmoveto
          -22 callsubr
          endchar
        </CharString>
        <CharString name="guilsinglleft">
          4 -21 524 -20 hstem
          126 303 vstem
          369 -17 rmoveto
          20 callsubr
          endchar
        </CharString>
        <CharString name="guilsinglleft.cap">
          47 524 hstem
          126 303 vstem
          369 47 rmoveto
          20 callsubr
          endchar
        </CharString>
        <CharString name="guilsinglright">
          4 -21 524 -20 hstem
          122 303 vstem
          176 -17 rmoveto
          21 callsubr
          endchar
        </CharString>
        <CharString name="guilsinglright.cap">
          47 524 hstem
          122 303 vstem
          176 47 rmoveto
          21 callsubr
          endchar
        </CharString>
        <CharString name="h">
          21 -21 432 69 198 -20 27 -20 hstemhm
          88 81 221 81 hintmask 11011100
          291 432 rmoveto
          62 37 -33 -94 hvcurveto
          -305 81 332 vlineto
          120 -58 49 -88 vhcurveto
          -65 0 -51 -27 -40 -32 rrcurveto
          0 264 rlineto
          hintmask 11101100
          -81 -7 0 -699 81 0 0 392 rlineto
          37 24 39 16 46 0 rrcurveto
          endchar
        </CharString>
        <CharString name="hbar">
          21 -21 432 67 79 53 -53 128 -7 -20 hstemhm
          88 81 221 81 hintmask 11101110
          291 432 rmoveto
          62 37 -33 -94 hvcurveto
          -305 81 332 vlineto
          118 -58 49 -88 vhcurveto
          -65 0 -51 -27 -40 -32 rrcurveto
          138 131 53 -131 vlineto
          hintmask 11010110
          0 75 rlineto
          hintmask 11101110
          -81 -7 0 -68 -70 0 0 -53 70 0 0 -578 81 0 0 392 rlineto
          37 24 39 16 46 0 rrcurveto
          endchar
        </CharString>
        <CharString name="hcoslug">
          -100 75 4 9 -8 10 -10 14 -4 11 -10 10 -9 7 0 12 -11 11 -7 15 -15 26 -25 26 -15 8 -8 15 -12 12 0 14 -9 10 -10 19 -9 11 2 8 -7 32 71.5 22.5 hstemhm
          50 64 10 16 -3 8 5 40 -35 12 -1 12 14 10 -2 10 -10 42 -31 9 -1 7 3 12 -6 11 9 40 -29 13 -9 10 0 12 -4 11 -2 12 -5 16 18 11 10 8 hintmask 001000000000000010000010000010000010000010010000
          500 700 rmoveto
          -450 hlineto
          hintmask 100000000000000000001110000000100000001000000000
          -800 450 vlineto
          -300 396 rmoveto
          0 -17 11 -11 17 -16 9 13 5 12 0 12 rrcurveto
          18 -9 11 -13 -12 -8 -9 -13 vhcurveto
          49 -64 rmoveto
          12 -12 9 -12 9 -11 15 25 3 18 -17 17 -7 -7 -10 -9 -14 -9 rrcurveto
          -39 -93 rmoveto
          12 0 9 3 8 6 -21 27 -21 22 -14 13 -8 -8 -4 -11 0 -11 0 -23 17 -18 22 0 rrcurveto
          91 34 rmoveto
          19 -22 13 -9 15 0 15 0 9 9 8 13 rrcurveto
          5 -1 rlineto
          -1 -44 -27 -27 -32 0 -22 0 -17 8 -25 26 -21 -23 -25 -11 -32 0 -45 0 -36 30 0 40 0 31 21 24 40 13 -16 17 -7 13 0 22 rrcurveto
          32 31 32 51 46 25 -30 -26 vhcurveto
          0 -10 -2 -8 -5 -7 20 0 15 -8 2 -20 12 18 14 10 19 0 rrcurveto
          21 16 -15 -24 -23 -16 -17 -21 hvcurveto
          -14 0 -12 7 -6 12 -12 -7 -12 -10 -11 -15 rrcurveto
          hintmask 000000000000000000001000000000000100000000000000
          -72 -105 rmoveto
          -8 10 -5 -10 vlineto
          hintmask 000000000000000001000000000000000100000000000000
          -15 vlineto
          -3 1 -1 2 vhcurveto
          2 0 1 1 1 4 rrcurveto
          4 -1 rlineto
          -2 -7 -3 -3 -6 0 rrcurveto
          -6 -3 4 6 hvcurveto
          hintmask 000000000000000000100000000000010000000000000000
          15 -5 5 5 7 vlineto
          hintmask 000000000000000010000000100000000000000000000000
          -75 -21 rmoveto
          38 callsubr
          hintmask 000000000000000010000010000000000000000000000000
          22 hmoveto
          39 callsubr
          hintmask 000000000000000100000000000000000000000100000000
          132 -1 rmoveto
          6 -2 4 -3 -5 -1 -5 -5 -6 1 -4 5 vhcurveto
          3 2 4 6 hvcurveto
          hintmask 000000000000000010000010000000000000000000000000
          -120 -9 rmoveto
          4 hlineto
          hintmask 000000000000000000100010000000000000000000000000
          19 -4 5 vlineto
          hintmask 000000000000000000001000000010000000000000000000
          13 -6 hlineto
          2 4 3 3 5 0 rrcurveto
          7 2 -5 -6 hvcurveto
          hintmask 000000000000000010000000000000010000000000000000
          -14 5 -5 vlineto
          hintmask 000000000001000000000000000010000000000000000000
          -17 5 3 hlineto
          hintmask 000000000000000000100000000010000000000000000000
          13 vlineto
          3 -1 3 -3 -3 -3 -3 -5 vhcurveto
          -11 3 -5 vlineto
          hintmask 000000000000000010000010000000000000000000000000
          -16 hlineto
          -71 5 rmoveto
          6 hlineto
          hintmask 000000000000000000010010000000000000000000000000
          31 -6 5 vlineto
          hintmask 000000000000000000001000001000000000000000000000
          38 hlineto
          hintmask 000000000000000000100000001000000000000000000000
          -15 -5 vlineto
          -2 8 -1 2 -6 0 rrcurveto
          -8 hlineto
          hintmask 000000000000000000010001000000000000000000000000
          -14 3 vlineto
          4 0 0 1 1 5 rrcurveto
          5 hlineto
          hintmask 000000000000000010000000100000000000000000000000
          -17 -5 vlineto
          -1 5 0 1 -4 0 rrcurveto
          -3 hlineto
          hintmask 000000000000000010000001000000000000000000000000
          -12 7 -5 vlineto
          hintmask 000000000000000010000010000000000000000000000000
          -23 hlineto
          hintmask 000000000000000001000000000000000100000000000000
          133 10 rmoveto
          5 hlineto
          3 -4 3 -3 3 0 3 0 1 2 0 1 rrcurveto
          hintmask 000000000000000000010000000000000100000000000000
          0 7 -18 -4 0 12 0 4 4 5 7 0 3 0 3 -1 2 -3 rrcurveto
          1 4 5 0 0 -10 -5 0 rlineto
          -3 4 -2 1 -3 0 -2 0 -2 -1 0 -2 rrcurveto
          hintmask 000000000001000000000000000000000000100000000000
          0 -5 18 2 0 -11 0 -5 -3 -4 -7 0 -5 0 -3 2 -2 2 rrcurveto
          -1 -3 -5 0 rlineto
          hintmask 000000000000000000010000000000000000100000000000
          38 38 rmoveto
          -5 5 hlineto
          hintmask 000000000000000000001000000000000000000100000000
          14 hlineto
          hintmask 000000000000000000010000000000000000000100000000
          -20 vlineto
          1 4 4 3 4 0 rrcurveto
          hintmask 000000000010000000000000000000000000000010000000
          7 5 -6 -9 -7 -3 -9 -9 hvcurveto
          -6 0 -3 2 -2 4 rrcurveto
          -3 -6 -4 0 rlineto
          hintmask 100000000000000000001000000000000000000010000000
          39 -6 rmoveto
          3 3 2 4 hvcurveto
          -3 7 -9 18 0 0 rrcurveto
          -3 5 18 -5 -4 hlineto
          7 -15 6 15 -4 0 0 5 13 0 0 -5 -4 0 rlineto
          hintmask 000000000100000000000000000000000000000010000000
          -10 -24 rlineto
          -3 -7 -4 -5 -6 0 rrcurveto
          -6 -3 3 4 3 2 2 3 hvcurveto
          5 0 1 -5 -2 -2 rrcurveto
          hintmask 000000001000000000000000000000000000000000000000
          45 -24 rmoveto
          -6 -4 vlineto
          -2 -4 -2 -3 -3 -3 2 -2 2 -2 1 0 1 0 1 1 1 3 rrcurveto
          3 -1 rlineto
          -1 -5 -2 -4 -6 0 rrcurveto
          hintmask 100000000000000000000000000000000000000001000000
          -4 0 -2 2 -3 3 -3 -3 -4 -2 -6 0 -7 0 -5 4 0 6 0 6 4 3 6 2 -3 3 -2 3 0 4 rrcurveto
          hintmask 000000000000100000000000000000000000000000100000
          5 4 6 9 6 4 -4 -5 vhcurveto
          0 -5 -3 -2 -5 -3 2 -2 4 -5 3 -3 2 2 2 3 1 2 rrcurveto
          -5 6 hlineto
          hintmask 000000000010000000000000000000000010000000000000
          -114 4 rmoveto
          11 4 hlineto
          -3 -2 2 2 2 1 1 0 hvcurveto
          0 -1 1 -2 -2 -2 -2 -6 vhcurveto
          hintmask 100000000000000000000000000000000000000000010000
          132 -13 rmoveto
          hintmask 000010000000000000000000000000000000000000010000
          15 9 8 11 vhcurveto
          hintmask 000010000000000000000000000000000000000000000000
          5 0 4 -2 3 -3 rrcurveto
          4 6 -16 -6 vlineto
          hintmask 000000010000000000000000000000000000000000000000
          -3 9 -2 3 -6 0 rrcurveto
          -6 -4 -5 -12 hvcurveto
          hintmask 010000000000000000000000000000000000000000000000
          -11 4 -6 8 vhcurveto
          hintmask 000001000000000000000000000000000000000000000000
          6 0 3 6 1 6 rrcurveto
          6 hlineto
          hintmask 100000000000000000000000000000000000000000000000
          -1 -10 -6 -7 -11 0 rrcurveto
          -13 -8 7 14 hvcurveto
          hintmask 000000010000000000000000000000000000000000100000
          -29 4 rmoveto
          2 1 2 3 0 3 rrcurveto
          3 -2 2 -3 -2 -2 -1 -3 vhcurveto
          0 -2 2 -3 3 -3 rrcurveto
          hintmask 001000000000000000000000000000000000010000000000
          -68 -11 rmoveto
          40 callsubr
          hintmask 100000000000000000000000000000000000010000000000
          -1 -6 -4 -5 -8 0 rrcurveto
          -10 -6 6 9 hvcurveto
          hintmask 000000000001000000000000000000000000010000000000
          10 7 6 8 vhcurveto
          11 0 4 -7 -1 -10 rrcurveto
          hintmask 001000000000000000000000000001000000000000000000
          -89 hmoveto
          40 callsubr
          hintmask 100000000000000000000000000000001000000000000000
          -1 -6 -4 -5 -8 0 rrcurveto
          hintmask 100000000000000000000000010000000000000000000000
          -10 -6 6 9 hvcurveto
          hintmask 000000000001000000000000010000000000000000000000
          10 7 6 8 vhcurveto
          hintmask 000000000001000000000000000000001000000000000000
          11 0 4 -7 -1 -10 rrcurveto
          hintmask 001000000000000000000010000001000000000000000000
          -63 2 rmoveto
          38 callsubr
          252 hmoveto
          hintmask 001000000000000000000000000000000000000000000000
          9 7 6 9 9 7 -6 -9 vhcurveto
          hintmask 001000000000000000000010000001000000000000000000
          -9 -7 -7 -9 -9 -7 6 10 vhcurveto
          hintmask 000000100000000000000000000001000000010000000000
          -138 2 rmoveto
          10 hlineto
          6 -1 3 -4 vhcurveto
          -3 -2 -2 -7 hvcurveto
          -70 hmoveto
          10 hlineto
          6 -1 3 -4 -3 -2 -2 -7 vhcurveto
          hintmask 001000000000000000000000000100000000000000000000
          -22 -2 rmoveto
          39 callsubr
          hintmask 001000000000000000000000000000000000000000000000
          252 hmoveto
          39 callsubr
          hintmask 100000000000000000000000000000001000000000000000
          -208 -10 rmoveto
          4 hlineto
          hintmask 000000100000000000000000000000001000000000000000
          19 -5 5 5 1 vlineto
          hintmask 000000000000001000000000000000001000000000000000
          10 7 4 6 vhcurveto
          4 0 2 -1 2 -1 rrcurveto
          8 2 rlineto
          hintmask 001000000000000000000000000000000000100000000000
          -39 4 -5 vlineto
          hintmask 100000000000000000000000000000000010000000000000
          -17 5 4 hlineto
          hintmask 000000100000000000000000000000000010000000000000
          19 -11 vlineto
          hintmask 001000000000000000000000000000000010000000000000
          -19 4 -5 vlineto
          hintmask 100000000000000000000000000000001000000000000000
          -17 hlineto
          hintmask 100000000000000000000000000000000001000000000000
          69 5 rmoveto
          4 hlineto
          hintmask 000000100000000000000000000000000001000000000000
          19 -4 5 vlineto
          hintmask 000000000001000000000000000000000000000001000000
          13 -6 hlineto
          2 5 3 2 4 0 rrcurveto
          4 2 -2 -4 -3 -2 -2 -3 -2 -3 1 3 hvcurveto
          1 vlineto
          -1 0 -3 -3 -1 -4 rrcurveto
          hintmask 001000000000000000000000000000000000000001000000
          -12 6 -5 vlineto
          hintmask 100000000000000000000000000000000001000000000000
          -19 hlineto
          hintmask 100000000000000000000010000000000000000000000000
          -183 5 rmoveto
          6 hlineto
          hintmask 000000010000000000000010000000000000000000000000
          31 -6 5 vlineto
          hintmask 000000000000010000000001000000000000000000000000
          21 -5 -5 hlineto
          hintmask 000000010000000000000001000000000000000000000000
          -12 16 12 -5 5 vlineto
          hintmask 000000000000010000000000000100000000000000000000
          21 -5 -6 hlineto
          hintmask 001000000000000000000000000100000000000000000000
          -31 6 -5 vlineto
          hintmask 100000000000000000000001000000000000000000000000
          -21 5 5 hlineto
          hintmask 000100000000000000000001000000000000000000000000
          14 -16 vlineto
          hintmask 001000000000000000000001000000000000000000000000
          -14 5 -5 vlineto
          hintmask 100000000000000000000010000000000000000000000000
          -21 hlineto
          hintmask 001000000000000000000000000000000000000000100000
          234 7 rmoveto
          -2 2 -4 5 -4 4 -2 -2 -1 -2 0 -3 0 -4 3 -3 4 0 rrcurveto
          2 0 2 1 2 2 rrcurveto
          hintmask 100000000000000000000000000000000000000000000000
          111 -2 rmoveto
          -3 -2 -3 -4 -4 -2 3 3 3 2 3 4 vhcurveto
          4 2 -3 -3 hvcurveto
          endchar
        </CharString>
        <CharString name="hungarumlaut">
          560 225 hstem
          127 396 vstem
          127 586 rmoveto
          16 callsubr
          208 -2 rmoveto
          17 callsubr
          endchar
        </CharString>
        <CharString name="hyphen">
          277 72 hstem
          75 400 vstem
          75 277 rmoveto
          400 72 -400 hlineto
          endchar
        </CharString>
        <CharString name="i">
          0 62 367 61 79 136 hstemhm
          252 84.5 -81.5 81 hintmask 11110000
          332 569 rmoveto
          9 136 -86 0 -6 -136 rlineto
          265 -569 rmoveto
          6 62 rlineto
          hintmask 11101000
          -184 428 -258 hlineto
          -6 -57 183 -8 0 -363 -184 0 0 -62 rlineto
          endchar
        </CharString>
        <CharString name="iacute">
          0 62 367 61 hstem
          255 81 vstem
          191 594 rmoveto
          -25 callsubr
          323 -594 rmoveto
          0 callsubr
          endchar
        </CharString>
        <CharString name="ibreve">
          0 62 367 61 75 66 hstem
          255 81 vstem
          295 565 rmoveto
          7 callsubr
          219 -565 rmoveto
          0 callsubr
          endchar
        </CharString>
        <CharString name="icircumflex">
          0 62 367 61 hstem
          255 81 vstem
          423 560 rmoveto
          -19 callsubr
          224 -674 rmoveto
          0 callsubr
          endchar
        </CharString>
        <CharString name="idieresis">
          0 62 367 61 79 136 hstem
          146.5 82.5 26 81 30.5 82.5 vstem
          448 569 rmoveto
          -33 callsubr
          -138 hmoveto
          -33 callsubr
          368 -569 rmoveto
          6 62 rlineto
          -184 428 -258 hlineto
          -6 -57 183 -8 0 -363 -184 0 0 -62 rlineto
          endchar
        </CharString>
        <CharString name="igrave">
          0 62 367 61 211 -20 hstem
          255 81 vstem
          397 588 rmoveto
          -76 callsubr
          141 -552 rmoveto
          0 callsubr
          endchar
        </CharString>
        <CharString name="imacron">
          0 62 367 61 114 70 hstem
          255 81 vstem
          463 674 rmoveto
          -30 callsubr
          51 -604 rmoveto
          0 callsubr
          endchar
        </CharString>
        <CharString name="iogonek">
          0 62 367 61 79 136 hstemhm
          171 76 5 84.5 -81.5 81 hintmask 11101000
          332 569 rmoveto
          9 136 -86 0 -6 -136 rlineto
          115 -719 rmoveto
          hintmask 11110100
          -85 8 -32 17 0 26 0 23 20 28 65 48 rrcurveto
          182 0 6 62 rlineto
          hintmask 11100100
          -184 428 -258 hlineto
          -6 -57 183 -8 0 -363 rlineto
          hintmask 11110100
          -184 -62 189 hlineto
          -63 -46 -26 -37 0 -37 0 -50 50 -35 135 -11 rrcurveto
          endchar
        </CharString>
        <CharString name="j">
          -175 77 526.5 61.5 79 136 hstemhm
          293 83.5 -77.5 81 hintmask 11110000
          374 569 rmoveto
          5 136 -84 0 -4 -136 rlineto
          hintmask 11101000
          89 -520 rmoveto
          441 -290 vlineto
          -6 -57 215 -9 0 -391 rlineto
          0 -99 -32 -24 -218 -8 rrcurveto
          -2 -77 rlineto
          254 8 79 73 0 143 rrcurveto
          endchar
        </CharString>
        <CharString name="k">
          15 -21 27 -21 27 -21 213 60 207 -20 26 -20 227 -20 27 -20 hstemhm
          101 81 hintmask 1001010110000000
          428 -6 rmoveto
          hintmask 0011100110000000
          -66 callsubr
          hintmask 0011010110000000
          -65 callsubr
          hintmask 0101011010000000
          -64 callsubr
          endchar
        </CharString>
        <CharString name="kcommaaccent">
          15 -21 27 -21 27 -21 213 60 207 -20 26 -20 227 -20 27 -20 hstemhm
          101 81 76 82 hintmask 1001010111000000
          428 -6 rmoveto
          hintmask 0011100111000000
          -66 callsubr
          hintmask 0011010111000000
          -65 callsubr
          hintmask 0101011011000000
          -64 callsubr
          -21 -490 rmoveto
          13 callsubr
          endchar
        </CharString>
        <CharString name="l">
          0 62 578 -20 16.5 61.5 hstemhm
          237 82 hintmask 10110000
          472 hmoveto
          -63 callsubr
          hintmask 11010000
          -7 -58 rlineto
          hintmask 10110000
          -62 callsubr
          endchar
        </CharString>
        <CharString name="lacute">
          0 62 578 -20 16.5 61.5 hstemhm
          237 82 hintmask 10110000
          173 802 rmoveto
          -25 callsubr
          299 -802 rmoveto
          -63 callsubr
          hintmask 11010000
          -7 -58 rlineto
          hintmask 10110000
          -62 callsubr
          endchar
        </CharString>
        <CharString name="lcaron">
          0 62 578 -20 16.5 61.5 hstemhm
          237 82 142 78 hintmask 10111000
          434 565 rmoveto
          12 callsubr
          38 -565 rmoveto
          -63 callsubr
          hintmask 11011000
          -7 -58 rlineto
          hintmask 10111000
          -62 callsubr
          endchar
        </CharString>
        <CharString name="lcommaaccent">
          0 62 578 -20 16.5 61.5 hstemhm
          237 82 -75 82 hintmask 10110000
          472 hmoveto
          -63 callsubr
          hintmask 11010000
          -7 -58 rlineto
          hintmask 10110000
          -62 callsubr
          hintmask 10101000
          142 -264 rmoveto
          15 callsubr
          endchar
        </CharString>
        <CharString name="ldot">
          0 62 203 109 266 -20 16.5 61.5 hstemhm
          237 82 188 91.5 hintmask 11011100
          472 hmoveto
          -63 callsubr
          hintmask 11101100
          -7 -58 rlineto
          hintmask 11011100
          -62 callsubr
          518 265 rmoveto
          5 109 -91 0 -6 -109 rlineto
          endchar
        </CharString>
        <CharString name="less">
          530 -20 hstem
          62 72 vstem
          446 594 rmoveto
          -384 -237 0 -87 380 -237 45 61 -353 219 353 217 rlineto
          endchar
        </CharString>
        <CharString name="lessequal">
          15 69 hstem
          84 83 vstem
          167 358 rmoveto
          289 175 -34 61 -337 -211 -2 -65 346 -184 28 64 -290 152 rlineto
          308 -266 rmoveto
          -400 -69 400 hlineto
          endchar
        </CharString>
        <CharString name="lig.1">
          -11 68 296 67 216 63 hstemhm
          -454.66699 75.16699 -42.16699 75.16699 215.41699 70.58301 64.16699 75.16602 -42.16602 75.16602 215.41699 70.58301 hintmask 1110110110000000
          225.5 420 rmoveto
          -64.16699 -49.5 53 61 59 32.08398 43 65.08301 hvcurveto
          45.83301 0 30.25 -19 32.08398 -39 rrcurveto
          45.83301 46 rlineto
          -50.41699 61 -47.66602 14 -55 0 -107.25 0 -66 -77 0 -88 0 -43 12.83301 -42 35.75 -29 rrcurveto
          -318.08301 hlineto
          -64.16699 -49.5 53 61 59 32.08301 43 65.08398 hvcurveto
          45.83301 0 30.25 -19 32.08301 -39 rrcurveto
          45.83398 46 rlineto
          -50.41699 61 -47.66699 14 -55 0 -107.25 0 -66 -77 0 -88 0 -62 27.5 -61 82.5 -21 rrcurveto
          -3 vlineto
          hintmask 1111011010000000
          -91.66602 -21 -51.33398 -68 0 -103 0 -103 61.41699 -103 143 0 105.41699 0 56.83301 54 27.5 38 rrcurveto
          272 132 vlineto
          -44 -34 -23.83301 -54 0 -70 0 -103 61.41602 -103 143 0 105.41699 0 56.83301 54 27.5 38 rrcurveto
          272 82.5 67 vlineto
          -611.41602 -311 rmoveto
          -24.75 -34 -42.16699 -18 -50.41699 0 rrcurveto
          -92.58301 -38.5 68 73 71 40.33301 84 94.41699 hvcurveto
          113.66699 hlineto
          458.33301 -244 rmoveto
          -24.75 -34 -42.16699 -18 -50.41602 0 rrcurveto
          -92.58398 -38.5 68 73 71 40.33398 84 94.41602 hvcurveto
          113.66699 hlineto
          endchar
        </CharString>
        <CharString name="lig.10">
          34.83301 -103 rmoveto
          45 callsubr
          -253 675 rmoveto
          46 callsubr
          endchar
        </CharString>
        <CharString name="lig.100">
          26 -21 626 -20 hstemhm
          -314.41699 81.58398 -71.5 61.41602 hintmask 11100000
          -314.41699 631 rmoveto
          hintmask 11010000
          10.08398 -261 -223.66699 89 -27.5 -85 231.91699 -68 -139.33398 -197 68.75 -52 121.91699 210 135.66699 -216 66.91602 56 -152.16602 199 227.33301 69 -22.91699 84 -225.5 -88 rlineto
          hintmask 11100000
          10.08398 260 rlineto
          -305.25 -12 rmoveto
          95 callsubr
          527.08301 89 rmoveto
          96 callsubr
          endchar
        </CharString>
        <CharString name="lig.101">
          -292.41699 69.66699 296.08301 69.66699 vstem
          -292.41699 712 rmoveto
          -528.91602 -356 0 -86 528.91602 -359 69.66699 0 0 801 rlineto
          296.08301 hmoveto
          97 callsubr
          -435.41699 -711 rmoveto
          -462.91602 312 462.91602 310 rlineto
          endchar
        </CharString>
        <CharString name="lig.102">
          5 -21 657 -20 hstem
          -309.83301 68.75 vstem
          -241.08301 724 rmoveto
          -68.75 -826 68.75 hlineto
          -174.16699 743 rmoveto
          -420.75 -284 0 -87 420.75 -286 0 90 -354.75 239 354.75 239 rlineto
          279.58301 89 rmoveto
          0 -89 356.58398 -239 -356.58398 -240 0 -90 422.58398 287 0 86 rlineto
          endchar
        </CharString>
        <CharString name="lig.103">
          -57 77 616 66 hstem
          -462.91699 81.58398 86.16602 62.33398 115.5 83.41602 vstem
          -11 619 rmoveto
          -62.33301 44 -87.08398 31 -72.41602 8 rrcurveto
          146 -62.33398 -145 vlineto
          -112.75 -12 -55 -83 0 -80 0 -93 60.5 -59 107.25 -39 rrcurveto
          -317 vlineto
          -60.5 -4 -47.66602 8 -107.25 70 rrcurveto
          -323.58398 219 272.25 181 13.75 100 -352 -237 0 -87 389.58398 -265 rlineto
          90.75 -53 44.91602 -12 79.75 3 rrcurveto
          -96 62.33398 98 vlineto
          113.66602 18 85.25 88 0 126 0 124 -107.25 67 -91.66602 33 rrcurveto
          235 vlineto
          45.83301 -6 66 -23 110 -77 rrcurveto
          323.58301 -217 -253 -168 -20.16602 -108 339.16602 233 0 86 rlineto
          -673.75 67 rmoveto
          -66.91602 29 -19.25 30 0 47 0 57 36.66602 39 49.5 9 rrcurveto
          177.83398 -457 rmoveto
          56 callsubr
          endchar
        </CharString>
        <CharString name="lig.104">
          27 -21 174 72 118 72 hstem
          433.58301 370 rmoveto
          72 -1275.08301 vlineto
          27.5 18 15.58301 17 13.75 17 rrcurveto
          57.75 68 -57.75 54 -248.41602 -305 248.41602 -305 57.75 54 -57.75 69 rlineto
          -13.75 17 -15.58301 16 -27.5 18 rrcurveto
          1275.08301 72 -1321.83301 hlineto
          -48.58301 59 48.58301 59 rlineto
          endchar
        </CharString>
        <CharString name="lig.105">
          27 -21 174 72 118 72 hstem
          234.66699 616 rmoveto
          -57.75 -54 57.75 -68 rlineto
          13.75 -17 15.58301 -17 27.5 -18 rrcurveto
          -1133 hlineto
          27.5 18 15.58301 17 13.75 17 rrcurveto
          57.75 68 -57.75 54 -248.41602 -305 248.41602 -305 57.75 54 -57.75 69 rlineto
          -13.75 17 -15.58301 16 -27.5 18 rrcurveto
          1133 hlineto
          -27.5 -18 -15.58301 -16 -13.75 -17 rrcurveto
          -57.75 -69 57.75 -54 248.41602 305 rlineto
          -1371.33301 -59 rmoveto
          -48.58301 59 48.58301 59 1226.5 0 48.58301 -59 -48.58301 -59 rlineto
          endchar
        </CharString>
        <CharString name="lig.106">
          27 -21 174 72 118 72 hstem
          -842.41699 252 rmoveto
          -48.58301 59 48.58301 59 1101.83398 0 160.41602 192 -57.75 54 -141.16602 -174 -1016.58398 0 rlineto
          27.5 18 15.58398 17 13.75 17 rrcurveto
          57.75 68 -57.75 54 -248.41699 -305 248.41699 -305 57.75 54 -57.75 69 rlineto
          -13.75 17 -15.58398 16 -27.5 18 rrcurveto
          1016.58398 0 141.16602 -174 57.75 54 -160.41602 192 rlineto
          endchar
        </CharString>
        <CharString name="lig.107">
          276 74 268 -20 hstem
          188.83301 618 rmoveto
          -57.75 -54 131.08398 -156 rlineto
          25.66602 -31 6.41699 -9 26.58301 -18 rrcurveto
          -1191.66602 hlineto
          26.58301 18 6.41699 9 25.66602 31 rrcurveto
          131.08398 156 -57.75 54 -248.41699 -305 248.41699 -305 57.75 54 -131.08398 156 rlineto
          -18.33301 22 -18.33301 20 -22 16 rrcurveto
          1191.66602 hlineto
          -22 -16 -18.33301 -20 -18.33301 -22 rrcurveto
          -131.08398 -156 57.75 -54 248.41699 305 rlineto
          endchar
        </CharString>
        <CharString name="lig.108">
          276 74 268 -20 hstem
          -738.83301 618 rmoveto
          -248.41699 -305 248.41699 -305 57.75 54 -131.08398 156 rlineto
          -18.33301 22 -18.33301 20 -22 16 rrcurveto
          1306.25 74 -1306.25 hlineto
          26.58301 18 6.41699 9 25.66602 31 rrcurveto
          131.08398 156 rlineto
          endchar
        </CharString>
        <CharString name="lig.109">
          276 74 268 -20 hstem
          418.91699 564 rmoveto
          -57.75 54 -218.16699 -268 -1028.5 0 rlineto
          25.66699 18 7.33301 9 25.66699 31 rrcurveto
          137.5 163 -50.41699 47 -249.33301 -305 249.33301 -305 50.41699 47 -137.5 163 rlineto
          -18.33398 22 -18.33301 20 -22 16 rrcurveto
          1028.5 0 218.16699 -268 57.75 54 -209.91699 251 rlineto
          endchar
        </CharString>
        <CharString name="lig.11">
          -199.83301 68.75 261.25 68.75 vstem
          -131.08301 807 rmoveto
          47 callsubr
          330 909 rmoveto
          47 callsubr
          endchar
        </CharString>
        <CharString name="lig.110">
          27 -21 174 72 118 72 hstem
          -681.08301 562 rmoveto
          93 callsubr
          1324.58301 59 rmoveto
          72 -997.33301 vlineto
          27.5 18 15.58301 17 13.75 17 rrcurveto
          57.75 68 -57.75 54 -248.41602 -305 248.41602 -305 57.75 54 -57.75 69 rlineto
          -13.75 17 -15.58301 16 -27.5 18 rrcurveto
          997.33301 72 -1044.08301 hlineto
          -48.58301 59 48.58301 59 rlineto
          endchar
        </CharString>
        <CharString name="lig.111">
          276 74 268 -20 hstem
          -738.83301 618 rmoveto
          91 callsubr
          220.91602 54 rmoveto
          -249.33301 -305 249.33301 -305 56.83398 54 -131.08398 156 rlineto
          -17.41602 22 -18.33398 20 -22.91602 16 rrcurveto
          1028.5 74 -1027.58398 hlineto
          25.66699 18 7.33301 9 24.75 31 rrcurveto
          131.08398 156 rlineto
          endchar
        </CharString>
        <CharString name="lig.112">
          -523.41699 582 rmoveto
          69 callsubr
          428.08398 65 rmoveto
          68 callsubr
          428.08301 65 rmoveto
          68 callsubr
          endchar
        </CharString>
        <CharString name="lig.113">
          26 -21 271 70 273 -20 hstem
          -311.66699 71.5 vstem
          -538.08301 619 rmoveto
          95 callsubr
          527.08301 89 rmoveto
          96 callsubr
          -618.75 239 rmoveto
          -71.5 -249 -223.66602 -70 223.66602 -249 71.5 249 225.5 70 -225.5 hlineto
          endchar
        </CharString>
        <CharString name="lig.114">
          -93.5 675 rmoveto
          44.91699 102 -61.41699 32 -343.75 -772 -407.91699 276 323.58398 217 -37.58398 64 -352 -237 0 -87 443.66699 -301 -38.5 -87 62.33301 -30 336.41699 755 436.33301 -294 -323.58301 -218 41.25 -62 rlineto
          348.33301 237 0 86 rlineto
          endchar
        </CharString>
        <CharString name="lig.115">
          21 -21 170 64 222 66 hstem
          501.41699 456 rmoveto
          66 -73.33398 vlineto
          21.08398 167 -65.08398 0 -21.08301 -167 -133.83301 0 21.08301 167 -65.08301 0 -21.08398 -167 -286 0 21.08398 167 -65.08398 0 -21.08301 -167 -133.83301 0 21.08301 167 -65.08301 0 -21.08398 -167 rlineto
          -286 0 21.08398 167 -65.08398 0 -21.08301 -167 -133.83301 0 21.08301 167 -65.08301 0 -21.08398 -167 -81.58301 0 0 -66 74.25 0 -28.41699 -222 -79.75 0 0 -64 72.41699 0 rlineto
          -20.16699 -170 65.08398 0 21.08301 170 132.91699 0 -20.16699 -170 65.08301 0 19.25 170 286.91699 0 -20.16699 -170 65.08398 0 21.08301 170 132.91699 0 -20.16699 -170 65.08301 0 19.25 170 rlineto
          286.91699 0 -20.16699 -170 65.08398 0 21.08301 170 132.91699 0 -20.16699 -170 65.08301 0 19.25 170 83.41699 0 0 64 -74.25 0 26.58301 222 rlineto
          -1192.58301 -222 rmoveto
          49 callsubr
          322.66602 -222 rmoveto
          74 callsubr
          170.5 -222 rmoveto
          49 callsubr
          322.66602 -222 rmoveto
          74 callsubr
          170.5 -222 rmoveto
          49 callsubr
          endchar
        </CharString>
        <CharString name="lig.116">
          -182 74 129 -21 170 64 222 66 hstem
          114.58301 80.66699 vstem
          429.91699 -139 rmoveto
          -134.75 120 -106.33398 148 6.41699 221 6.41699 210 56.83301 106 132 128 rrcurveto
          -39.41699 46 rlineto
          -149.41602 -133 -89.83398 -129 2.75 -228 1.83398 -209 83.41602 -140 111.83398 -109 rrcurveto
          -1003.75 0 31.16602 278 83.41699 0 0 64 -74.25 0 26.58301 222 81.58398 0 0 66 -73.33398 0 21.08398 167 -65.08398 0 -21.08301 -167 -133.83301 0 21.08301 167 -65.08301 0 rlineto
          -21.08398 -167 -81.58301 0 0 -66 74.25 0 -28.41699 -222 -79.75 0 0 -64 72.41699 0 -20.16699 -170 65.08398 0 21.08301 170 132.91699 0 -41.25 -352 1160.5 1 0 1 rlineto
          0.91602 -1 rlineto
          -1245.75 415 rmoveto
          75 callsubr
          endchar
        </CharString>
        <CharString name="lig.117">
          180 72 -65 243 -60 72 hstemhm
          -936.83301 223.66602 188.83398 223.66602 hintmask 00111000
          452.83301 442 rmoveto
          -550 -72 550 hlineto
          hintmask 01011000
          -1277.83301 -183 rmoveto
          64.16699 47.66602 51 70 70 -47.66602 52 -64.16699 -64.16699 -47.66602 -51 -70 hvcurveto
          -70 47.66602 -52 64.16699 vhcurveto
          412.5 hmoveto
          64.16699 47.66602 51 70 70 -47.66602 52 -64.16699 -64.16699 -47.66602 -51 -70 -70 47.66602 -52 64.16699 hvcurveto
          hintmask 10011000
          865.33301 65 rmoveto
          -550 -72 550 hlineto
          endchar
        </CharString>
        <CharString name="lig.118">
          -11 176 hstem
          -732.41699 161.33398 168.66602 161.33398 vstem
          249.33301 594 rmoveto
          94 callsubr
          -1019.33398 -453 rmoveto
          98 callsubr
          330 hmoveto
          98 callsubr
          endchar
        </CharString>
        <CharString name="lig.119">
          -11 176 hstem
          -722.33301 161.33301 205.33301 161.33398 205.33301 161.33301 vstem
          cntrmask 01110000
          -722.33301 77 rmoveto
          77 callsubr
          366.66602 hmoveto
          98 callsubr
          366.66699 hmoveto
          -50 34.83301 -38 45.83398 46.75 33.91602 38 50 49 -33.91602 39 -46.75 -45.83398 -34.83301 -39 -49 vhcurveto
          endchar
        </CharString>
        <CharString name="lig.12">
          -138 66 388 68 388 66 hstem
          -267.66699 68.75 417.08398 71.5 vstem
          cntrmask 11100000
          -267.66699 838 rmoveto
          -976 68.75 976 vlineto
          320.83398 hmoveto
          -253 -66 253 hlineto
          66.91602 29.33398 -16 -61 hvcurveto
          -211 vlineto
          0 -84 22.91602 -37 62.33398 -13 -64.16699 -13 -21.08301 -33 0 -88 rrcurveto
          -208 vlineto
          -63 -28.41699 -17 -67.83301 vhcurveto
          -253 -66 253 hlineto
          102.66602 65.08398 33 123 hvcurveto
          192 vlineto
          69 15.58301 37 122.83301 vhcurveto
          68 vlineto
          -122.83301 -15.58301 36 68 hvcurveto
          -0.91699 199 rlineto
          -0.91699 124 -63.25 27 -102.66602 0 rrcurveto
          endchar
        </CharString>
        <CharString name="lig.120">
          276 70 hstem
          -770 71.5 386.83301 71.5 386.83398 71.5 vstem
          -240.16699 276 rmoveto
          386.83398 -199 71.5 199 179.66602 70 -179.66602 199 -71.5 -199 -386.83398 199 -71.5 -199 -386.83301 hlineto
          199 -71.5 -199 -177.83301 -70 177.83301 -199 71.5 199 386.83301 -199 71.5 vlineto
          endchar
        </CharString>
        <CharString name="lig.121">
          180 72 118 72 hstem
          -943.25 -103 rmoveto
          82 callsubr
          862.58301 515 rmoveto
          83 callsubr
          595.83301 72 rmoveto
          -528 -72 528 hlineto
          -595.83301 -118 rmoveto
          84 callsubr
          595.83301 72 rmoveto
          -528 -72 528 hlineto
          endchar
        </CharString>
        <CharString name="lig.122">
          -897.41699 -103 rmoveto
          45 callsubr
          520.66699 -30 rmoveto
          390.5 880 -61.41699 32 -391.41699 -882 rlineto
          520.66699 -30 rmoveto
          82 callsubr
          endchar
        </CharString>
        <CharString name="lig.123">
          -182 74 hstem
          -309.83301 68.75 vstem
          -241.08301 -108 rmoveto
          832 -68.75 -832 -606.83398 -74 1283.33398 74 vlineto
          endchar
        </CharString>
        <CharString name="lig.124">
          -11 134 hstemhm
          -841.5 122.83301 -105.41602 86.16602 -77 68.75 408.83398 122.83301 -105.41699 86.16699 -77 68.75 410.66699 122.83301 hintmask 10100001
          -737.91699 689 rmoveto
          -86.16602 0 rlineto
          hintmask 10010001
          9.16602 -462 68.75 0 rlineto
          hintmask 10000101
          512.41699 462 rmoveto
          58 callsubr
          hintmask 10000011
          59 callsubr
          -538.08301 -104 rmoveto
          hintmask 11000001
          79 callsubr
          504.16602 hmoveto
          hintmask 10001001
          60 callsubr
          505.08398 hmoveto
          -34.83398 -25.66602 -30 -37 -38 25.66602 -29 34.83398 35.75 26.58301 29 38 37 -26.58301 30 -35.75 hvcurveto
          endchar
        </CharString>
        <CharString name="lig.125">
          21 -21 hstem
          -1010.16699 78.83398 1316.33301 75.16699 vstem
          385 527 rmoveto
          -61.41699 -475 -72.41602 408 -90.75 0 -87.08398 -408 -64.16602 408 -92.58398 0 -71.5 -408 -69.66602 408 -91.66699 0 -75.16699 -408 -71.5 408 -92.58301 0 -75.16699 -408 -71.5 408 -90.75 0 rlineto
          -77 -408 -61.41602 475 -78.83398 0 88 -527 106.33398 0 66.91602 386 61.41699 -386 113.66699 0 63.25 386 62.33301 -386 110 0 66 386 60.5 -386 113.66699 0 59.58301 386 rlineto
          55.91699 -386 110.91602 0 76.08398 386 62.33301 -386 109.08301 0 84.33398 527 rlineto
          endchar
        </CharString>
        <CharString name="lig.126">
          -1198.08301 69.66602 352 69.66699 333.66699 69.66602 vstem
          -1128.41699 712 rmoveto
          -69.66602 -801 69.66602 hlineto
          421.66699 801 rmoveto
          85 callsubr
          403.33301 801 rmoveto
          -69.66602 -801 69.66602 hlineto
          528.91699 359 0 86 rlineto
          -528.91699 -355 rmoveto
          48 callsubr
          endchar
        </CharString>
        <CharString name="lig.127">
          -796.58301 69.66602 333.66699 69.66699 352 69.66602 vstem
          -796.58301 712 rmoveto
          -528.91699 -356 0 -86 528.91699 -359 69.66602 0 0 801 rlineto
          333.66699 hmoveto
          97 callsubr
          352 hmoveto
          -801 69.66602 801 vlineto
          -894.66602 -711 rmoveto
          65 callsubr
          endchar
        </CharString>
        <CharString name="lig.128">
          -11 134 154 72 269 -20 hstemhm
          -1162.33301 122.83301 -105.41699 86.16699 -77 68.75 hintmask 11101000
          -1058.75 689 rmoveto
          58 callsubr
          hintmask 11100100
          59 callsubr
          -313.5 391 rmoveto
          -248.41699 -305 248.41699 -305 57.75 54 -131.08301 156 rlineto
          -18.33398 22 -18.33301 20 -22 16 rrcurveto
          276.83301 74 -276.83301 hlineto
          26.58301 18 6.41699 9 25.66699 31 rrcurveto
          131.08301 156 rlineto
          365.75 -287 rmoveto
          1392.41699 72 -1392.41699 hlineto
          -143.91699 -226 rmoveto
          hintmask 11110000
          60 callsubr
          endchar
        </CharString>
        <CharString name="lig.129">
          21 -21 170 64 222 66 hstem
          501.41699 456 rmoveto
          66 -73.33398 vlineto
          21.08398 167 -65.08398 0 -21.08301 -167 -133.83301 0 21.08301 167 -65.08301 0 -21.08398 -167 -286 0 21.08398 167 -65.08398 0 -21.08301 -167 -133.83301 0 21.08301 167 -65.08301 0 -21.08398 -167 rlineto
          -286 0 21.08398 167 -65.08398 0 -21.08301 -167 -133.83301 0 21.08301 167 -65.08301 0 -21.08398 -167 -286 0 21.08398 167 -65.08398 0 -21.08301 -167 -133.83301 0 21.08301 167 -65.08301 0 rlineto
          -21.08398 -167 -81.58301 0 0 -66 74.25 0 -28.41699 -222 -79.75 0 0 -64 72.41699 0 -20.16699 -170 65.08398 0 21.08301 170 132.91699 0 -20.16699 -170 65.08301 0 19.25 170 rlineto
          286.91699 0 -20.16699 -170 65.08398 0 21.08301 170 132.91699 0 -20.16699 -170 65.08301 0 19.25 170 286.91699 0 -20.16699 -170 65.08398 0 21.08301 170 132.91699 0 -20.16699 -170 65.08301 0 rlineto
          19.25 170 286.91699 0 -20.16699 -170 65.08398 0 21.08301 170 132.91699 0 -20.16699 -170 65.08301 0 19.25 170 83.41699 0 0 64 -74.25 0 26.58301 222 rlineto
          -1742.58301 -222 rmoveto
          49 callsubr
          322.66602 -222 rmoveto
          74 callsubr
          170.5 -222 rmoveto
          49 callsubr
          322.66602 -222 rmoveto
          74 callsubr
          170.5 -222 rmoveto
          49 callsubr
          322.66602 -222 rmoveto
          74 callsubr
          170.5 -222 rmoveto
          49 callsubr
          endchar
        </CharString>
        <CharString name="lig.13">
          -115 71 787 72 hstem
          -267.66699 68.75 415.25 73.33398 vstem
          -267.66699 815 rmoveto
          -930 68.75 930 vlineto
          488.58398 -930 rmoveto
          930 -419.83398 -72 346.5 -787 -346.5 -71 vlineto
          endchar
        </CharString>
        <CharString name="lig.130">
          27 -21 174 72 118 72 hstem
          234.66699 616 rmoveto
          -57.75 -54 57.75 -68 rlineto
          13.75 -17 15.58301 -17 27.5 -18 rrcurveto
          -1683 hlineto
          27.5 18 15.58301 17 13.75 17 rrcurveto
          57.75 68 -57.75 54 -248.41602 -305 248.41602 -305 57.75 54 -57.75 69 rlineto
          -13.75 17 -15.58301 16 -27.5 18 rrcurveto
          1683 hlineto
          -27.5 -18 -15.58301 -16 -13.75 -17 rrcurveto
          -57.75 -69 57.75 -54 248.41602 305 rlineto
          -1921.33301 -59 rmoveto
          -48.58301 59 48.58301 59 1776.5 0 48.58301 -59 -48.58301 -59 rlineto
          endchar
        </CharString>
        <CharString name="lig.14">
          180 72 118 72 hstem
          -309.83301 68.75 vstem
          361.16699 370 rmoveto
          72 -602.25 282 -68.75 -826 68.75 282 602.25 72 -602.25 118 vlineto
          endchar
        </CharString>
        <CharString name="lig.15">
          -281.41699 69.66699 vstem
          -211.75 712 rmoveto
          -69.66699 -801 69.66699 hlineto
          528.91699 359 0 86 rlineto
          -528.91699 -355 rmoveto
          48 callsubr
          endchar
        </CharString>
        <CharString name="lig.16">
          277 72 hstem
          -309.83301 68.75 vstem
          360.25 349 rmoveto
          -601.33301 375 -68.75 -826 68.75 379 601.33301 hlineto
          endchar
        </CharString>
        <CharString name="lig.17">
          -138 66 388 68 388 66 hstem
          -289.66699 71.5 417.08398 68.75 vstem
          cntrmask 11100000
          -121.91699 838 rmoveto
          -102.66602 0 -63.25 -27 -0.91699 -124 rrcurveto
          -0.91699 -199 rlineto
          -68 -15.58301 -36 -122.83301 vhcurveto
          -68 vlineto
          122.83301 15.58301 -37 -69 hvcurveto
          -192 vlineto
          -123 65.08398 -33 102.66602 vhcurveto
          253 66 -253 hlineto
          -67.83301 -28.41699 17 63 hvcurveto
          208 vlineto
          0 88 -21.08301 33 -64.16699 13 62.33398 13 22.91602 37 0 84 rrcurveto
          211 vlineto
          61 29.33398 16 66.91602 vhcurveto
          253 66 hlineto
          136.58398 hmoveto
          -68.75 -976 68.75 hlineto
          endchar
        </CharString>
        <CharString name="lig.18">
          -115 71 787 72 hstem
          -289.66699 73.33398 415.25 68.75 vstem
          -289.66699 -115 rmoveto
          419.83398 71 -346.5 787 346.5 72 -419.83398 hlineto
          557.33398 hmoveto
          -68.75 -930 68.75 hlineto
          endchar
        </CharString>
        <CharString name="lig.19">
          -115 71 65 -21 170 64 222 66 221 72 hstemhm
          -398.75 230.08301 -73.33301 73.33301 hintmask 11111010
          446.41699 456 rmoveto
          66 -73.33398 vlineto
          21.08398 167 -65.08398 0 -21.08301 -167 -133.83301 0 21.08301 167 -65.08301 0 -21.08398 -167 -277.75 0 rlineto
          hintmask 11111100
          293 -230.08301 -72 vlineto
          hintmask 11111010
          156.75 -787 hlineto
          hintmask 11111100
          -156.75 -71 230.08301 hlineto
          hintmask 11111010
          285 234.66699 vlineto
          -20.16699 -170 65.08398 0 21.08301 170 132.91699 0 -20.16699 -170 65.08301 0 19.25 170 83.41699 0 0 64 -74.25 0 26.58301 222 rlineto
          -291.5 -222 rmoveto
          -242 222 270.41699 hlineto
          170.5 -222 rmoveto
          49 callsubr
          endchar
        </CharString>
        <CharString name="lig.2">
          180 72 118 72 hstem
          -18.33301 442 rmoveto
          -176.91699 318 -67.83301 0 -173.25 -313 82.5 0 123.75 237 165 -314 472.08301 0 0 72 rlineto
          -472.08301 -262 rmoveto
          472.08301 72 -472.08301 hlineto
          endchar
        </CharString>
        <CharString name="lig.20">
          -11 162 198 162 hstem
          -257.58301 147.58301 219.08301 147.58398 vstem
          -257.58301 431 rmoveto
          -45 31.16602 -37 42.16699 43.08301 31.16699 37 45 44 -31.16699 36 -43.08301 -42.16699 -31.16602 -36 -44 vhcurveto
          366.66602 hmoveto
          50 callsubr
          -366.66602 -361 rmoveto
          -46 31.16602 -35 42.16699 43.08301 31.16699 35 46 44 -31.16699 37 -43.08301 -42.16699 -31.16602 -37 -44 vhcurveto
          366.66602 hmoveto
          51 callsubr
          endchar
        </CharString>
        <CharString name="lig.21">
          107 162 -89 72 100 162 -144 72 hstemhm
          -352 148.5 hintmask 00101000
          -352 434 rmoveto
          -45 32.08301 -37 41.25 43.08398 32.08301 37 45 45 -32.08301 35 -43.08398 vhcurveto
          -41.25 -32.08301 -35 -45 hvcurveto
          hintmask 00011000
          804.83301 8 rmoveto
          52 callsubr
          -804.83301 -182 rmoveto
          hintmask 10001000
          -46 32.08301 -35 41.25 43.08398 32.08301 35 46 44 -32.08301 37 -43.08398 -41.25 -32.08301 -37 -44 vhcurveto
          hintmask 01001000
          804.83301 64 rmoveto
          52 callsubr
          endchar
        </CharString>
        <CharString name="lig.22">
          47 162 198 162 hstem
          -371.25 147.58301 vstem
          10.08301 598 rmoveto
          0 -81 363 -204 -363 -204 0 -81 435.41699 242 0 85 rlineto
          -816.75 134 rmoveto
          53 callsubr
          -361 vmoveto
          54 callsubr
          endchar
        </CharString>
        <CharString name="lig.23">
          -57 77 616 66 hstem
          -371.25 81.58301 86.16699 62.33301 115.5 83.41699 vstem
          80.66699 619 rmoveto
          -62.33398 44 -87.08301 31 -72.41699 8 rrcurveto
          146 -62.33301 -145 vlineto
          -112.75 -12 -55 -83 0 -80 0 -93 60.5 -59 107.25 -39 rrcurveto
          -317 vlineto
          -60.5 -4 -47.66699 8 -107.25 70 rrcurveto
          -89 vlineto
          90.75 -53 44.91699 -12 79.75 3 rrcurveto
          -96 62.33301 98 vlineto
          113.66699 18 85.25 88 0 126 0 124 -107.25 67 -91.66699 33 rrcurveto
          235 vlineto
          45.83398 -6 66 -23 110 -77 rrcurveto
          323.58301 -217 -253 -168 -20.16699 -108 339.16699 233 0 86 rlineto
          -673.75 67 rmoveto
          55 callsubr
          177.83301 -457 rmoveto
          56 callsubr
          endchar
        </CharString>
        <CharString name="lig.24">
          180 72 118 72 hstem
          452.83301 442 rmoveto
          57 callsubr
          -118 vmoveto
          57 callsubr
          endchar
        </CharString>
        <CharString name="lig.25">
          27 -21 174 72 118 72 hstem
          234.66699 616 rmoveto
          -57.75 -54 57.75 -68 rlineto
          13.75 -17 15.58301 -17 27.5 -18 rrcurveto
          -725.08301 -72 771.83301 hlineto
          48.58301 -59 -48.58301 -59 -771.83301 0 0 -72 725.08301 0 rlineto
          -27.5 -18 -15.58301 -16 -13.75 -17 rrcurveto
          -57.75 -69 57.75 -54 248.41602 305 rlineto
          endchar
        </CharString>
        <CharString name="lig.26">
          -1 -21 202 72 118 72 hstem
          452.83301 370 rmoveto
          72 -344.66602 vlineto
          98.08301 180 -59.58301 33 -117.33398 -213 -482.16602 0 0 -72 442.75 0 -64.16699 -118 -378.58301 0 0 -72 339.16602 0 -92.58301 -168 61.41699 -34 110 202 487.66602 0 0 72 rlineto
          -448.25 0 64.16699 118 rlineto
          endchar
        </CharString>
        <CharString name="lig.27">
          -11 134 hstemhm
          -227.33301 122.83301 -105.41699 86.16699 -77 68.75 234.66699 122.83301 -105.41699 86.16699 -77 68.75 hintmask 10100000
          -123.75 689 rmoveto
          58 callsubr
          hintmask 10010000
          59 callsubr
          hintmask 10000100
          338.25 462 rmoveto
          58 callsubr
          hintmask 10000010
          59 callsubr
          -363.91699 -104 rmoveto
          hintmask 11000000
          60 callsubr
          330 hmoveto
          hintmask 10001000
          60 callsubr
          endchar
        </CharString>
        <CharString name="lig.28">
          -237.41699 117 rmoveto
          503.25 244 0 80 -503.25 244 -27.5 -68 451 -216 -451 -216 rlineto
          519.75 9 rmoveto
          -502.33301 -241 27.5 -68 502.33301 244 rlineto
          endchar
        </CharString>
        <CharString name="lig.29">
          -439.08301 582 rmoveto
          61 callsubr
          53.16699 227 rmoveto
          62 callsubr
          endchar
        </CharString>
        <CharString name="lig.3">
          228 73 27 73 hstem
          355.66699 386 rmoveto
          41 callsubr
          endchar
        </CharString>
        <CharString name="lig.30">
          277 72 269 -20 hstem
          435.41699 349 rmoveto
          -596.75 0 -219.08398 269 -57.75 -54 209.91699 -251 -209.91699 -251 57.75 -54 219.08398 269 596.75 0 rlineto
          endchar
        </CharString>
        <CharString name="lig.31">
          228 73 -24 72 -21 73 hstemhm
          hintmask 10100000
          382.25 386 rmoveto
          -23.83301 -48 -29.33398 -37 -37.58301 0 -55.91699 0 -29.33301 100 -91.66699 0 rrcurveto
          hintmask 01000000
          -75.16602 0 -4.58398 -51 -73.33301 -1 rrcurveto
          -396.91699 -72 411.58398 hlineto
          hintmask 10100000
          68.75 0 9.16602 51 57.75 0 58.66699 0 32.08301 -100 86.16699 0 80.66699 0 40.33301 69 27.5 57 rrcurveto
          endchar
        </CharString>
        <CharString name="lig.32">
          277 72 hstem
          241.08301 68.75 vstem
          241.08301 724 rmoveto
          -375 -601.33301 -72 601.33301 -379 68.75 826 vlineto
          endchar
        </CharString>
        <CharString name="lig.33">
          276 74 268 -20 hstem
          188.83301 618 rmoveto
          -57.75 -54 131.08398 -156 rlineto
          25.66602 -31 6.41699 -9 26.58301 -18 rrcurveto
          -756.25 -74 756.25 hlineto
          -22 -16 -18.33301 -20 -18.33301 -22 rrcurveto
          -131.08398 -156 57.75 -54 248.41699 305 rlineto
          endchar
        </CharString>
        <CharString name="lig.34">
          277 72 hstem
          -388.66699 277 rmoveto
          63 callsubr
          429 -72 rmoveto
          63 callsubr
          endchar
        </CharString>
        <CharString name="lig.35">
          277 72 269 -20 hstem
          438.16699 564 rmoveto
          -57.75 54 -219.08398 -269 -596.75 0 0 -72 596.75 0 219.08398 -269 57.75 54 -209.91699 251 rlineto
          endchar
        </CharString>
        <CharString name="lig.36">
          229 72 28 78 211 -20 hstem
          235.58301 401 rmoveto
          -105.41602 0 -15.58398 -100 -62.33301 0 -62.33301 0 -15.58398 106 -105.41602 0 -103.58398 0 -1.83301 -72 -76.08301 -8 rrcurveto
          23 vlineto
          22 16 18.33301 20 18.33301 22 rrcurveto
          131.08398 156 -57.75 54 -248.41699 -305 248.41699 -305 57.75 54 -131.08398 156 rlineto
          -10.08301 13 -7.33301 9 -7.33398 7 77.91699 13 14.66699 69 55 0 62.33301 0 15.58301 -100 105.41699 0 105.41699 0 15.58301 100 62.33301 0 33.91699 0 33.91699 -36 21.08301 -46 rrcurveto
          65.08301 35 rlineto
          -18.33301 49 -68.75 70 -66.91699 0 rrcurveto
          endchar
        </CharString>
        <CharString name="lig.37">
          26 -21 626 -20 hstemhm
          189.75 81.58301 -71.5 61.41699 hintmask 11100000
          189.75 631 rmoveto
          hintmask 11010000
          10.08301 -261 -223.66602 89 -27.5 -85 231.91602 -68 -139.33301 -197 68.75 -52 121.91699 210 135.66602 -216 66.91699 56 -152.16699 199 227.33398 69 -22.91699 84 -225.5 -88 rlineto
          hintmask 11100000
          10.08301 260 rlineto
          -305.25 -12 rmoveto
          64 callsubr
          endchar
        </CharString>
        <CharString name="lig.38">
          211.75 69.66699 vstem
          211.75 712 rmoveto
          -528.91699 -356 0 -86 528.91699 -359 69.66699 0 0 801 rlineto
          -69.66699 -711 rmoveto
          65 callsubr
          endchar
        </CharString>
        <CharString name="lig.39">
          47 162 198 162 hstem
          223.66699 147.58301 vstem
          -10.08301 598 rmoveto
          -435.41699 -243 0 -85 435.41699 -242 0 81 -363 204 363 204 rlineto
          381.33301 -28 rmoveto
          66 callsubr
          -361 vmoveto
          67 callsubr
          endchar
        </CharString>
        <CharString name="lig.4">
          -91 68 -23 63 211 73 27 73 -22 62 185 74 hstemhm
          27.5 74.25 166.83301 67.83398 121 79.75 hintmask 1011011110000000
          260.33301 700 rmoveto
          -45.83301 0 -142.08301 -4 -66 -91 -53.16699 -72 -31.16699 -116 -16.5 -31 -23.83301 -48 -29.33301 -37 -37.58398 0 -55.91602 0 -29.33398 100 -91.66602 0 -81.58398 0 -39.41602 -70 -27.5 -58 rrcurveto
          55 -30 rlineto
          23.83301 48 27.5 37 39.41699 0 58.66602 0 32.08398 -100 86.16602 0 80.66699 0 40.33301 69 27.5 57 15.58398 33 26.58301 103 49.5 64 53.16699 70 122.83301 2 33 0 rrcurveto
          167.75 28.41699 -151 -191 -172 0.91602 -135 -57.75 -35.75 -28.41602 24 107 hvcurveto
          296 vlineto
          hintmask 0110111110000000
          -51.33398 30 -35.75 7 -42.16602 0 rrcurveto
          -113.66699 -66 -83 -175 -132 37.58301 -97 99.91699 hvcurveto
          73.33301 0 34.83398 51 17.41602 47 rrcurveto
          3.66699 hlineto
          hintmask 1011011110000000
          -0.91699 -49 32.08398 -94 77 0 rrcurveto
          110 24.75 124 252 hvcurveto
          204 -40.33398 211 -236.5 vhcurveto
          8.25 -595 rmoveto
          hintmask 0110111110000000
          -11 -28 -19.25 -60 -64.16602 0 rrcurveto
          -55 -17.41699 69 97 130 24.75 66 83.41699 hvcurveto
          22 0 17.41602 -4 19.25 -10 rrcurveto
          endchar
        </CharString>
        <CharString name="lig.40">
          -57 77 616 66 hstem
          -4.58301 81.58301 86.16699 62.33301 115.5 83.41699 vstem
          447.33301 530 rmoveto
          89 vlineto
          -62.33301 44 -87.08301 31 -72.41699 8 rrcurveto
          146 -62.33301 -145 vlineto
          -112.75 -12 -55 -83 0 -80 0 -93 60.5 -59 107.25 -39 rrcurveto
          -317 vlineto
          -60.5 -4 -47.66699 8 -107.25 70 rrcurveto
          -323.58301 219 272.25 181 13.75 100 -352 -237 0 -87 389.58301 -265 rlineto
          90.75 -53 44.91699 -12 79.75 3 rrcurveto
          -96 62.33301 98 vlineto
          113.66699 18 85.25 88 0 126 0 124 -107.25 67 -91.66699 33 rrcurveto
          235 vlineto
          45.83301 -6 66 -23 110 -77 rrcurveto
          -284.16602 -107 rmoveto
          55 callsubr
          177.83301 -457 rmoveto
          56 callsubr
          endchar
        </CharString>
        <CharString name="lig.41">
          264.91699 617 rmoveto
          -27.5 68 -503.25 -244 0 -80 503.25 -244 27.5 68 -451 216 rlineto
          -96.25 -272 rmoveto
          502.33301 -244 27.5 68 -502.33301 241 rlineto
          endchar
        </CharString>
        <CharString name="lig.42">
          2 -21 661 -20 hstem
          642 vmoveto
          -423.5 -285 0 -87 423.5 -289 424.41699 289 0 86 rlineto
          -424.41699 -285 rmoveto
          -357.5 242 357.5 240 358.41699 -240 rlineto
          endchar
        </CharString>
        <CharString name="lig.43">
          276 74 268 -20 hstem
          -188.83301 618 rmoveto
          -248.41699 -305 248.41699 -305 57.75 54 -131.08398 156 rlineto
          -18.33301 22 -18.33301 20 -22 16 rrcurveto
          756.25 74 -756.25 hlineto
          26.58301 18 6.41699 9 25.66602 31 rrcurveto
          131.08398 156 rlineto
          endchar
        </CharString>
        <CharString name="lig.44">
          -19.25 582 rmoveto
          68 callsubr
          428.08301 65 rmoveto
          69 callsubr
          endchar
        </CharString>
        <CharString name="lig.45">
          26 -21 271 70 273 -20 hstem
          192.5 71.5 vstem
          -33.91699 619 rmoveto
          64 callsubr
          297.91699 65 rmoveto
          70 callsubr
          endchar
        </CharString>
        <CharString name="lig.46">
          348.33301 809 rmoveto
          -343.75 -772 -407.91602 276 323.58301 217 -37.58301 64 -352 -237 0 -87 443.66602 -301 -38.5 -87 62.33398 -30 411.58301 925 rlineto
          endchar
        </CharString>
        <CharString name="lig.47">
          -136 67 90 -21 170 64 82 68 72 66 247 67 hstem
          413.41699 769 rmoveto
          67 vlineto
          -102.66699 0 -95.33301 -34 11.91602 -122 rrcurveto
          15.58398 -158 -309.83398 0 21.08398 167 -65.08398 0 -21.08301 -167 -133.83301 0 21.08301 167 -65.08301 0 -21.08398 -167 -81.58301 0 0 -66 74.25 0 -28.41699 -222 -79.75 0 0 -64 rlineto
          72.41699 0 -20.16699 -170 65.08398 0 21.08301 170 132.91699 0 -20.16699 -170 65.08301 0 19.25 170 353.83398 0 -15.58398 -150 rlineto
          -11.91602 -122 95.33301 -34 102.66699 0 rrcurveto
          67 vlineto
          -66.91699 0 -53.16699 17 5.5 63 rrcurveto
          18.33398 205 rlineto
          8.25 88 -29.33398 33 -64.16602 13 63.25 13 30.25 37 -8.25 84 rrcurveto
          -18.33398 205 rlineto
          -5.5 62 53.16699 18 66.91699 0 rrcurveto
          -581.16699 -535 rmoveto
          49 callsubr
          386.83301 -222 rmoveto
          -349.25 0 26.58301 222 321.75 0 rlineto
          -3.66602 -47 -33 -25 -102.66699 0 rrcurveto
          -68 vlineto
          108.16699 0 30.25 -28 1.83301 -54 rrcurveto
          endchar
        </CharString>
        <CharString name="lig.48">
          -115 71 65 -21 170 64 222 66 221 72 hstemhm
          168.66699 230.08301 -230.08301 73.33301 hintmask 11111100
          398.75 743 rmoveto
          72 -230.08301 vlineto
          hintmask 11111010
          -293 -235.58398 vlineto
          21.08398 167 -65.08398 0 -21.08301 -167 -133.83301 0 21.08301 167 -65.08301 0 -21.08398 -167 -81.58301 0 0 -66 74.25 0 -28.41699 -222 -79.75 0 0 -64 72.41699 0 -20.16699 -170 rlineto
          65.08398 0 21.08301 170 132.91699 0 -20.16699 -170 65.08301 0 19.25 170 279.58398 0 rlineto
          hintmask 11111100
          -285 230.08301 71 vlineto
          hintmask 11111010
          -156.75 787 hlineto
          -409.75 -509 rmoveto
          49 callsubr
          37.58301 -222 rmoveto
          26.58301 222 243.83398 0 0 -222 rlineto
          endchar
        </CharString>
        <CharString name="lig.49">
          21 -21 188 65 -55 65 112 65 -55 66 hstemhm
          hintmask 11001000
          -139.33301 385 rmoveto
          81.58301 66 -73.33301 hlineto
          30.25 238 -65.08398 0 -30.25 -238 -133.83301 0 30.25 238 -65.08301 0 -30.25 -238 -81.58398 0 0 -66 74.25 0 -17.41602 -132 -79.75 0 0 -65 72.41602 0 -22 -188 rlineto
          65.08398 0 22 188 133.83301 0 -22 -188 65.08301 0 21.08398 188 83.41602 0 0 65 -74.25 0 rlineto
          hintmask 10010000
          599.5 187 rmoveto
          71 callsubr
          hintmask 11001000
          -798.41602 -122 rmoveto
          15.58301 132 134.75 0 -17.41699 -132 rlineto
          hintmask 10100000
          642.58398 10 rmoveto
          71 callsubr
          endchar
        </CharString>
        <CharString name="lig.5">
          180 72 68 70 41 71 hstem
          -137.5 502 rmoveto
          -103.58301 0 -58.66699 -81 -27.5 -58 rrcurveto
          55 -28 rlineto
          23.83301 48 46.75 48 61.41699 0 74.25 0 82.5 -111 103.58301 0 105.41699 0 74.25 69 27.5 57 rrcurveto
          -55 29 rlineto
          -23.83301 -47 -62.33398 -38 -63.25 0 -73.33301 0 -78.83301 112 -108.16699 0 rrcurveto
          452.83301 -250 rmoveto
          -630.66602 -72 630.66602 hlineto
          endchar
        </CharString>
        <CharString name="lig.50">
          0 128 42 64 222 66 hstem
          -38.5 456 rmoveto
          72 callsubr
          341.91602 2 rmoveto
          55 453 -84.33301 0 -55 -453 rlineto
          -456.5 -2 rmoveto
          73 callsubr
          387.75 -234 rmoveto
          17.41602 128 -102.66602 0 -17.41699 -128 rlineto
          endchar
        </CharString>
</ttFont>
